<?xml version="1.0" standalone="no"?>
<!DOCTYPE svg PUBLIC "-//W3C//DTD SVG 1.1//EN" "http://www.w3.org/Graphics/SVG/1.1/DTD/svg11.dtd" >
<svg>
<metadata>
Created by FontForge 20090914 at Sun Feb 19 19:17:27 2017
 By www-data
Copyright (C)2011 Design Studio Creation.
</metadata>
<defs>
<font id="MartFutomaruShadow" horiz-adv-x="1000" vert-adv-y="1000" >
  <font-face 
    font-family="MartFutomaruShadow"
    font-weight="400"
    font-stretch="normal"
    units-per-em="1000"
    panose-1="2 0 0 0 0 0 0 0 0 0"
    ascent="880"
    descent="-120"
    x-height="609.999"
    cap-height="779"
    bbox="12.999 -101.003 988 880"
    underline-thickness="47"
    underline-position="-71"
    unicode-range="U+0003-U+FFE5"
  />
<missing-glyph 
d="M100 779h800v-799h-800v799zM820 113v530l-265 -265zM498 434l265 265h-529zM180 640v-524l262 262zM237 60h523l-262 261z" />
    <glyph glyph-name=".notdef" 
d="M100 779h800v-799h-800v799zM820 113v530l-265 -265zM498 434l265 265h-529zM180 640v-524l262 262zM237 60h523l-262 261z" />
    <glyph glyph-name="uni0003" horiz-adv-x="0" vert-adv-y="0" 
 />
    <glyph glyph-name="uni0003" unicode="&#xd;" horiz-adv-x="0" vert-adv-y="0" 
 />
    <glyph glyph-name="uni0003" unicode="&#xa;" horiz-adv-x="0" vert-adv-y="0" 
 />
    <glyph glyph-name="uni0009" unicode="&#x9;" horiz-adv-x="500" 
 />
    <glyph glyph-name="uni0009" unicode=" " horiz-adv-x="500" 
 />
    <glyph glyph-name="exclam" unicode="!" horiz-adv-x="574" 
d="M499 568c-63.333 -228.667 -103.665 -350.331 -120.998 -364.998c-6.66699 -20.667 -20.334 -37.334 -41.001 -50.001c19.333 -22 29 -47.333 29 -76c0 -42.667 -18 -75.334 -54 -98.001c-19.333 -12 -41 -18 -65 -18c-24.667 0 -47.5 6.66699 -68.5 20
s-36.5 31.333 -46.5 54c-23.333 10 -41.666 25.667 -54.999 47c-16 25.333 -21 54.333 -15 87c6.66699 38 30 65 70 81c-12.667 20 -17.334 41 -14.001 63l51 380c1.33301 7.33301 2.33301 11.666 3 12.999c5.33301 29.333 20.666 53.333 45.999 72s53.333 28 84 28
c26.667 0 51.5 -7 74.5 -21s40.5 -33 52.5 -57c51.333 -24.667 77 -64.334 77 -119.001c0 -9.33301 -1 -18.166 -3 -26.499s-3.33301 -13.166 -4 -14.499zM394.001 672.003c0 24 -9.33203 44.332 -27.999 60.999s-40 25 -64 25c-22 0 -41 -6.66699 -57 -20
s-25.333 -30.333 -28 -51l-52 -381c-2 -15.333 2.83301 -28.666 14.5 -39.999s25.167 -17 40.5 -17c25.333 0 41.666 11 48.999 33l120 364c3.33301 9.33301 5 18 5 26zM254.002 140.002c0 20 -7.5 36.834 -22.5 50.501s-32.833 20.5 -53.5 20.5
c-19.333 0 -36 -6.5 -50 -19.5s-21 -28.833 -21 -47.5c0 -20.667 7.66699 -37.834 23 -51.501s33 -20.5 53 -20.5s36.833 6.5 50.5 19.5s20.5 29.167 20.5 48.5z" />
    <glyph glyph-name="quotedbl" unicode="&#x22;" horiz-adv-x="503" 
d="M438 561c0 -24 -8.83301 -44.5029 -26.5 -61.5029s-38.834 -25.5 -63.501 -25.5c-25.333 0 -47 9 -65 27c-17.333 -18 -38.666 -27 -63.999 -27c-21.333 0 -40 6.33301 -56 19s-26.333 28.667 -31 48c-19.333 4.66699 -35.333 14.834 -48 30.501s-19 33.167 -19 52.5v109
c0 23.333 8.83301 43.5 26.5 60.5s38.834 25.5 63.501 25.5c25.333 0 46.666 -8.66699 63.999 -26c18 17.333 39.667 26 65 26c20.667 0 39.167 -6.16699 55.5 -18.5s26.833 -28.166 31.5 -47.499c19.333 -5.33301 35.333 -15.666 48 -30.999s19 -33 19 -53v-108z
M326 623.997v109c0 10.667 -4.16699 19.667 -12.5 27s-18.166 11 -29.499 11c-12 0 -22 -3.66699 -30 -11s-12 -16.333 -12 -27v-109c0 -10.667 4 -19.667 12 -27s18 -11 30 -11c11.333 0 21.166 3.66699 29.499 11s12.5 16.333 12.5 27zM197 623.997v109
c0 10.667 -4.16699 19.667 -12.5 27s-18.166 11 -29.499 11c-12 0 -22 -3.66699 -30 -11s-12 -16.333 -12 -27v-109c0 -10.667 4 -19.667 12 -27s18 -11 30 -11c11.333 0 21.166 3.66699 29.499 11s12.5 16.333 12.5 27z" />
    <glyph glyph-name="numbersign" unicode="#" horiz-adv-x="779" 
d="M731 283c0 -28 -9.99902 -51.998 -29.999 -71.998s-43.667 -30 -71 -30v-38c0 -30 -10.833 -55.667 -32.5 -77s-47.5 -32 -77.5 -32c-42.667 0 -74.334 19 -95.001 57c-21.333 -38 -53.333 -57 -96 -57c-23.333 0 -44.166 6.5 -62.499 19.5s-31.5 29.833 -39.5 50.5
c-46.667 17.333 -70.334 50.666 -71.001 99.999c-14.667 12 -25.334 27 -32.001 45c-20.667 7.33301 -37.5 19.833 -50.5 37.5s-19.5 37.5 -19.5 59.5s6.66699 41.833 20 59.5s30 29.834 50 36.501v2c-20.667 6.66699 -37.5 18.834 -50.5 36.501s-19.5 37.5 -19.5 59.5
c0 28 10 52 30 72s44 30 72 30v9c0 30 10.5 55.667 31.5 77s46.833 32 77.5 32c42.667 0 74.667 -19.333 96 -58c20.667 38.667 52.334 58 95.001 58c23.333 0 44.333 -6.5 63 -19.5s32 -30.167 40 -51.5c32 -12 53.667 -34 65 -66c18 -12.667 30.333 -29.334 37 -50.001
c20.667 -6.66699 37.5 -18.834 50.5 -36.501s19.5 -37.5 19.5 -59.5c0 -22.667 -6.5 -42.834 -19.5 -60.501s-29.833 -29.834 -50.5 -36.501l1 -1c20 -7.33301 36.5 -19.666 49.5 -36.999s19.5 -37 19.5 -59zM619.001 346.002c0 14.667 -5.16699 27.334 -15.5 38.001
s-23.166 16 -38.499 16h-47v86h47c15.333 0 28.166 5.33301 38.499 16s15.5 23.334 15.5 38.001s-5.16699 27.334 -15.5 38.001s-23.166 16 -38.499 16h-47v57c0 16.667 -6.16699 31 -18.5 43s-26.833 18 -43.5 18s-31 -6 -43 -18s-18 -26.333 -18 -43v-57h-69v57
c0 16.667 -6 31 -18 43s-26.333 18 -43 18c-17.333 0 -31.833 -6 -43.5 -18s-17.5 -26.333 -17.5 -43v-57h-48c-14.667 0 -27.334 -5.33301 -38.001 -16s-16 -23.334 -16 -38.001s5.33301 -27.334 16 -38.001s23.334 -16 38.001 -16h48v-86h-48
c-14.667 0 -27.334 -5.33301 -38.001 -16s-16 -23.334 -16 -38.001s5.33301 -27.334 16 -38.001s23.334 -16 38.001 -16h48v-86c0 -16.667 5.83301 -31 17.5 -43s26.167 -18 43.5 -18c16.667 0 31 6 43 18s18 26.333 18 43v86h69v-86c0 -16.667 6 -31 18 -43
s26.333 -18 43 -18s31.167 6 43.5 18s18.5 26.333 18.5 43v86h47c15.333 0 28.166 5.33301 38.499 16s15.5 23.334 15.5 38.001zM395.001 400.002h-69v86h69v-86z" />
    <glyph glyph-name="dollar" unicode="$" horiz-adv-x="822" 
d="M756 601c0 -30.667 -10.332 -57.333 -30.999 -80s-46.334 -35.334 -77.001 -38.001c7.33301 -8 13.666 -17 18.999 -27c59.333 -34 89 -85 89 -153v-135c0 -48.667 -17.333 -90.5 -52 -125.5s-76.667 -52.5 -126 -52.5h-31c-6.66699 -24.667 -20.167 -45.167 -40.5 -61.5
s-43.833 -24.5 -70.5 -24.5c-50.667 0 -85.667 24 -105 72c-10 3.33301 -19 8 -27 14h-70c-52.667 0 -89 24.333 -109 73c-22 8.66699 -39.667 22.834 -53 42.501s-20 41.5 -20 65.5c0 33.333 11.5 61.5 34.5 84.5s50.833 34.5 83.5 34.5h15c-18 14 -33 30.667 -45 50
c-58.667 34.667 -88 86 -88 154v110c0 49.333 17.333 91.333 52 126s76.334 52 125.001 52h34c7.33301 24 21 43.5 41 58.5s42.667 22.5 68 22.5c50.667 0 85.667 -23.667 105 -71c6.66699 -2.66699 13 -6 19 -10h78c52.667 0 89 -24 109 -72c22 -8.66699 39.667 -23 53 -43
s20 -42 20 -66zM644.001 664.001c0 19.333 -6.83301 35.832 -20.5 49.499s-30.167 20.5 -49.5 20.5h-135v15c0 18 -6.5 33.5 -19.5 46.5s-28.833 19.5 -47.5 19.5c-18 0 -33.5 -6.5 -46.5 -19.5s-19.5 -28.5 -19.5 -46.5v-15h-77c-35.333 0 -65.666 -12.667 -90.999 -38
s-38 -56 -38 -92v-110c0 -36 12.667 -66.667 38 -92s55.666 -38 90.999 -38h77v-122h-136c-19.333 0 -35.833 -6.83301 -49.5 -20.5s-20.5 -30.5 -20.5 -50.5c0 -19.333 6.83301 -35.666 20.5 -48.999s30.167 -20 49.5 -20h136v-20c0 -18.667 6.5 -34.334 19.5 -47.001
s28.5 -19 46.5 -19c18.667 0 34.5 6.33301 47.5 19s19.5 28.334 19.5 47.001v20h75c36 0 66.667 12.667 92 38s38 56 38 92v134c0 36 -12.667 66.667 -38 92s-56 38 -92 38h-75v98h135c19.333 0 35.833 6.83301 49.5 20.5s20.5 30.167 20.5 49.5zM306.001 496h-30
c-22 0 -33 10.333 -33 31v36c0 20.667 11 31 33 31h30v-98zM500.001 273c0 -20.667 -11 -31 -33 -31h-28v122h28c22 0 33 -10.333 33 -31v-60z" />
    <glyph glyph-name="percent" unicode="%" horiz-adv-x="801" 
d="M774 128c0 -43.333 -15.5 -80.502 -46.5 -111.502s-68.167 -46.5 -111.5 -46.5h-24c-62.667 0 -109 27.333 -139 82c-12.667 6.66699 -24 15 -34 25l-30 -62c-11.333 -24 -29.333 -40.333 -54 -49c-26 -9.33301 -52 -7.83301 -78 4.5s-43.333 31.833 -52 58.5
c-20.667 6.66699 -37.5 18.5 -50.5 35.5s-19.5 36.167 -19.5 57.5c0 14 3 27.333 9 40l71 151c-45.333 10.667 -79.333 36.334 -102 77.001c-55.333 30 -83 76.333 -83 139v110c0 43.333 15.333 80.5 46 111.5s67.667 46.5 111 46.5h25c62 0 108 -27.667 138 -83
c14.667 -7.33301 28 -17.333 40 -30l31 66c10.667 23.333 28.667 39.666 54 48.999c26 9.33301 51.833 7.83301 77.5 -4.5s43.167 -31.833 52.5 -58.5c20 -7.33301 36.5 -19.666 49.5 -36.999s19.5 -36.666 19.5 -57.999c0 -13.333 -3 -26.333 -9 -39l-70 -150
c42.667 -12 74.667 -37.333 96 -76c55.333 -30 83 -76.333 83 -139v-109zM558 685.998c2.66699 6 4 12.333 4 19c0 14 -5.33301 26 -16 36s-23 15 -37 15c-21.333 0 -36.333 -9 -45 -27l-276 -587c-2.66699 -6 -4 -12.333 -4 -19c0 -14.667 5.33301 -27 16 -37
s23 -15 37 -15c21.333 0 36.333 9 45 27zM662 190.998v110c0 30 -10.833 55.667 -32.5 77s-47.5 32 -77.5 32h-24c-30.667 0 -56.667 -10.667 -78 -32s-32 -47 -32 -77v-110c0 -30 10.667 -55.833 32 -77.5s47.333 -32.5 78 -32.5h24c30 0 55.833 10.833 77.5 32.5
s32.5 47.5 32.5 77.5zM322 528.998v110c0 30 -10.833 55.833 -32.5 77.5s-47.5 32.5 -77.5 32.5h-25c-30 0 -55.667 -10.833 -77 -32.5s-32 -47.5 -32 -77.5v-110c0 -30 10.667 -55.667 32 -77s47 -32 77 -32h25c30 0 55.833 10.667 77.5 32s32.5 47 32.5 77zM589 190.998
c0 -11.333 -4.16699 -21 -12.5 -29s-18.5 -12 -30.5 -12h-13c-12 0 -22.167 4 -30.5 12s-12.5 17.667 -12.5 29v110c0 10.667 4.16699 20 12.5 28s18.5 12 30.5 12h13c12 0 22.167 -4 30.5 -12s12.5 -17.333 12.5 -28v-110zM249 528.998c0 -10.667 -4.16699 -20 -12.5 -28
s-18.5 -12 -30.5 -12h-13c-12 0 -22.167 4 -30.5 12s-12.5 17.333 -12.5 28v110c0 11.333 4.16699 21 12.5 29s18.5 12 30.5 12h13c12 0 22.167 -4 30.5 -12s12.5 -17.667 12.5 -29v-110z" />
    <glyph glyph-name="ampersand" unicode="&#x26;" horiz-adv-x="779" 
d="M726 73c0 -32 -11.168 -58.665 -33.501 -79.998s-48.5 -32 -78.5 -32c-25.333 0 -48.333 7.66699 -69 23c-26.667 -10.667 -54 -16 -82 -16h-122c-39.333 0 -75.666 8.66699 -108.999 26s-58.333 41.666 -75 72.999c-31.333 16.667 -55.833 41.667 -73.5 75
s-26.5 69.666 -26.5 108.999v83c0 44 12.333 84.667 37 122c-14 28 -21 57.333 -21 88v58c0 54 19.167 100.167 57.5 138.5s84.5 57.5 138.5 57.5h131c35.333 0 68 -8.33301 98 -25s53 -39 69 -67c28.667 -16 51.5 -39 68.5 -69s25.5 -62.667 25.5 -98v-73
c0 -29.333 -7.33301 -58 -22 -86c4 -6 7.33301 -12.333 10 -19c22.667 -9.33301 40.667 -24 54 -44s20 -42 20 -66c0 -17.333 -3.66699 -34 -11 -50l-21 -45l4 -4c20.667 -22 31 -48.333 31 -79zM603.999 284.002c4.66699 10 7 19.998 7 29.998c0 30 -13.667 51.333 -41 64
c-9.33301 4.66699 -19.333 7 -30 7c-30 0 -51.333 -13.667 -64 -41l-12 -26l-61 64c40.667 0.666992 75.167 15.334 103.5 44.001s42.5 63.334 42.5 104.001v72c0 41.333 -14.5 76.333 -43.5 105s-64.167 43 -105.5 43h-131c-40.667 0 -75.5 -14.333 -104.5 -43
s-43.5 -63.667 -43.5 -105v-58c0 -34 10.667 -64.333 32 -91c-32 -33.333 -48 -73 -48 -119v-83c0 -48 16.833 -88.667 50.5 -122s74.167 -50 121.5 -50h122c32.667 0 63 8.66699 91 26l13 -13c12.667 -13.333 28 -20 46 -20s33.333 6.16699 46 18.5s19 27.833 19 46.5
c0 17.333 -6 32.333 -18 45l-27 27zM412.999 548c0 -12 -4.33301 -22.167 -13 -30.5s-19 -12.5 -31 -12.5h-67c-12.667 0 -23.334 4.16699 -32.001 12.5s-13 18.5 -13 30.5v28c0 11.333 4.33301 21.166 13 29.499s19.334 12.5 32.001 12.5h67c12 0 22.333 -4.16699 31 -12.5
s13 -18.166 13 -29.499v-28zM387.999 211h-7h-87c-14 0 -26.167 4.83301 -36.5 14.5s-15.5 21.167 -15.5 34.5v71c0 8.66699 2.33301 16.667 7 24z" />
    <glyph glyph-name="quotesingle" unicode="'" horiz-adv-x="370" 
d="M319 576c0 -28 -10.333 -52 -31 -72s-45.667 -30 -75 -30c-23.333 0 -44.166 6.5 -62.499 19.5s-30.833 29.833 -37.5 50.5c-20.667 7.33301 -37.5 19.666 -50.5 36.999s-19.5 37 -19.5 59v78c0 28 10.333 51.833 31 71.5s45.667 29.5 75 29.5
c23.333 0 44.166 -6.5 62.499 -19.5s30.833 -29.5 37.5 -49.5c20.667 -7.33301 37.5 -19.666 50.5 -36.999s19.5 -37 19.5 -59v-78zM207 640v78c0 14.667 -5.66699 27.167 -17 37.5s-25 15.5 -41 15.5s-29.667 -5.16699 -41 -15.5s-17 -22.833 -17 -37.5v-78
c0 -15.333 5.66699 -28.166 17 -38.499s25 -15.5 41 -15.5s29.667 5.16699 41 15.5s17 23.166 17 38.499z" />
    <glyph glyph-name="parenleft" unicode="(" horiz-adv-x="591" 
d="M540 18c0 -32 -11.502 -59.499 -34.502 -82.499s-50.5 -34.5 -82.5 -34.5c-22.667 0 -44 6.33301 -64 19c-49.333 31.333 -92 68 -128 110c-58 48.667 -103 106.167 -135 172.5s-48 136.166 -48 209.499c0 84.667 22 165.334 66 242.001s104 138.667 180 186
c20.667 13.333 42.334 20 65.001 20c52 0 88 -24 108 -72c22 -8.66699 39.667 -22.834 53 -42.501s20 -41.5 20 -65.5c0 -42.667 -17.667 -75.334 -53 -98.001c-42 -27.333 -74.833 -61.5 -98.5 -102.5s-35.5 -84.5 -35.5 -130.5c0 -57.333 18 -110 54 -158
c18.667 -14 29.334 -22.333 32.001 -25c10 -8.66699 18.333 -19.667 25 -33c5.33301 -4.66699 13.333 -10.667 24 -18c34.667 -23.333 52 -55.666 52 -96.999zM427.998 81.001c0 25.333 -10.333 44.668 -31 58.001c-47.333 30.667 -85.166 70.167 -113.499 118.5
s-42.5 99.833 -42.5 154.5c0 55.333 14.167 107 42.5 155s66.166 87.667 113.499 119c20.667 13.333 31 32.333 31 57c0 19.333 -6.66699 35.666 -20 48.999s-29.666 20 -48.999 20c-13.333 0 -26 -4 -38 -12c-68.667 -42.667 -123 -97.667 -163 -165
c-41.333 -70 -62 -144.333 -62 -223s20.667 -153 62 -223c40 -67.333 94.333 -122.333 163 -165c12 -7.33301 24.667 -11 38 -11c19.333 0 35.666 6.66699 48.999 20s20 29.333 20 48z" />
    <glyph glyph-name="parenright" unicode=")" horiz-adv-x="591" 
d="M544 349c0 -86 -21.834 -167.002 -65.501 -243.002s-103.834 -137.667 -180.501 -185c-20.667 -13.333 -42.334 -20 -65.001 -20c-52 0 -88 24 -108 72c-21.333 8.66699 -38.833 22.834 -52.5 42.501s-20.5 41.5 -20.5 65.5c0 42.667 17.667 75.667 53 99
c42 26.667 74.833 60.5 98.5 101.5s35.5 84.5 35.5 130.5c0 57.333 -18 110.333 -54 159l-32 24c-9.33301 8.66699 -17.333 19.667 -24 33c-7.33301 6 -15.666 12 -24.999 18c-34.667 22.667 -52 55 -52 97c0 32.667 11.5 60.334 34.5 83.001s50.5 34 82.5 34
c22.667 0 44.334 -6.66699 65.001 -20c48.667 -30.667 90.334 -66.667 125.001 -108c58 -48.667 103.333 -106.5 136 -173.5s49 -136.833 49 -209.5zM431.999 411.998c0 78.667 -20.667 152.998 -62 222.998c-40 67.333 -94 122.333 -162 165c-12.667 8 -25.667 12 -39 12
c-18.667 0 -34.834 -6.66699 -48.501 -20s-20.5 -29.666 -20.5 -48.999c0 -24.667 10.333 -43.667 31 -57c48 -31.333 86 -71 114 -119s42 -99.667 42 -155c0 -54.667 -14 -106.167 -42 -154.5s-66 -87.833 -114 -118.5c-20.667 -13.333 -31 -32.666 -31 -57.999
c0 -18.667 6.83301 -34.667 20.5 -48s29.834 -20 48.501 -20c13.333 0 26.333 3.66699 39 11c68 42.667 122 97.667 162 165c41.333 70 62 144.333 62 223z" />
    <glyph glyph-name="asterisk" unicode="*" horiz-adv-x="548" 
d="M494 496c0 -20.667 -6.33301 -39.335 -19 -56.002s-29 -27.667 -49 -33c-11.333 -2.66699 -24 -3 -38 -1c-14 -39.333 -41.667 -59 -83 -59c-42.667 0 -71 20 -85 60c-22.667 -4.66699 -43.667 -0.666992 -63 12s-32 30 -38 52c-20 5.33301 -36.333 16.333 -49 33
s-19 35.334 -19 56.001s7 39.334 21 56.001c-14 16.667 -21 35.334 -21 56.001s6.33301 39.334 19 56.001s29 27.667 49 33c12 2.66699 24.667 2.66699 38 0c14 38.667 42 58 84 58c41.333 0 69 -19 83 -57c23.333 4 44.5 -0.166992 63.5 -12.5s31.833 -29.5 38.5 -51.5
c20 -5.33301 36.333 -16.333 49 -33s19 -35.334 19 -56.001s-7 -39.334 -21 -56.001c14 -16.667 21 -35.667 21 -57zM382 558.999c0 15.333 -6.33398 26.665 -19.001 33.998l-64 23l64 23c12.667 6.66699 19 17.667 19 33c0 12 -4.16699 22.333 -12.5 31
s-18.166 13 -29.499 13c-6.66699 0 -13 -1.66699 -19 -5l-47 -39l8 61c0 10.667 -4 19.667 -12 27s-17.667 11 -29 11c-12 0 -22 -3.66699 -30 -11s-12 -16.333 -12 -27l10 -61l-49 38c-6 3.33301 -12.333 5 -19 5c-11.333 0 -21.166 -4.33301 -29.499 -13
s-12.5 -18.667 -12.5 -30c0 -15.333 6.33301 -26.666 19 -33.999l67 -22l-67 -22c-12.667 -7.33301 -19 -18.666 -19 -33.999c0 -12 4.16699 -22.333 12.5 -31s18.166 -13 29.499 -13c6.66699 0 13 1.66699 19 5l49 38l-10 -61c0 -11.333 4 -20.666 12 -27.999
s18 -11 30 -11c11.333 0 21 3.66699 29 11s12 16.666 12 27.999l-8 61l48 -38c5.33301 -3.33301 11.333 -5 18 -5c12 0 22 4.33301 30 13s12 18.667 12 30z" />
    <glyph glyph-name="plus" unicode="+" horiz-adv-x="658" 
d="M623 291c0 -28 -9.83496 -52 -29.502 -72s-43.5 -30 -71.5 -30h-50v-43c0 -30 -10.667 -55.5 -32 -76.5s-47 -31.5 -77 -31.5c-23.333 0 -44.166 6.5 -62.499 19.5s-31.5 29.833 -39.5 50.5c-38.667 14 -62 41.333 -70 82c-41.333 5.33301 -69 28 -83 68
c-20 6.66699 -36.5 18.834 -49.5 36.501s-19.5 37.834 -19.5 60.501c0 28 9.83301 51.833 29.5 71.5s43.5 29.5 71.5 29.5h50v43c0 30 10.667 55.667 32 77s47 32 77 32c22.667 0 43.334 -6.5 62.001 -19.5s32 -29.833 40 -50.5c38.667 -14.667 61.667 -42 69 -82
c42 -5.33301 70 -28 84 -68c20 -6.66699 36.5 -18.834 49.5 -36.501s19.5 -37.834 19.5 -60.501zM510.998 355c0 14.667 -5.16699 27.167 -15.5 37.5s-22.833 15.5 -37.5 15.5h-98v91c0 16.667 -6 31 -18 43s-26.333 18 -43 18s-31 -5.83301 -43 -17.5
s-18 -26.167 -18 -43.5v-91h-98c-14.667 0 -27.167 -5.16699 -37.5 -15.5s-15.5 -22.833 -15.5 -37.5s5.16699 -27.334 15.5 -38.001s22.833 -16 37.5 -16h98v-91c0 -16.667 5.83301 -31 17.5 -43s26.167 -18 43.5 -18c16.667 0 31 6 43 18s18 26.333 18 43v91h98
c14.667 0 27.167 5.33301 37.5 16s15.5 23.334 15.5 38.001z" />
    <glyph glyph-name="comma" unicode="," horiz-adv-x="396" 
d="M338 106l-1.00098 -1.99707l-31 -113c-6 -21.333 -17.667 -38.833 -35 -52.5s-37 -20.5 -59 -20.5c-21.333 0 -40.5 6.16699 -57.5 18.5s-28.833 28.833 -35.5 49.5c-22 7.33301 -39.333 20.166 -52 38.499s-17.667 40.5 -15 66.5l14 119c4.66699 24 16.667 43.5 36 58.5
s41.333 22.5 66 22.5c22.667 0 43.334 -6.33301 62.001 -19s32 -29.667 40 -51c24 -8.66699 42.5 -23.834 55.5 -45.501s17.167 -44.834 12.5 -69.501zM226.999 178.003c0.666992 4 0.998047 8 0.998047 12c0 14.667 -6.16699 27.167 -18.5 37.5s-26.166 15.5 -41.499 15.5
c-14 0 -26.333 -4 -37 -12s-16.667 -18 -18 -30l-13 -117c-1.33301 -12.667 1.5 -24.167 8.5 -34.5s17.167 -16.833 30.5 -19.5c12.667 -2.66699 24.334 -0.5 35.001 6.5s18 16.5 22 28.5zM306.997 -6.99707l-1 -4v2zM52.9971 93.0029l-1 -2v-1z" />
    <glyph glyph-name="hyphen" unicode="-" horiz-adv-x="615" 
d="M563 292c0 -28 -10 -51.998 -30 -71.998s-44 -30 -72 -30h-244c-21.333 0 -40.833 6.33301 -58.5 19s-29.834 29 -36.501 49c-20.667 6.66699 -37.5 19 -50.5 37s-19.5 38 -19.5 60c0 28 10 52 30 72s43.667 30 71 30h244c22 0 41.833 -6.33301 59.5 -19
s29.834 -29.334 36.501 -50.001c20.667 -6.66699 37.5 -18.834 50.5 -36.501s19.5 -37.5 19.5 -59.5zM451 355.002c0 14.667 -5.33301 27.334 -16 38.001s-23.334 16 -38.001 16h-244c-14.667 0 -27.167 -5.33301 -37.5 -16s-15.5 -23.334 -15.5 -38.001
s5.16699 -27.334 15.5 -38.001s22.833 -16 37.5 -16h244c14.667 0 27.334 5.33301 38.001 16s16 23.334 16 38.001z" />
    <glyph glyph-name="period" unicode="." horiz-adv-x="356" 
d="M319 72c0 -28 -10.334 -52 -31.001 -72s-45.334 -30 -74.001 -30c-23.333 0 -44.166 6.5 -62.499 19.5s-31.166 29.5 -38.499 49.5c-20 7.33301 -36.5 19.833 -49.5 37.5s-19.5 37.5 -19.5 59.5c0 28 10.333 52 31 72s45.667 30 75 30c22.667 0 43.167 -6.5 61.5 -19.5
s31.166 -29.5 38.499 -49.5c20.667 -7.33301 37.334 -19.833 50.001 -37.5s19 -37.5 19 -59.5zM207.999 136c0 14.667 -5.66699 27.334 -17 38.001s-25 16 -41 16s-29.667 -5.33301 -41 -16s-17 -23.334 -17 -38.001c0 -15.333 5.66699 -28.333 17 -39s25 -16 41 -16
s29.667 5.33301 41 16s17 23.667 17 39z" />
    <glyph glyph-name="slash" unicode="/" horiz-adv-x="660" 
d="M618 566l-293.002 -545.001c-22 -40.667 -56.667 -61 -104 -61c-24 0 -46.667 6.83301 -68 20.5s-37 31.834 -47 54.501c-49.333 22 -74 58.667 -74 110c0 19.333 4.66699 37.333 14 54l293 545c22 40.667 56.667 61 104 61c20.667 0 40.334 -5 59.001 -15
c24.667 -14 42.667 -33.667 54 -59c22.667 -10 40.834 -25.167 54.501 -45.5s20.5 -42.5 20.5 -66.5c0 -19.333 -4.33301 -37 -13 -53zM510.998 651.999c5.33301 9.33301 8.00098 19.668 8.00098 31.001c0 28.667 -13.333 50 -40 64c-11.333 6.66699 -23.333 10 -36 10
c-28.667 0 -49.334 -12 -62.001 -36l-293 -545c-5.33301 -9.33301 -8 -19.333 -8 -30c0 -28.667 13.667 -50.334 41 -65.001c11.333 -6 23.333 -9 36 -9c28 0 48.333 11.667 61 35z" />
    <glyph glyph-name="zero" unicode="0" horiz-adv-x="779" 
d="M718 238c0 -74.667 -26.668 -138.667 -80.001 -192s-117.666 -80 -192.999 -80h-49c-92.667 0 -166.334 37.667 -221.001 113c-76.667 54.667 -115 129 -115 223v223c0 75.333 26.5 139.5 79.5 192.5s117.167 79.5 192.5 79.5h49c92.667 0 166.334 -37.667 221.001 -113
c77.333 -54.667 116 -128.667 116 -222v-224zM605.999 302v223c0 62 -22 114.833 -66 158.5s-97 65.5 -159 65.5h-49c-62 0 -114.833 -21.833 -158.5 -65.5s-65.5 -96.5 -65.5 -158.5v-223c0 -62 21.833 -114.833 65.5 -158.5s96.5 -65.5 158.5 -65.5h49
c62 0 115 21.833 159 65.5s66 96.5 66 158.5zM457.999 302c0 -23.333 -8.66699 -43.166 -26 -59.499s-38 -24.5 -62 -24.5h-27c-24 0 -44.5 8.16699 -61.5 24.5s-25.5 36.166 -25.5 59.499v223c0 22.667 8.5 42.167 25.5 58.5s37.5 24.5 61.5 24.5h27
c24 0 44.667 -8.16699 62 -24.5s26 -35.833 26 -58.5v-223zM409.999 302l0.000976562 195h-3c-10.667 0 -19.834 -3.5 -27.501 -10.5s-11.5 -15.167 -11.5 -24.5v-196h2c11.333 0 20.833 3.5 28.5 10.5s11.5 15.5 11.5 25.5z" />
    <glyph glyph-name="one" unicode="1" horiz-adv-x="531" 
d="M474 75c0 -32 -12 -59.5029 -36 -82.5029s-52.667 -34.5 -86 -34.5c-25.333 0 -48.166 6.83301 -68.499 20.5s-35.166 31.167 -44.499 52.5c-48.667 20.667 -73 56.334 -73 107.001v333c-28 12.667 -48 33.334 -60 62.001c-22 8.66699 -39.667 23 -53 43s-20 42 -20 66
c0 24.667 7.33301 47.334 22 68.001s34 35.334 58 44.001l132 46c14 4.66699 28.333 7 43 7c25.333 0 48.166 -6.66699 68.499 -20s35.166 -31 44.499 -53c48.667 -20.667 73 -56.334 73 -107.001v-552zM362 137.997v552.001c0 19.333 -7.16699 35.666 -21.5 48.999
s-31.833 20 -52.5 20c-8.66699 0 -17.667 -1.66699 -27 -5l-132 -46c-32 -10.667 -48 -32.667 -48 -66c0 -19.333 6.83301 -35.833 20.5 -49.5s30.167 -20.5 49.5 -20.5c8 0 15.667 1.33301 23 4l15 5c2 0.666992 4 1 6 1c12.667 0 19 -6.33301 19 -19v-425
c0 -18.667 7.33301 -34.834 22 -48.501s32 -20.5 52 -20.5c20.667 0 38.167 6.83301 52.5 20.5s21.5 29.834 21.5 48.501z" />
    <glyph glyph-name="two" unicode="2" horiz-adv-x="779" 
d="M732 85c0 -32.667 -11.5 -60.4971 -34.5 -83.4971s-50.833 -34.5 -83.5 -34.5h-385c-23.333 0 -44.166 6.33301 -62.499 19s-30.833 29.334 -37.5 50.001c-20.667 7.33301 -37.334 19.666 -50.001 36.999s-19 36.666 -19 57.999v171c0 46.667 14.167 88.334 42.5 125.001
s65.166 62 110.499 76c-32.667 12 -56 34 -70 66c-21.333 8.66699 -38.833 22.834 -52.5 42.501s-20.5 41.5 -20.5 65.5c0 32.667 11.667 60.667 35 84s51 35 83 35h247c38.667 0 74.834 -8.83301 108.501 -26.5s58.834 -41.834 75.501 -72.501
c31.333 -16.667 55.833 -41.834 73.5 -75.501s26.5 -70.167 26.5 -109.5v-66c0 -40.667 -10.333 -78.334 -31 -113.001s-48.334 -61.334 -83.001 -80.001c25.333 -13.333 43.333 -33 54 -59c22 -8.66699 39.667 -23 53 -43s20 -42 20 -66zM620 148.003
c0 19.333 -6.83301 35.832 -20.5 49.499s-30.167 20.5 -49.5 20.5h-294v86c0 8.66699 3.33301 16.167 10 22.5s14.667 9.5 24 9.5h145c47.333 0 87.833 17 121.5 51s50.5 74.667 50.5 122v67c0 47.333 -16.833 87.833 -50.5 121.5s-74.167 50.5 -121.5 50.5h-247
c-19.333 0 -35.833 -7 -49.5 -21s-20.5 -30.667 -20.5 -50s6.83301 -35.666 20.5 -48.999s30.5 -20 50.5 -20h219c14 0 26 -4.83301 36 -14.5s15 -21.5 15 -35.5v-42c0 -13.333 -5 -25 -15 -35s-22 -15 -36 -15h-124c-48.667 0 -90.167 -16 -124.5 -48
s-51.5 -70.667 -51.5 -116v-171c0 -14.667 5.5 -27.167 16.5 -37.5s24.5 -15.5 40.5 -15.5h385c19.333 0 35.833 6.83301 49.5 20.5s20.5 30.167 20.5 49.5z" />
    <glyph glyph-name="three" unicode="3" horiz-adv-x="779" 
d="M716 187c0 -60.667 -21.5 -112.498 -64.5 -155.498s-94.833 -64.5 -155.5 -64.5h-262c-52 0 -88.333 24 -109 72c-22 9.33301 -39.667 23.833 -53 43.5s-20 41.834 -20 66.501c0 32.667 11.5 60.5 34.5 83.5s50.833 34.5 83.5 34.5h28c-13.333 12 -23 26 -29 42
c-21.333 8.66699 -38.666 22.5 -51.999 41.5s-20 40.167 -20 63.5s6.5 44.5 19.5 63.5s30.167 32.5 51.5 40.5c-20 13.333 -34.333 30.666 -43 51.999c-22 9.33301 -39.667 23.833 -53 43.5s-20 41.5 -20 65.5c0 32.667 11.5 60.667 34.5 84s50.833 35 83.5 35h262
c38.667 0 74.667 -8.83301 108 -26.5s58.666 -41.834 75.999 -72.501c31.333 -16.667 55.833 -41.834 73.5 -75.501s26.5 -70.167 26.5 -109.5v-40c0 -45.333 -12.333 -86.333 -37 -123c24.667 -37.333 37 -78.333 37 -123v-41zM604 251.002v40c0 48 -17 89 -51 123
c34 34 51 75 51 123v41c0 47.333 -16.833 87.833 -50.5 121.5s-74.167 50.5 -121.5 50.5h-262c-19.333 0 -35.833 -7 -49.5 -21s-20.5 -30.667 -20.5 -50s6.83301 -35.833 20.5 -49.5s30.167 -20.5 49.5 -20.5h235c14 0 26 -4.66699 36 -14s15 -21 15 -35v-32
c0 -13.333 -5 -24.833 -15 -34.5s-22 -14.5 -36 -14.5h-196c-17.333 0 -32.333 -6.5 -45 -19.5s-19 -28.167 -19 -45.5c0 -18 6.33301 -33.333 19 -46s28 -19 46 -19h195c14 0 26 -4.83301 36 -14.5s15 -21.167 15 -34.5v-32c0 -13.333 -5 -24.833 -15 -34.5
s-22 -14.5 -36 -14.5h-235c-19.333 0 -35.833 -6.83301 -49.5 -20.5s-20.5 -30.167 -20.5 -49.5s6.83301 -36 20.5 -50s30.167 -21 49.5 -21h262c47.333 0 87.833 16.833 121.5 50.5s50.5 74.5 50.5 122.5z" />
    <glyph glyph-name="four" unicode="4" horiz-adv-x="827" 
d="M775 247c0 -30.667 -10.333 -57.1689 -31 -79.502s-46 -34.833 -76 -37.5v-55c0 -32.667 -12 -60.5 -36 -83.5s-53 -34.5 -87 -34.5c-24.667 0 -47.334 6.83301 -68.001 20.5s-35.667 31.5 -45 53.5c-44 18.667 -68 51.334 -72 98.001h-123
c-55.333 0 -94.666 25 -117.999 75c-51.333 23.333 -77 63 -77 119c0 16 3 31.667 9 47l137 353c8.66699 22.667 23.167 40.834 43.5 54.501s42.833 20.5 67.5 20.5c36.667 0 67.334 -13.667 92.001 -41c24.667 26.667 54.667 40 90 40c25.333 0 48.333 -6.83301 69 -20.5
s35.667 -31.5 45 -53.5c48.667 -20.667 73 -56.667 73 -108v-214c15.333 -12.667 26.666 -28 33.999 -46c48.667 -20 73 -56 73 -108zM663 309.998c0 19.333 -6.83398 35.834 -20.501 49.501s-30.167 20.5 -49.5 20.5h-3c-9.33301 0 -17.333 3.16699 -24 9.5
s-10 13.833 -10 22.5v267c0 19.333 -7.33301 35.833 -22 49.5s-32.334 20.5 -53.001 20.5c-20 0 -37.333 -6.83301 -52 -20.5s-22 -30.167 -22 -49.5v-267c0 -8.66699 -3.33301 -16.167 -10 -22.5s-14.667 -9.5 -24 -9.5h-94c-6.66699 0 -10 3.33301 -10 10
c0 1.33301 0.333008 2.66602 1 3.99902l101 259c3.33301 7.33301 5 15.333 5 24c0 32.667 -16.333 55 -49 67c-9.33301 3.33301 -18.666 5 -27.999 5c-32.667 0 -54.667 -14.333 -66 -43l-137 -354c-4 -9.33301 -6 -19 -6 -29c0 -22.667 8.16699 -42.167 24.5 -58.5
s35.833 -24.5 58.5 -24.5h200c9.33301 0 17.333 -3.16699 24 -9.5s10 -13.833 10 -22.5v-70c0 -18.667 7.33301 -34.834 22 -48.501s32 -20.5 52 -20.5c20.667 0 38.334 6.83301 53.001 20.5s22 29.834 22 48.501v70c0 8.66699 3.33301 16.167 10 22.5s14.667 9.5 24 9.5h3
c19.333 0 35.833 6.83301 49.5 20.5s20.5 30.167 20.5 49.5z" />
    <glyph glyph-name="five" unicode="5" horiz-adv-x="779" 
d="M729 187c0 -60.667 -21.501 -112.503 -64.501 -155.503s-94.833 -64.5 -155.5 -64.5h-267c-52 0 -88.333 24 -109 72c-21.333 9.33301 -38.833 23.833 -52.5 43.5s-20.5 41.834 -20.5 66.501c0 29.333 9.66699 55 29 77s43.666 35 72.999 39
c-23.333 13.333 -40 32.333 -50 57c-21.333 8.66699 -38.666 22.334 -51.999 41.001s-20 39.667 -20 63v260c0 30.667 10.833 56.834 32.5 78.501s47.834 32.5 78.501 32.5h379c52 0 88.333 -24 109 -72c22 -8.66699 39.667 -23 53 -43s20 -42 20 -66
c0 -32.667 -11.5 -60.5 -34.5 -83.5s-50.833 -34.5 -83.5 -34.5h-19c21.333 -16 39.333 -34.667 54 -56c66.667 -44 100 -105.667 100 -185v-70zM616.999 250.997v68.998c0 47.333 -16.833 88 -50.5 122s-74.167 51 -121.5 51h-208v116h293
c19.333 0 35.833 6.83301 49.5 20.5s20.5 30.167 20.5 49.5s-6.83301 35.833 -20.5 49.5s-30.167 20.5 -49.5 20.5h-379c-17.333 0 -32.166 -6.16699 -44.499 -18.5s-18.5 -27.166 -18.5 -44.499v-260c0 -17.333 6.16699 -32.166 18.5 -44.499s27.166 -18.5 44.499 -18.5
h251c18.667 0 34.667 -6.5 48 -19.5s20 -28.5 20 -46.5v-13c0 -18 -6.66699 -33.333 -20 -46s-29.333 -19 -48 -19h-224c-19.333 0 -35.833 -6.83301 -49.5 -20.5s-20.5 -30.167 -20.5 -49.5s6.83301 -36 20.5 -50s30.167 -21 49.5 -21h267
c47.333 0 87.833 16.833 121.5 50.5s50.5 74.5 50.5 122.5z" />
    <glyph glyph-name="six" unicode="6" horiz-adv-x="779" 
d="M713 186c0 -60.667 -21.667 -112.502 -65 -155.502s-95.333 -64.5 -156 -64.5h-156c-78.667 0 -140 33 -184 99c-67.333 44 -101 106 -101 186v325c0 60.667 21.5 112.667 64.5 156s95.167 65 156.5 65h240c52 0 88 -24.333 108 -73c22 -8.66699 39.833 -23 53.5 -43
s20.5 -42 20.5 -66c0 -32.667 -11.667 -60.5 -35 -83.5s-51 -34.5 -83 -34.5h-15c20 -15.333 37 -33.666 51 -54.999c67.333 -43.333 101 -104.666 101 -183.999v-72zM601 249.998v71c0 48 -16.833 88.667 -50.5 122s-74.5 50 -122.5 50h-130c-14 0 -26 4.83301 -36 14.5
s-15 21.5 -15 35.5v16c0 13.333 5 24.833 15 34.5s22 14.5 36 14.5h214c19.333 0 35.833 6.83301 49.5 20.5s20.5 30.167 20.5 49.5s-6.83301 36 -20.5 50s-30.167 21 -49.5 21h-240c-48 0 -88.833 -16.833 -122.5 -50.5s-50.5 -74.5 -50.5 -122.5v-325
c0 -48 16.833 -88.833 50.5 -122.5s74.5 -50.5 122.5 -50.5h156c48 0 88.833 16.667 122.5 50s50.5 74 50.5 122zM453 266.998c0 -14 -5 -25.667 -15 -35s-22 -14 -36 -14h-103c-14.667 0 -27 4.66699 -37 14s-15 21 -15 35v47c0 14 5 25.833 15 35.5s22.333 14.5 37 14.5
h103c14 0 26 -4.83301 36 -14.5s15 -21.5 15 -35.5v-47z" />
    <glyph glyph-name="seven" unicode="7" horiz-adv-x="774" 
d="M746 603c0 -24 -6.33398 -46 -19.001 -66l-327 -523c-23.333 -38 -58.333 -57 -105 -57c-25.333 0 -48.333 6.83301 -69 20.5s-35.667 31.5 -45 53.5c-48.667 20.667 -73 57 -73 109c0 20 5.33301 39.333 16 58c66 115.333 128.333 215 187 299h-103
c-52.667 0 -89 24.333 -109 73c-22 8.66699 -39.833 23 -53.5 43s-20.5 42 -20.5 66c0 32.667 11.667 60.667 35 84s51.333 35 84 35h401c58.667 0 100.334 -26 125.001 -78c50.667 -24 76 -63 76 -117zM633.999 666c0 22.667 -8.66895 42.332 -26.002 58.999
s-38.333 25 -63 25h-401c-19.333 0 -36 -6.83301 -50 -20.5s-21 -30.5 -21 -50.5c0 -19.333 7 -35.833 21 -49.5s30.667 -20.5 50 -20.5h242c19.333 0 29 -9 29 -27c0 -5.33301 -1.33301 -10 -4 -14l-246 -395c-6 -9.33301 -9 -20.333 -9 -33
c0 -20 7.33301 -36.833 22 -50.5s32.334 -20.5 53.001 -20.5c28.667 0 50.334 11.333 65.001 34l327 522c7.33301 12.667 11 26.334 11 41.001z" />
    <glyph glyph-name="eight" unicode="8" horiz-adv-x="767" 
d="M729 186c0 -60.667 -21.5 -112.499 -64.5 -155.499s-94.833 -64.5 -155.5 -64.5h-188c-39.333 0 -75.666 8.83301 -108.999 26.5s-58.333 41.834 -75 72.501c-31.333 17.333 -56 42.666 -74 75.999s-27 69.666 -27 108.999v36c0 52 16.667 98 50 138
c-22.667 36 -34 75 -34 117v36c0 60.667 21.5 112.5 64.5 155.5s95.167 64.5 156.5 64.5h156c39.333 0 75.666 -8.83301 108.999 -26.5s58.333 -41.834 75 -72.501c31.333 -16.667 56 -41.667 74 -75s27 -69.666 27 -108.999v-37c0 -41.333 -11.333 -80 -34 -116
c32.667 -40 49 -86 49 -138v-37zM617 250.001v36c0 55.333 -21.333 100 -64 134c32.667 34 49 74.333 49 121v36c0 48 -16.833 88.667 -50.5 122s-74.5 50 -122.5 50h-156c-48 0 -88.833 -16.667 -122.5 -50s-50.5 -74 -50.5 -122v-36c0 -46.667 16.333 -87 49 -121
c-43.333 -34 -65 -78.667 -65 -134v-36c0 -48 16.833 -88.667 50.5 -122s74.5 -50 122.5 -50h188c47.333 0 87.833 16.667 121.5 50s50.5 74 50.5 122zM454 528.001c0 -13.333 -5 -25 -15 -35s-22.333 -15 -37 -15h-103c-14 0 -26 5 -36 15s-15 21.667 -15 35v32
c0 13.333 5 24.833 15 34.5s22 14.5 36 14.5h103c14.667 0 27 -4.83301 37 -14.5s15 -21.167 15 -34.5v-32zM469 267.001c0 -13.333 -5 -24.833 -15 -34.5s-22 -14.5 -36 -14.5h-134c-14.667 0 -27 4.83301 -37 14.5s-15 21.167 -15 34.5v32c0 13.333 5.16699 25 15.5 35
s22.5 15 36.5 15h134c14 0 26 -5 36 -15s15 -21.667 15 -35v-32z" />
    <glyph glyph-name="nine" unicode="9" horiz-adv-x="750" 
d="M702 186c0 -60.667 -21.667 -112.499 -65 -155.499s-95.333 -64.5 -156 -64.5h-240c-52 0 -88.333 24 -109 72c-21.333 8.66699 -38.833 23 -52.5 43s-20.5 42.333 -20.5 67c0 32 11.5 59.5 34.5 82.5s50.833 34.5 83.5 34.5h15c-20.667 16 -37.667 34.333 -51 55
c-67.333 43.333 -101 104.666 -101 183.999v72c0 60.667 21.5 112.5 64.5 155.5s95.167 64.5 156.5 64.5h156c78.667 0 140 -33 184 -99c67.333 -44 101 -105.667 101 -185v-326zM590 249.001v325.999c0 47.333 -16.833 88 -50.5 122s-74.5 51 -122.5 51h-156
c-48 0 -88.833 -16.833 -122.5 -50.5s-50.5 -74.167 -50.5 -121.5v-72c0 -47.333 16.833 -87.833 50.5 -121.5s74.5 -50.5 122.5 -50.5h130c14 0 26 -4.83301 36 -14.5s15 -21.167 15 -34.5v-17c0 -13.333 -5 -24.833 -15 -34.5s-22 -14.5 -36 -14.5h-214
c-19.333 0 -35.833 -6.66699 -49.5 -20s-20.5 -29.666 -20.5 -48.999c0 -20 6.83301 -36.833 20.5 -50.5s30.167 -20.5 49.5 -20.5h240c48 0 88.833 16.833 122.5 50.5s50.5 74.167 50.5 121.5zM442 511c0 -13.333 -5 -24.833 -15 -34.5s-22.333 -14.5 -37 -14.5h-103
c-14 0 -26 4.83301 -36 14.5s-15 21.167 -15 34.5v48c0 13.333 5 24.833 15 34.5s22 14.5 36 14.5h103c14.667 0 27 -4.83301 37 -14.5s15 -21.167 15 -34.5v-48z" />
    <glyph glyph-name="colon" unicode=":" horiz-adv-x="352" 
d="M315 465c0 -28.667 -10.333 -53 -31 -73s-45.667 -30 -75 -30c-23.333 0 -44.166 6.5 -62.499 19.5s-30.833 29.833 -37.5 50.5c-20.667 7.33301 -37.5 19.666 -50.5 36.999s-19.5 37 -19.5 59c0 28.667 10.333 53 31 73s45.667 30 75 30
c22.667 0 43.167 -6.5 61.5 -19.5s31.166 -29.833 38.499 -50.5c20.667 -7.33301 37.5 -19.666 50.5 -36.999s19.5 -37 19.5 -59zM315 70c0 -28 -10.332 -52.001 -30.999 -72.001s-45.667 -30 -75 -30c-23.333 0 -44 6.33301 -62 19s-30.667 29.334 -38 50.001
c-20.667 7.33301 -37.5 19.833 -50.5 37.5s-19.5 37.5 -19.5 59.5c0 28 10.333 52 31 72s45.667 30 75 30c22.667 0 43.167 -6.5 61.5 -19.5s31.166 -29.5 38.499 -49.5c20.667 -7.33301 37.5 -19.833 50.5 -37.5s19.5 -37.5 19.5 -59.5zM203.001 527.999
c0 15.333 -5.66699 28.333 -17 39s-25 16 -41 16s-29.667 -5.33301 -41 -16s-17 -23.667 -17 -39c0 -14.667 5.66699 -27.334 17 -38.001s25 -16 41 -16s29.667 5.33301 41 16s17 23.334 17 38.001zM203.001 133.999c0 14.667 -5.66699 27.334 -17 38.001s-25 16 -41 16
s-29.667 -5.33301 -41 -16s-17 -23.334 -17 -38.001c0 -15.333 5.66699 -28.333 17 -39s25 -16 41 -16s29.667 5.33301 41 16s17 23.667 17 39z" />
    <glyph glyph-name="semicolon" unicode=";" horiz-adv-x="353" 
d="M319 465c0 -28.667 -10.332 -53 -30.999 -73s-45.667 -30 -75 -30c-22.667 0 -43.167 6.5 -61.5 19.5s-31.166 29.833 -38.499 50.5c-20.667 7.33301 -37.5 19.666 -50.5 36.999s-19.5 37 -19.5 59c0 28.667 10.5 53 31.5 73s45.833 30 74.5 30
c23.333 0 44.166 -6.5 62.499 -19.5s31.166 -29.833 38.499 -50.5c20 -7.33301 36.5 -19.666 49.5 -36.999s19.5 -37 19.5 -59zM316.001 104v-1.99902l-31 -113c-6 -21.333 -17.667 -38.833 -35 -52.5s-37 -20.5 -59 -20.5c-21.333 0 -40.666 6.16699 -57.999 18.5
s-29 28.833 -35 49.5c-22.667 6.66699 -40.334 19.334 -53.001 38.001s-17.334 41 -14.001 67l14 119c4.66699 24 16.667 43.5 36 58.5s41.333 22.5 66 22.5c22.667 0 43.334 -6.33301 62.001 -19s31.667 -29.667 39 -51c24.667 -8.66699 43.5 -23.834 56.5 -45.501
s16.833 -44.834 11.5 -69.501zM207.001 528.001c0 15.333 -5.66699 28.333 -17 39s-25 16 -41 16s-29.667 -5.33301 -41 -16s-17 -23.667 -17 -39c0 -14.667 5.66699 -27.334 17 -38.001s25 -16 41 -16s29.667 5.33301 41 16s17 23.334 17 38.001zM205.001 176.001
c1.33301 4 1.99902 8 1.99902 12c0 14.667 -6.16699 27.167 -18.5 37.5s-26.166 15.5 -41.499 15.5c-14 0 -26.333 -4 -37 -12s-16.667 -18.333 -18 -31l-14 -116c-1.33301 -12.667 1.66699 -24.167 9 -34.5s17.666 -16.833 30.999 -19.5
c12.667 -2.66699 24.334 -0.5 35.001 6.5s17.667 16.5 21 28.5zM285 -8.99902l-1 -4l1 2v2zM31 91.001v-2v-2v4z" />
    <glyph glyph-name="less" unicode="&#x3c;" horiz-adv-x="529" 
d="M488 120c0 -30.667 -10.667 -56.666 -32 -77.999s-47 -32 -77 -32s-55.667 10.667 -77 32l-247 246c-17.333 16.667 -26 37 -26 61s8.66699 44.667 26 62l183 181c21.333 20.667 47 31 77 31c50 0 84 -23.333 102 -70c21.333 -8 38.5 -21.333 51.5 -40
s19.5 -39.667 19.5 -63c0 -30 -10.667 -55.667 -32 -77l-89 -88l90 -88c20.667 -20.667 31 -46.334 31 -77.001zM359 226.001l-114 112c-7.33301 6.66699 -7.33301 13.667 0 21l114 112c12 11.333 18 25.333 18 42c0 17.333 -6 32 -18 44s-26.667 18 -44 18
c-16.667 0 -31 -5.66699 -43 -17l-183 -182c-8 -7.33301 -12 -16.333 -12 -27s4 -19.667 12 -27l183 -183c12 -11.333 26.333 -17 43 -17s31 6 43 18s18 26.667 18 44c0 16.667 -5.66699 30.667 -17 42z" />
    <glyph glyph-name="equal" unicode="=" horiz-adv-x="617" 
d="M592 198c0 -28.667 -10 -52.8311 -30 -72.498s-44 -29.5 -72 -29.5h-285c-21.333 0 -40.833 6.33301 -58.5 19s-29.834 29 -36.501 49c-20.667 6.66699 -37.5 19 -50.5 37s-19.5 38 -19.5 60c0 40.667 18 70.667 54 90c-36 19.333 -54 49.333 -54 90c0 28 10 52 30 72
s44 30 72 30h284c22 0 41.833 -6.33301 59.5 -19s29.834 -29.334 36.501 -50.001c20.667 -6.66699 37.5 -18.834 50.5 -36.501s19.5 -37.5 19.5 -59.5c0 -41.333 -18.333 -71.333 -55 -90c36.667 -19.333 55 -49.333 55 -90zM480 441.003
c0 14.667 -5.33301 27.334 -16 38.001s-23.334 16 -38.001 16h-284c-15.333 0 -28.166 -5.33301 -38.499 -16s-15.5 -23.334 -15.5 -38.001s5.16699 -27.334 15.5 -38.001s23.166 -16 38.499 -16h284c14.667 0 27.334 5.33301 38.001 16s16 23.334 16 38.001zM480 261.003
c0 14.667 -5.33301 27.334 -16 38.001s-23.334 16 -38.001 16h-284c-15.333 0 -28.166 -5.33301 -38.499 -16s-15.5 -23.334 -15.5 -38.001s5.16699 -27.334 15.5 -38.001s23.166 -16 38.499 -16h284c14.667 0 27.334 5.33301 38.001 16s16 23.334 16 38.001z" />
    <glyph glyph-name="greater" unicode="&#x3e;" horiz-adv-x="529" 
d="M498 286c0 -24 -8.33105 -44.6699 -24.998 -62.0029l-184 -182c-20.667 -21.333 -46.334 -32 -77.001 -32c-22.667 0 -43.167 6.5 -61.5 19.5s-31.833 30.167 -40.5 51.5c-21.333 8 -38.5 21.333 -51.5 40s-19.5 39.334 -19.5 62.001c0 30.667 10.667 56.334 32 77.001
l90 88l-90 89c-21.333 20.667 -32 46.334 -32 77.001c0 29.333 10.5 54.833 31.5 76.5s47.167 32.5 78.5 32.5c29.333 0 54.666 -10.333 75.999 -31l248 -245c16.667 -16.667 25 -37 25 -61zM375.002 321.997c7.33301 7.33301 10.999 16.333 10.999 27
s-3.66699 19.667 -11 27l-184 182c-11.333 11.333 -25.666 17 -42.999 17c-16.667 0 -31 -6 -43 -18s-18 -26.667 -18 -44c0 -16.667 6 -30.667 18 -42l114 -112c6.66699 -7.33301 6.66699 -14.333 0 -21l-114 -112c-12 -11.333 -18 -25.333 -18 -42c0 -17.333 6 -32 18 -44
s26.667 -18 44 -18c16.667 0 30.667 5.66699 42 17z" />
    <glyph glyph-name="question" unicode="?" horiz-adv-x="750" 
d="M701 438c0 -53.333 -16.6689 -100.501 -50.002 -141.501s-75.666 -67.5 -126.999 -79.5c-3.33301 -24 -13 -45.333 -29 -64c20.667 -22 31 -48 31 -78c0 -32 -12 -59.5 -36 -82.5s-52.667 -34.5 -86 -34.5c-25.333 0 -48.333 6.83301 -69 20.5s-35.667 31.5 -45 53.5
c-48 20.667 -72 56 -72 106c0 30 10.333 56.333 31 79c-20.667 23.333 -31 50.333 -31 81v55c-49.333 4 -83 28 -101 72c-48.667 20.667 -73 56.334 -73 107.001v40c0 62.667 22.167 116 66.5 160s97.5 66 159.5 66h141c80.667 0 143.334 -33.333 188.001 -100
c68 -44.667 102 -107.667 102 -189v-71zM588.998 500.999l-0.000976562 70.998c0 49.333 -17.333 91.333 -52 126s-76.667 52 -126 52h-141c-49.333 0 -91.333 -17.333 -126 -52s-52 -76.667 -52 -126v-40c0 -18.667 7.16699 -34.834 21.5 -48.501s31.833 -20.5 52.5 -20.5
s38.167 6.83301 52.5 20.5s21.5 29.834 21.5 48.501v26c0 14.667 5.33301 27 16 37s23.334 15 38.001 15h93c15.333 0 28.166 -5 38.499 -15s15.5 -22.333 15.5 -37v-43c0 -14.667 -5.16699 -27 -15.5 -37s-23.166 -15 -38.499 -15h-47c-20 0 -37.333 -7.16699 -52 -21.5
s-22 -31.833 -22 -52.5v-91c0 -20.667 7.33301 -38.167 22 -52.5s32 -21.5 52 -21.5c20.667 0 38.167 7.16699 52.5 21.5s21.5 31.833 21.5 52.5v25c48.667 0.666992 90 18.334 124 53.001s51 76.334 51 125.001zM413.997 137.997c0 19.333 -7.16699 35.833 -21.5 49.5
s-31.833 20.5 -52.5 20.5s-38.167 -6.83301 -52.5 -20.5s-21.5 -30.167 -21.5 -49.5c0 -18.667 7.16699 -34.667 21.5 -48s31.833 -20 52.5 -20s38.167 6.66699 52.5 20s21.5 29.333 21.5 48z" />
    <glyph glyph-name="at" unicode="@" horiz-adv-x="845" 
d="M784 297c0 -73.333 -31.002 -130.002 -93.002 -170.002c29.333 -16.667 44 -41 44 -73c0 -23.333 -8.16699 -43.166 -24.5 -59.499s-36.166 -24.5 -59.499 -24.5h-333c-36 0 -69.5 8.33301 -100.5 25s-54.5 39.667 -70.5 69c-29.333 16 -52.666 39.333 -69.999 70
s-26 64.334 -26 101.001v362c0 56 19.833 103.667 59.5 143s87.5 59 143.5 59h264c36 0 69.5 -8.33301 100.5 -25s54.5 -39.667 70.5 -69c29.333 -16 52.5 -39.5 69.5 -70.5s25.5 -64.5 25.5 -100.5v-237zM672.998 359.998v237.001c0 42.667 -15.167 79 -45.5 109
s-66.833 45 -109.5 45h-264c-42.667 0 -79.167 -15 -109.5 -45s-45.5 -66.333 -45.5 -109v-362c0 -42.667 15.167 -79 45.5 -109s66.833 -45 109.5 -45h333c10 0 18.5 3.66699 25.5 11s10.5 16 10.5 26s-3.5 18.5 -10.5 25.5s-15.5 10.5 -25.5 10.5h-319
c-23.333 0 -43.333 8.33301 -60 25s-25 37 -25 61v352c0 23.333 8.33301 43.333 25 60s36.667 25 60 25h236c23.333 0 43.333 -8.33301 60 -25s25 -36.667 25 -60v-227c0 -38 -18 -64.333 -54 -79l1 234c0 29.333 -11 54.166 -33 74.499s-48.333 30.5 -79 30.5h-119
c-14.667 0 -27 -5 -37 -15s-15 -22 -15 -36c0 -14.667 5 -27.167 15 -37.5s22.333 -15.5 37 -15.5h74c10.667 0 19.667 -3.5 27 -10.5s11 -15.5 11 -25.5v-24h-80c-28 0 -52 -9.83301 -72 -29.5s-30 -43.5 -30 -71.5v-52c0 -28 10 -52 30 -72s44 -30 72 -30h181
c42.667 0 79.167 15 109.5 45s45.5 66.333 45.5 109zM416.998 327.999c0 -12 -6.33301 -18 -19 -18h-22c-16 0 -24 7.33301 -24 22v16c0 14.667 8 22 24 22h41v-42z" />
    <glyph glyph-name="A" unicode="A" horiz-adv-x="796" 
d="M778 72c-1.33301 -32.667 -14.667 -60.0049 -40 -82.0049s-55 -32 -89 -30c-51.333 2.66699 -87 27 -107 73c-36.667 16 -59.667 43 -69 81l-22 90h-87l-38 -155c-6 -25.333 -19.5 -46.166 -40.5 -62.499s-44.833 -25.166 -71.5 -26.499s-50.834 4.83398 -72.501 18.501
s-37.5 31.834 -47.5 54.501c-46 19.333 -70.333 53.333 -73 102l4 35l129 513c8.66699 34 26.667 62.167 54 84.5s58.333 33.5 93 33.5h134c60.667 0 105 -27 133 -81c40.667 -21.333 66.667 -54.666 78 -99.999c78.667 -317.333 121.334 -488 128.001 -512z
M665.999 136.995c0.666992 7.33301 0 14.333 -2 21l-129 514c-6 23.333 -18.167 42.666 -36.5 57.999s-39.5 23 -63.5 23h-134c-24 0 -45.333 -7.66699 -64 -23s-30.667 -34.666 -36 -57.999l-130 -514c-2 -6.66699 -2.66699 -13.667 -2 -21
c1.33301 -19.333 9.5 -35.5 24.5 -48.5s32.833 -18.833 53.5 -17.5c38 2 61 20 69 54l41 170c3.33301 13.333 12 20 26 20h169c14 0 22.667 -6.66699 26 -20l41 -170c8.66699 -34 31.667 -52 69 -54c20.667 -1.33301 38.667 4.5 54 17.5s23.333 29.167 24 48.5z
M433.999 473.995c0 -11.333 -5.66699 -17.001 -17 -17.001h-98c-11.333 0 -17 5.66699 -17 17v4l30 120c2 8.66699 7.33301 13 16 13h40c8.66699 0 14 -4.33301 16 -13l29 -120c0.666992 -1.33301 1 -2.66602 1 -3.99902z" />
    <glyph glyph-name="B" unicode="B" horiz-adv-x="779" 
d="M726 146c0 -48.667 -17.333 -90.335 -52 -125.002s-76.667 -52 -126 -52h-302c-26 0 -49.333 6.83301 -70 20.5s-36 31.5 -46 53.5c-48.667 21.333 -73 57.333 -73 108v528c0 32.667 12.167 60.834 36.5 84.501s53.833 35.5 88.5 35.5h269c68 0 119 -29.333 153 -88
c59.333 -33.333 89 -84.333 89 -153v-122c0 -16 -3 -33.667 -9 -53c28 -33.333 42 -71.666 42 -114.999v-122zM614 209.999l0.000976562 121.999c0 42 -17 76 -51 102c12 20.667 18 42.334 18 65.001v122c0 36 -12.667 66.667 -38 92s-56 38 -92 38h-269
c-21.333 0 -39.5 -7 -54.5 -21s-22.5 -31 -22.5 -51v-528c0 -19.333 7.5 -36 22.5 -50s33.167 -21 54.5 -21h303c35.333 0 65.666 12.667 90.999 38s38 56 38 92zM433.001 521.998c0 -10.667 -4 -20 -12 -28s-17.667 -12 -29 -12h-118c-14 0 -21 6.33301 -21 19v90
c0 12.667 7 19 21 19h118c11.333 0 21 -3.66699 29 -11s12 -16.333 12 -27v-50zM467.001 258.998c0 -10.667 -4.16699 -19.667 -12.5 -27s-18.166 -11 -29.499 -11h-151c-14 0 -21 6.33301 -21 19v90c0 12.667 7 19 21 19h151c11.333 0 21.166 -4 29.499 -12
s12.5 -17.333 12.5 -28v-50z" />
    <glyph glyph-name="C" unicode="C" horiz-adv-x="779" 
d="M725 87c0 -32.667 -11.501 -60.499 -34.501 -83.499s-50.833 -34.5 -83.5 -34.5h-304c-68 0 -119 29 -153 87c-59.333 34 -89 85.333 -89 154v411c0 49.333 17.5 91.333 52.5 126s76.833 52 125.5 52h244c68 0 119 -29.333 153 -88c59.333 -33.333 89 -84.333 89 -153
v-113c0 -34 -12 -62.833 -36 -86.5s-52.667 -35.5 -86 -35.5c-53.333 0 -90.666 24.333 -111.999 73c-45.333 19.333 -70 53.666 -74 102.999h-48v-230h174c52 0 88.333 -24 109 -72c21.333 -9.33301 38.833 -24 52.5 -44s20.5 -42 20.5 -66zM612.999 150.001
c0 19.333 -6.83301 35.999 -20.5 49.999s-30.167 21 -49.5 21h-245c-11.333 0 -21 3.83301 -29 11.5s-12 16.834 -12 27.501v312c0 10.667 4 19.667 12 27s17.667 11 29 11h126c11.333 0 21 -3.66699 29 -11s12 -16.333 12 -27v-64c0 -20.667 7.16699 -38.167 21.5 -52.5
s31.833 -21.5 52.5 -21.5s38.167 7.16699 52.5 21.5s21.5 31.833 21.5 52.5v113c0 36 -12.667 66.667 -38 92s-56 38 -92 38h-244c-36 0 -66.667 -12.667 -92 -38s-38 -56 -38 -92v-411c0 -35.333 12.667 -65.833 38 -91.5s56 -38.5 92 -38.5h304
c19.333 0 35.833 6.83301 49.5 20.5s20.5 30.167 20.5 49.5z" />
    <glyph glyph-name="D" unicode="D" horiz-adv-x="779" 
d="M725 240c0 -74.667 -26.667 -138.665 -80 -191.998s-117.333 -80 -192 -80h-206c-25.333 0 -48.5 6.83301 -69.5 20.5s-36.167 31.5 -45.5 53.5c-49.333 21.333 -74 57.666 -74 108.999v528c0 33.333 12.167 61.666 36.5 84.999s53.833 35 88.5 35h206
c92 0 165.333 -37.667 220 -113c77.333 -54.667 116 -129 116 -223v-223zM613 304.002v222c0 62 -21.833 115 -65.5 159s-96.5 66 -158.5 66h-206c-21.333 0 -39.5 -7 -54.5 -21s-22.5 -31 -22.5 -51v-528c0 -19.333 7.5 -36 22.5 -50s33.167 -21 54.5 -21h206
c62 0 114.833 21.833 158.5 65.5s65.5 96.5 65.5 158.5zM465 316.002c0 -26 -9.83301 -48.5 -29.5 -67.5s-43.167 -28.5 -70.5 -28.5h-90c-14 0 -21 6.66699 -21 20v351c0 12.667 7 19 21 19h88c28 0 52 -9.33301 72 -28s30 -41.667 30 -69v-197zM417 316.002v183h-51v-231
c14 0.666992 26 5.66699 36 15s15 20.333 15 33z" />
    <glyph glyph-name="E" unicode="E" horiz-adv-x="779" 
d="M706 87c0 -32.667 -11.499 -60.498 -34.499 -83.498s-50.833 -34.5 -83.5 -34.5h-281c-64 0 -112.667 28 -146 84c-57.333 33.333 -86 82.333 -86 147v430c0 46.667 16.5 86.5 49.5 119.5s72.833 49.5 119.5 49.5h280c52 0 88.333 -24 109 -72
c21.333 -9.33301 38.833 -23.833 52.5 -43.5s20.5 -41.834 20.5 -66.501c0 -32.667 -11.5 -60.5 -34.5 -83.5s-50.833 -34.5 -83.5 -34.5h-11c12.667 -11.333 22 -25 28 -41c21.333 -8 38.666 -21.667 51.999 -41s20 -41 20 -65c0 -25.333 -7.5 -48 -22.5 -68
s-34.5 -33.333 -58.5 -40c16.667 -12.667 29 -28.334 37 -47.001c21.333 -9.33301 38.833 -24 52.5 -44s20.5 -42 20.5 -66zM594.001 150.002c0 19.333 -6.83203 35.999 -20.499 49.999s-30.167 21 -49.5 21h-223c-20.667 0 -31 10 -31 30v70c0 19.333 10.333 29 31 29h199
c18 0 33.333 6.5 46 19.5s19 28.5 19 46.5s-6.33301 33.333 -19 46s-28 19 -46 19h-199c-20.667 0 -31 10 -31 30v70c0 19.333 10.333 29 31 29h223c19.333 0 35.833 6.83301 49.5 20.5s20.5 30.5 20.5 50.5c0 19.333 -6.83301 35.833 -20.5 49.5s-30.167 20.5 -49.5 20.5
h-280c-33.333 0 -61.833 -11.833 -85.5 -35.5s-35.5 -52.167 -35.5 -85.5v-430c0 -33.333 11.667 -61.666 35 -84.999s51.666 -35 84.999 -35h281c19.333 0 35.833 6.83301 49.5 20.5s20.5 30.167 20.5 49.5z" />
    <glyph glyph-name="F" unicode="F" horiz-adv-x="720" 
d="M682 617c0 -32.667 -11.498 -60.502 -34.498 -83.502s-50.833 -34.5 -83.5 -34.5h-34c24 -13.333 41 -32.333 51 -57c21.333 -8.66699 38.666 -22.667 51.999 -42s20 -40.666 20 -63.999c0 -31.333 -11 -58.166 -33 -80.499s-48.667 -33.5 -80 -33.5h-170v-146
c0 -32 -11.833 -59.5 -35.5 -82.5s-52.167 -34.5 -85.5 -34.5c-25.333 0 -48.333 6.83301 -69 20.5s-35.334 31.167 -44.001 52.5c-48.667 20.667 -73 56.334 -73 107.001v491c0 46.667 16.5 86.5 49.5 119.5s72.833 49.5 119.5 49.5h268c52 0 88.333 -24 109 -72
c22 -9.33301 39.667 -23.833 53 -43.5s20 -41.834 20 -66.501zM570.002 680.998c0 19.333 -6.83301 35.833 -20.5 49.5s-30.167 20.5 -49.5 20.5h-268c-33.333 0 -61.833 -11.833 -85.5 -35.5s-35.5 -52.167 -35.5 -85.5v-491c0 -18.667 7.16699 -34.667 21.5 -48
s31.833 -20 52.5 -20c20 0 37.167 6.66699 51.5 20s21.5 29.333 21.5 48v165c0 19.333 10.667 29 32 29h186c18 0 33.333 6.5 46 19.5s19 28.5 19 46.5s-6.33301 33.5 -19 46.5s-28 19.5 -46 19.5h-186c-21.333 0 -32 9.66699 -32 29v87c0 19.333 10.667 29 32 29h210
c19.333 0 35.833 6.83301 49.5 20.5s20.5 30.5 20.5 50.5z" />
    <glyph glyph-name="G" unicode="G" horiz-adv-x="779" 
d="M730 137c0 -46.667 -16.3311 -86.333 -48.998 -119s-72.334 -49 -119.001 -49h-267c-64 0 -112.667 28 -146 84c-57.333 33.333 -86 82.333 -86 147v430c0 46.667 16.5 86.5 49.5 119.5s72.833 49.5 119.5 49.5h304c52 0 88.333 -24 109 -72
c22 -9.33301 39.667 -23.833 53 -43.5s20 -41.834 20 -66.501c0 -29.333 -9.83301 -55.166 -29.5 -77.499s-43.834 -35.5 -72.501 -39.5c12.667 -12 23 -25.333 31 -40c55.333 -29.333 83 -75.333 83 -138v-185zM618.002 200.001l0.00195312 185c0 30 -10.5 55.667 -31.5 77
s-46.5 32 -76.5 32h-130c-18 0 -33.333 -6.5 -46 -19.5s-19 -28.5 -19 -46.5s6.33301 -33.5 19 -46.5s28 -19.5 46 -19.5h63c18.667 0 28 -9 28 -27v-84c0 -20 -10.333 -30 -31 -30h-150c-21.333 0 -32 10 -32 30v330c0 19.333 10.667 29 32 29h246
c19.333 0 35.833 7 49.5 21s20.5 30.667 20.5 50s-6.83301 35.833 -20.5 49.5s-30.167 20.5 -49.5 20.5h-304c-33.333 0 -61.833 -11.833 -85.5 -35.5s-35.5 -52.167 -35.5 -85.5v-430c0 -33.333 11.667 -61.666 35 -84.999s51.666 -35 84.999 -35h267
c33.333 0 61.666 11.667 84.999 35s35 51.666 35 84.999z" />
    <glyph glyph-name="H" unicode="H" horiz-adv-x="779" 
d="M720 76c0 -32 -11.998 -59.5 -35.998 -82.5s-52.667 -34.5 -86 -34.5c-25.333 0 -48.166 6.83301 -68.499 20.5s-35.166 31.167 -44.499 52.5c-48 20.667 -72 56.334 -72 107.001v83h-45v-146c0 -32 -11.833 -59.5 -35.5 -82.5s-52.5 -34.5 -86.5 -34.5
c-24.667 0 -47.334 6.83301 -68.001 20.5s-35.667 31.167 -45 52.5c-48 20.667 -72 56.334 -72 107.001v552c0 32 11.833 59.5 35.5 82.5s52.5 34.5 86.5 34.5c24.667 0 47.167 -6.66699 67.5 -20s35.166 -31 44.499 -53c48.667 -20.667 73 -56.334 73 -107.001v-106h45v169
c0 32 11.833 59.5 35.5 82.5s52.167 34.5 85.5 34.5c25.333 0 48.166 -6.66699 68.499 -20s35.166 -31 44.499 -53c48.667 -20.667 73 -56.334 73 -107.001v-552zM608.002 139v552c0 19.333 -7.16699 35.666 -21.5 48.999s-31.833 20 -52.5 20
c-20 0 -37.167 -6.66699 -51.5 -20s-21.5 -29.666 -21.5 -48.999v-187c0 -20 -10.333 -30 -31 -30h-143c-20.667 0 -31 10 -31 30v187c0 19.333 -7.16699 35.666 -21.5 48.999s-31.5 20 -51.5 20c-20.667 0 -38.167 -6.66699 -52.5 -20s-21.5 -29.666 -21.5 -48.999v-552
c0 -18.667 7.16699 -34.667 21.5 -48s31.833 -20 52.5 -20c20 0 37.167 6.66699 51.5 20s21.5 29.333 21.5 48v165c0 19.333 10.333 29 31 29h143c20.667 0 31 -9.66699 31 -29v-165c0 -18.667 7.16699 -34.667 21.5 -48s31.5 -20 51.5 -20c20.667 0 38.167 6.66699 52.5 20
s21.5 29.333 21.5 48z" />
    <glyph glyph-name="I" unicode="I" horiz-adv-x="432" 
d="M372 80c0 -33.333 -12.332 -61.832 -36.999 -85.499s-54.334 -35.5 -89.001 -35.5c-25.333 0 -48.5 7 -69.5 21s-36.5 32 -46.5 54c-48.667 21.333 -73 57.666 -73 108.999v545c0 33.333 12.333 61.666 37 84.999s54 35 88 35c26 0 49.5 -6.83301 70.5 -20.5
s36.167 -31.5 45.5 -53.5c49.333 -21.333 74 -57.666 74 -108.999v-545zM260.001 143.001v545c0 20 -7.66699 37 -23 51s-33.666 21 -54.999 21s-39.5 -7 -54.5 -21s-22.5 -31 -22.5 -51v-545c0 -20 7.5 -37 22.5 -51s33.167 -21 54.5 -21s39.666 7 54.999 21s23 31 23 51z
" />
    <glyph glyph-name="J" unicode="J" horiz-adv-x="779" 
d="M722 189c0 -60.667 -21.499 -112.665 -64.499 -155.998s-95.167 -65 -156.5 -65h-168c-39.333 0 -75.833 8.83301 -109.5 26.5s-58.834 41.834 -75.501 72.501c-31.333 17.333 -56 42.666 -74 75.999s-27 69.666 -27 108.999v86c0 33.333 12 62 36 86s52.667 36 86 36
c53.333 0 90.666 -24.667 111.999 -74c49.333 -20.667 74 -57.667 74 -111v-7h39c13.333 0 20 5.33301 20 16v406c0 32.667 12 60.5 36 83.5s53 34.5 87 34.5c24.667 0 47.334 -6.83301 68.001 -20.5s35.667 -31.5 45 -53.5c48 -20.667 72 -56.334 72 -107.001v-438z
M611.001 252.002l0.00195312 438c0 19.333 -7.33301 35.833 -22 49.5s-32 20.5 -52 20.5c-20.667 0 -38.334 -6.83301 -53.001 -20.5s-22 -30.167 -22 -49.5v-406c0 -17.333 -6.66699 -32.333 -20 -45s-29.333 -19 -48 -19h-82c-18.667 0 -34.834 6.33301 -48.501 19
s-20.5 27.667 -20.5 45v54c0 20.667 -7.33301 38.167 -22 52.5s-32 21.5 -52 21.5c-20.667 0 -38.167 -7.16699 -52.5 -21.5s-21.5 -31.833 -21.5 -52.5v-86c0 -47.333 17 -87.833 51 -121.5s75 -50.5 123 -50.5h168c48 0 89 16.833 123 50.5s51 74.167 51 121.5z" />
    <glyph glyph-name="K" unicode="K" horiz-adv-x="779" 
d="M743 82c0 -46 -20.001 -81 -60.001 -105c-20 -11.333 -41.333 -17 -64 -17c-44.667 0 -78.334 18.333 -101.001 55c-2 4 -5.33301 10 -10 18c-22.667 9.33301 -40.667 24.666 -54 45.999l-87 143v-146c0 -32 -11.833 -59.5 -35.5 -82.5s-52.167 -34.5 -85.5 -34.5
c-25.333 0 -48.333 6.83301 -69 20.5s-35.667 31.167 -45 52.5c-48 20.667 -72 56.334 -72 107.001v552c0 32 11.833 59.5 35.5 82.5s52.5 34.5 86.5 34.5c24.667 0 47.334 -6.66699 68.001 -20s35.334 -31 44.001 -53c45.333 -19.333 69.666 -52.333 72.999 -99l70 116
c22 37.333 55.667 56 101 56c22.667 0 44.5 -6.33301 65.5 -19s36.833 -31 47.5 -55c22.667 -10 40.834 -25.167 54.501 -45.5s20.5 -42.5 20.5 -66.5c0 -21.333 -5.66699 -41 -17 -59l-120 -200l138 -222c10.667 -17.333 16 -37 16 -59zM621.999 179l-146 233.999
c-2 4 -3 8.33301 -3 13s1 9 3 13l128 212c6.66699 10.667 10 22.334 10 35.001c0 27.333 -12.333 48.333 -37 63c-12 7.33301 -25 11 -39 11c-26.667 0 -46.667 -11 -60 -33l-137 -227c-6 -9.33301 -15 -14 -27 -14h-32c-18 0 -27 8.66699 -27 26v179
c0 19.333 -7.16699 35.666 -21.5 48.999s-31.5 20 -51.5 20c-20.667 0 -38.167 -6.66699 -52.5 -20s-21.5 -29.666 -21.5 -48.999v-552c0 -18.667 7.16699 -34.667 21.5 -48s31.833 -20 52.5 -20c20 0 37.167 6.66699 51.5 20s21.5 29.333 21.5 48v180c0 17.333 9 26 27 26
h51c10 0 17.333 -4 22 -12l140 -229c13.333 -22 33.333 -33 60 -33c14 0 27.333 3.66699 40 11c24 14.667 36 35.667 36 63c0 12.667 -3 24 -9 34z" />
    <glyph glyph-name="L" unicode="L" horiz-adv-x="741" 
d="M697 87c0 -32.667 -11.498 -60.5 -34.498 -83.5s-50.833 -34.5 -83.5 -34.5h-281c-64 0 -112.667 28 -146 84c-57.333 33.333 -86 82.333 -86 147v490c0 32.667 12 60.5 36 83.5s52.667 34.5 86 34.5c25.333 0 48.166 -6.83301 68.499 -20.5s35.166 -31.5 44.499 -53.5
c48.667 -20 73 -55.667 73 -107v-358h141c52 0 88.333 -24 109 -72c21.333 -9.33301 38.833 -24 52.5 -44s20.5 -42 20.5 -66zM585.002 150c0 19.333 -6.83203 35.999 -20.499 49.999s-30.167 21 -49.5 21h-223c-20 0 -30 10 -30 30v439
c0 19.333 -7.16699 35.833 -21.5 49.5s-31.833 20.5 -52.5 20.5s-38.167 -6.83301 -52.5 -20.5s-21.5 -30.167 -21.5 -49.5v-490c0 -33.333 11.667 -61.666 35 -84.999s51.666 -35 84.999 -35h281c19.333 0 35.833 6.83301 49.5 20.5s20.5 30.167 20.5 49.5z" />
    <glyph glyph-name="M" unicode="M" horiz-adv-x="897" 
d="M833 76c0 -32 -11.834 -59.5 -35.501 -82.5s-52.5 -34.5 -86.5 -34.5c-24.667 0 -47.334 6.83301 -68.001 20.5s-35.334 31.167 -44.001 52.5c-48 20 -72.333 55 -73 105c-12 -12 -26 -18 -42 -18c-24 0 -42 11.333 -54 34l-15 30c-14 0.666992 -26 6 -36 16v-123
c0 -32 -12 -59.5 -36 -82.5s-52.667 -34.5 -86 -34.5c-25.333 0 -48.166 6.83301 -68.499 20.5s-35.166 31.167 -44.499 52.5c-48.667 20.667 -73 56.334 -73 107.001v552c0 32 12 59.5 36 82.5s52.667 34.5 86 34.5h37c42 0 72.667 -18 92 -54c1.33301 -4 4 -9.33301 8 -16
c24.667 -8.66699 43 -24.667 55 -48l50 -93l84 157c19.333 36 50 54 92 54h36c25.333 0 48.333 -6.83301 69 -20.5s35.334 -31.167 44.001 -52.5c48.667 -20.667 73 -56.334 73 -107.001v-552zM720.999 139v552c0 18.667 -7.16699 34.834 -21.5 48.501
s-31.833 20.5 -52.5 20.5h-36c-22.667 0 -39.334 -9.66699 -50.001 -29l-133 -248c-2 -4 -4.66699 -6 -8 -6s-6 2 -8 6l-133 248c-10 19.333 -26.333 29 -49 29h-37c-20 0 -37.333 -6.83301 -52 -20.5s-22 -29.834 -22 -48.501v-552c0 -18.667 7.33301 -34.667 22 -48
s32 -20 52 -20c20.667 0 38.167 6.66699 52.5 20s21.5 29.333 21.5 48v371l142 -272c2.66699 -5.33301 6.33398 -8 11.001 -8c4 0 7.66699 2.66699 11 8l143 272v-371c0 -18.667 7.16699 -34.667 21.5 -48s31.5 -20 51.5 -20c20.667 0 38.167 6.66699 52.5 20
s21.5 29.333 21.5 48z" />
    <glyph glyph-name="N" unicode="N" horiz-adv-x="779" 
d="M727 79c0 -32 -11.9961 -59.501 -35.9961 -82.501s-52.667 -34.5 -86 -34.5h-46c-44.667 0 -76.334 20 -95.001 60c-0.666992 2 -2 5.33301 -4 10c-28 10 -48 28 -60 54l-25 57v-67c0 -32 -11.833 -59.5 -35.5 -82.5s-52.5 -34.5 -86.5 -34.5
c-24.667 0 -47.334 6.83301 -68.001 20.5s-35.667 31.167 -45 52.5c-48 20.667 -72 56.334 -72 107.001v548c0 32 11.833 59.5 35.5 82.5s52.167 34.5 85.5 34.5h74c44.667 0 76.334 -20 95.001 -60c1.33301 -2 2.66602 -5 3.99902 -9c26 -9.33301 45 -26 57 -50v5
c0 32.667 12 60.334 36 83.001s52.667 34 86 34c25.333 0 48.166 -6.66699 68.499 -20s35.166 -31 44.499 -53c48.667 -20.667 73 -56.334 73 -107.001v-548zM615.004 142.999v547c0 19.333 -7.16699 35.666 -21.5 48.999s-31.833 20 -52.5 20
c-20 0 -37.333 -6.66699 -52 -20s-22 -29.666 -22 -48.999v-310l-153 345c-9.33301 20.667 -26.333 31 -51 31h-74c-20 0 -37.167 -6.66699 -51.5 -20s-21.5 -29.666 -21.5 -48.999v-548c0 -18.667 7.16699 -34.667 21.5 -48s31.5 -20 51.5 -20
c20.667 0 38.167 6.66699 52.5 20s21.5 29.333 21.5 48v382l181 -416c9.33301 -20.667 26.333 -31 51 -31h46c20.667 0 38.167 6.66699 52.5 20s21.5 29.666 21.5 48.999z" />
    <glyph glyph-name="O" unicode="O" horiz-adv-x="779" 
d="M717 195c0 -62.667 -22 -116 -66 -160s-97.333 -66 -160 -66h-141c-80.667 0 -143.334 33.333 -188.001 100c-68 44.667 -102 107.667 -102 189v315c0 62 22.167 115.167 66.5 159.5s97.5 66.5 159.5 66.5h141c80.667 0 143.334 -33.667 188.001 -101
c68 -44.667 102 -107.667 102 -189v-314zM605 258v315c0 49.333 -17.333 91.333 -52 126s-76.667 52 -126 52h-141c-49.333 0 -91.333 -17.333 -126 -52s-52 -76.667 -52 -126v-315c0 -49.333 17.333 -91.333 52 -126s76.667 -52 126 -52h141c49.333 0 91.333 17.333 126 52
s52 76.667 52 126zM457 272c0 -14.667 -5.16699 -27 -15.5 -37s-23.166 -15 -38.499 -15h-93c-14.667 0 -27.334 5 -38.001 15s-16 22.333 -16 37v287c0 14 5.33301 26.167 16 36.5s23.334 15.5 38.001 15.5h93c15.333 0 28.166 -5.16699 38.499 -15.5
s15.5 -22.5 15.5 -36.5v-287zM409 272v227h-35c-4 0 -6 -1 -6 -3v-228h35c4 0 6 1.33301 6 4z" />
    <glyph glyph-name="P" unicode="P" horiz-adv-x="771" 
d="M724 423c0 -60.667 -21.668 -112.501 -65.001 -155.501s-95.333 -64.5 -156 -64.5h-141v-127c0 -32.667 -12 -60.5 -36 -83.5s-52.667 -34.5 -86 -34.5c-25.333 0 -48.166 6.66699 -68.499 20s-35.166 31 -44.499 53c-48.667 20.667 -73 56.667 -73 108v538
c0 33.333 12.167 61.666 36.5 84.999s53.833 35 88.5 35h260c39.333 0 75.666 -8.66699 108.999 -26s58.333 -41.666 75 -72.999c31.333 -16.667 56 -41.667 74 -75s27 -69.666 27 -108.999v-91zM611.999 485.999v91c0 47.333 -16.833 87.833 -50.5 121.5
s-74.5 50.5 -122.5 50.5h-260c-21.333 0 -39.5 -7 -54.5 -21s-22.5 -31 -22.5 -51v-538c0 -19.333 7.16699 -35.833 21.5 -49.5s31.833 -20.5 52.5 -20.5s38.167 6.83301 52.5 20.5s21.5 30.167 21.5 49.5v156c0 12.667 7 19 21 19h168c48 0 88.833 16.833 122.5 50.5
s50.5 74.167 50.5 121.5zM463.999 519.999c0 -18 -6.66699 -33.333 -20 -46s-29.333 -19 -48 -19h-125c-14 0 -21 6.66699 -21 20v114c0 13.333 7 20 21 20h125c18.667 0 34.667 -6.33301 48 -19s20 -28 20 -46v-24z" />
    <glyph glyph-name="Q" unicode="Q" horiz-adv-x="796" 
d="M724 192c0 -60 -22 -112.332 -66 -156.999c2 -8.66699 3 -15.334 3 -20.001c0 -40 -18 -70.333 -54 -91c-16.667 -9.33301 -34.334 -14 -53.001 -14c-40 0 -69.667 16.667 -89 50l-3 6h-105c-80 0 -142.667 33.667 -188 101c-68 44.667 -102 107.667 -102 189v314
c0 62.667 22.167 116 66.5 160s97.5 66 159.5 66h141c80.667 0 143.334 -33.333 188.001 -100c68 -44.667 102 -107.667 102 -189v-315zM612 256.001v314.002c0 49.333 -17.333 91.333 -52 126s-76.667 52 -126 52h-141c-49.333 0 -91.333 -17.333 -126 -52
s-52 -76.667 -52 -126v-314c0 -49.333 17.333 -91.333 52 -126s76.667 -52 126 -52h132l18 -31c10 -17.333 25.667 -26 47 -26c10 0 19.667 2.66699 29 8c20 11.333 30 27.666 30 48.999c0 9.33301 -2.33301 18 -7 26l-4 7c49.333 35.333 74 83.666 74 144.999zM464 269.003
c0 -7.33301 -1.66602 -14.667 -4.99902 -22l-24 42c-10 17.333 -25.667 26 -47 26c-10 0 -19.667 -2.66699 -29 -8c-19.333 -11.333 -29 -28 -29 -50c0 -8.66699 2 -17 6 -25l8 -14h-27c-14.667 0 -27.334 5 -38.001 15s-16 22 -16 36v288c0 14 5.33301 26 16 36
s23.334 15 38.001 15h93c15.333 0 28.166 -5 38.499 -15s15.5 -22 15.5 -36v-288zM416.001 359.002v138h-35c-4 0 -6 -1.33301 -6 -4v-131c14 2 27.667 1 41 -3z" />
    <glyph glyph-name="R" unicode="R" horiz-adv-x="796" 
d="M742 79c0 -51.333 -23.9971 -88.001 -71.9971 -110.001c-16.667 -8 -34 -12 -52 -12c-50.667 0 -86.334 22.333 -107.001 67l-3 6c-28 11.333 -48.333 30.333 -61 57l-60 126v-137c0 -32.667 -11.833 -60.5 -35.5 -83.5s-52.5 -34.5 -86.5 -34.5
c-24.667 0 -47.334 6.66699 -68.001 20s-35.667 31 -45 53c-48.667 20.667 -73 56.667 -73 108v538c0 33.333 12.333 61.666 37 84.999s54 35 88 35h221c39.333 0 75.666 -8.66699 108.999 -26s58.333 -41.666 75 -72.999c31.333 -16.667 56 -41.667 74 -75
s27 -69.666 27 -108.999v-60c0 -58.667 -21 -109.667 -63 -153l84 -174c7.33301 -14.667 11 -30.667 11 -48zM624.003 169.999l-100 206c49.333 34 74 81 74 141v60c0 47.333 -16.833 87.833 -50.5 121.5s-74.5 50.5 -122.5 50.5h-221c-21.333 0 -39.5 -7 -54.5 -21
s-22.5 -31 -22.5 -51v-538c0 -19.333 7.33301 -35.833 22 -49.5s32 -20.5 52 -20.5c20.667 0 38.167 6.83301 52.5 20.5s21.5 30.167 21.5 49.5v175c0 20 10.333 30 31 30h45c18 0 30.667 -8 38 -24l101 -212c12.667 -26 34 -39 64 -39c11.333 0 22 2.33301 32 7
c29.333 13.333 44 35.333 44 66c0 10 -2 19.333 -6 28zM450.003 543.999c0 -18 -6.66699 -33.167 -20 -45.5s-29.333 -18.5 -48 -18.5h-86c-14 0 -21 6.66699 -21 20v89c0 13.333 7 20 21 20h86c18.667 0 34.667 -6.33301 48 -19s20 -28 20 -46z" />
    <glyph glyph-name="S" unicode="S" horiz-adv-x="796" 
d="M735 146c0 -49.333 -17.5 -91.333 -52.5 -126s-76.833 -52 -125.5 -52h-318c-52 0 -88.333 24 -109 72c-21.333 8.66699 -38.833 22.834 -52.5 42.501s-20.5 41.834 -20.5 66.501c0 32.667 11.5 60.5 34.5 83.5s50.833 34.5 83.5 34.5h51c-32 16 -57.333 39.333 -76 70
c-59.333 34.667 -89 86 -89 154v129c0 48.667 17.333 90.5 52 125.5s76.667 52.5 126 52.5h300c52 0 88.333 -24.333 109 -73c21.333 -8.66699 38.833 -22.834 52.5 -42.501s20.5 -41.834 20.5 -66.501c0 -31.333 -11 -58.5 -33 -81.5s-48.667 -35.167 -80 -36.5
c15.333 -12.667 28 -27.667 38 -45c59.333 -34 89 -85 89 -153v-154zM623 209v154c0 36 -12.667 66.667 -38 92s-56 38 -92 38h-195c-11.333 0 -21 3.66699 -29 11s-12 16.333 -12 27v39c0 10.667 4 19.834 12 27.501s17.667 11.5 29 11.5h241c19.333 0 35.833 7 49.5 21
s20.5 30.667 20.5 50s-6.83301 35.666 -20.5 48.999s-30.167 20 -49.5 20h-300c-36 0 -66.667 -12.667 -92 -38s-38 -55.666 -38 -90.999v-129c0 -36 12.667 -66.667 38 -92s56 -38 92 -38h195c11.333 0 21 -3.66699 29 -11s12 -16.333 12 -27v-65
c0 -10.667 -4 -19.834 -12 -27.501s-17.667 -11.5 -29 -11.5h-259c-19.333 0 -35.833 -6.83301 -49.5 -20.5s-20.5 -30.167 -20.5 -49.5s6.83301 -35.833 20.5 -49.5s30.167 -20.5 49.5 -20.5h318c36 0 66.667 12.667 92 38s38 56 38 92z" />
    <glyph glyph-name="T" unicode="T" horiz-adv-x="750" 
d="M721 616c0 -32.667 -11.499 -60.5 -34.499 -83.5s-50.833 -34.5 -83.5 -34.5h-73v-423c0 -32 -11.833 -59.5 -35.5 -82.5s-52.167 -34.5 -85.5 -34.5c-25.333 0 -48.333 6.83301 -69 20.5s-35.334 31.167 -44.001 52.5c-48.667 20.667 -73 56.334 -73 107.001v360h-9
c-52 0 -88.333 24 -109 72c-22 9.33301 -39.667 23.833 -53 43.5s-20 41.5 -20 65.5c0 32.667 11.5 60.667 34.5 84s50.833 35 83.5 35h389c52.667 0 89 -24 109 -72c22 -9.33301 39.667 -23.833 53 -43.5s20 -41.834 20 -66.501zM609.001 679
c0 20 -6.83301 36.833 -20.5 50.5s-30.167 20.5 -49.5 20.5h-389c-19.333 0 -35.833 -6.83301 -49.5 -20.5s-20.5 -30.5 -20.5 -50.5c0 -19.333 6.83301 -35.833 20.5 -49.5s30.167 -20.5 49.5 -20.5h90c20.667 0 31 -9.66699 31 -29v-442
c0 -18.667 7.16699 -34.834 21.5 -48.501s31.833 -20.5 52.5 -20.5c20 0 37.167 6.83301 51.5 20.5s21.5 29.834 21.5 48.501v442c0 19.333 10.667 29 32 29h89c19.333 0 35.833 6.83301 49.5 20.5s20.5 30.167 20.5 49.5z" />
    <glyph glyph-name="U" unicode="U" horiz-adv-x="796" 
d="M729 194c0 -62.667 -21.999 -115.999 -65.999 -159.999s-97.333 -66 -160 -66h-141c-80.667 0 -143.334 33.333 -188.001 100c-68 44.667 -102 107.667 -102 189v433c0 32 11.833 59.5 35.5 82.5s52.5 34.5 86.5 34.5c25.333 0 48.166 -6.83301 68.499 -20.5
s35.166 -31.5 44.499 -53.5c48 -20.667 72 -56.334 72 -107.001v-359h36c3.33301 0 5.33301 1.33301 6 4v418c0 32.667 12 60.334 36 83.001s53 34 87 34c24.667 0 47.334 -6.66699 68.001 -20s35.334 -31 44.001 -53c48.667 -20.667 73 -56.334 73 -107.001v-432z
M617.001 257.001l0.00195312 432c0 19.333 -7 35.666 -21 48.999s-31.333 20 -52 20s-38.334 -6.66699 -53.001 -20s-22 -29.666 -22 -48.999v-418c0 -14.667 -5.33301 -27 -16 -37s-23.334 -15 -38.001 -15h-93c-15.333 0 -28.333 5 -39 15s-16 22.333 -16 37v419
c0 18.667 -7.16699 34.667 -21.5 48s-31.5 20 -51.5 20c-20.667 0 -38.167 -6.66699 -52.5 -20s-21.5 -29.333 -21.5 -48v-433c0 -49.333 17.333 -91.333 52 -126s76.667 -52 126 -52h141c49.333 0 91.333 17.333 126 52s52 76.667 52 126z" />
    <glyph glyph-name="V" unicode="V" horiz-adv-x="796" 
d="M777 631l-3.99902 -35.001l-129 -511c-8.66699 -34 -26.667 -62.167 -54 -84.5s-58.333 -33.5 -93 -33.5h-134c-60.667 0 -105 27 -133 81c-40.667 21.333 -66.667 54.333 -78 99c-78.667 316.667 -121.667 487 -129 511l-3 36
c1.33301 32.667 14.666 59.834 39.999 81.501s54.666 31.834 87.999 30.501c52 -2.66699 87.667 -27.334 107 -74.001c37.333 -16 60.666 -42.667 69.999 -80l65 -266l81 331c6.66699 25.333 20.5 46.5 41.5 63.5s44.833 25.5 71.5 25.5
c58.667 0 98.334 -24.333 119.001 -73c46.667 -19.333 71.334 -53.333 74.001 -102zM665.001 691.999c-1.33301 19.333 -9.66699 35.5 -25 48.5s-33.333 18.833 -54 17.5c-37.333 -2 -60 -20 -68 -54l-116 -471c-2 -8.66699 -7.33301 -13 -16 -13h-40
c-8.66699 0 -14 4.33301 -16 13l-115 471c-8.66699 34 -31.667 52 -69 54c-20.667 0.666992 -38.667 -5.5 -54 -18.5s-23.333 -29.167 -24 -48.5c-0.666992 -6.66699 0 -13.667 2 -21l129 -511c6 -23.333 18.167 -42.5 36.5 -57.5s39.5 -22.5 63.5 -22.5h134
c24 0 45.333 7.5 64 22.5s30.667 34.167 36 57.5l129 512c2 7.33301 3 14.333 3 21z" />
    <glyph glyph-name="W" unicode="W" horiz-adv-x="970" 
d="M944 644l-2 -34.002l-101 -528c-6.66699 -32.667 -23 -59.667 -49 -81s-55.667 -32 -89 -32h-71c-52 0 -89.667 24 -113 72c-24 -48 -62 -72 -114 -72h-71c-58 0 -99.667 26 -125 78c-42 20.667 -67.667 53.667 -77 99l-102 561c3.33301 32 17.833 57.833 43.5 77.5
s54.5 27.834 86.5 24.501c47.333 -5.33301 80 -29.666 98 -72.999c38.667 -16 62.334 -44 71.001 -84c0.666992 -6 2.33398 -14.667 5.00098 -26l11 63c5.33301 26 18.166 47.667 38.499 65s44.166 26 71.499 26c22.667 0 43.5 -6.5 62.5 -19.5s32.5 -30.167 40.5 -51.5
c38.667 -14.667 62 -42.334 70 -83.001l17 90c4.66699 24.667 16.667 45.5 36 62.5s42 27.167 68 30.5c26.667 2.66699 51.5 -2.66602 74.5 -15.999s39.167 -32 48.5 -56c42.667 -17.333 66.667 -48.333 72 -93zM832 701.998c-2 18.667 -10.665 33.667 -25.998 45
s-32.666 16 -51.999 14c-35.333 -4 -56 -22.333 -62 -55l-85 -450c-0.666992 -2.66699 -2.66699 -4 -6 -4c-2.66699 0 -4.33398 1.33301 -5.00098 4l-79 424c-2.66699 14.667 -9.83398 27 -21.501 37s-25.167 15 -40.5 15s-28.833 -5 -40.5 -15s-19.167 -22.333 -22.5 -37
l-78 -424c-0.666992 -2.66699 -2.66699 -4 -6 -4c-2.66699 0 -4.33398 1.33301 -5.00098 4l-86 450c-6 32.667 -26.667 51 -62 55c-19.333 2 -36.666 -2.66699 -51.999 -14s-24 -26.333 -26 -45c-0.666992 -6 -0.333984 -12.667 0.999023 -20l102 -527
c4 -21.333 14.5 -39.166 31.5 -53.499s36.5 -21.5 58.5 -21.5h71c19.333 0 36.333 6.16699 51 18.5s23.667 27.833 27 46.5l30 155c0.666992 3.33301 2.33398 5 5.00098 5c3.33301 0 5.33301 -1.66699 6 -5l30 -155c3.33301 -18.667 12.333 -34.167 27 -46.5
s31.667 -18.5 51 -18.5h71c22.667 0 42.5 7.16699 59.5 21.5s27.5 32.166 31.5 53.499l101 527c1.33301 7.33301 1.66602 14 0.999023 20z" />
    <glyph glyph-name="X" unicode="X" horiz-adv-x="796" 
d="M738 82c0 -43.333 -18.334 -77.332 -55.001 -101.999c-21.333 -14 -44.666 -21 -69.999 -21c-41.333 0 -73.333 16.667 -96 50l-16 23c-20 9.33301 -36 22.666 -48 39.999l-37 54l-79 -117c-22.667 -33.333 -55 -50 -97 -50c-25.333 0 -48.166 6.83301 -68.499 20.5
s-35.5 31.5 -45.5 53.5c-49.333 21.333 -74 58.666 -74 111.999c0 23.333 6.33301 44.666 19 63.999l144 212l-134 199c-13.333 18.667 -20 39.667 -20 63c0 43.333 18.333 77.333 55 102c21.333 14 44.666 21 69.999 21c42 0 74.333 -16.667 97 -50l16 -23
c20 -9.33301 36 -22.666 48 -39.999l26 -40l70 103c22.667 33.333 55 50 97 50c53.333 0 91.333 -24.667 114 -74c22 -9.33301 39.833 -24.333 53.5 -45s20.5 -43 20.5 -67c0 -23.333 -6.33301 -44.666 -19 -63.999l-135 -198l145 -213c12.667 -18.667 19 -39.667 19 -63z
M614.999 182.001l-148.002 218c-4.66699 6.66699 -7 13.667 -7 21c0 8 2.33301 15.333 7 22l138 203c7.33301 11.333 11 23.666 11 36.999c0 26 -11 46.667 -33 62c-13.333 8.66699 -27.666 13 -42.999 13c-24.667 0 -43.667 -9.66699 -57 -29l-107 -156
c-3.33301 -5.33301 -7.66602 -8 -12.999 -8s-10 2.66699 -14 8l-106 156c-13.333 19.333 -32.333 29 -57 29c-15.333 0 -29.666 -4.33301 -42.999 -13c-22.667 -15.333 -34 -36 -34 -62c0 -13.333 4 -25.666 12 -36.999l137 -203c4.66699 -6.66699 7 -14 7 -22
c0 -7.33301 -2 -14.333 -6 -21l-148 -218c-7.33301 -11.333 -11 -23.666 -11 -36.999c0 -26 11 -46.667 33 -62c13.333 -8.66699 27.666 -13 42.999 -13c24.667 0 43.667 9.66699 57 29l116 170c4 5.33301 8.66699 8 14 8s9.66602 -2.66699 12.999 -8l117 -170
c12.667 -19.333 31.334 -29 56.001 -29c16 0 30.333 4.33301 43 13c22.667 15.333 34 36 34 62c0 13.333 -3.66699 25.666 -11 36.999z" />
    <glyph glyph-name="Y" unicode="Y" horiz-adv-x="796" 
d="M750 619c0 -23.333 -6.66797 -44.6689 -20.001 -64.002l-193 -280v-199c0 -32 -11.833 -59.5 -35.5 -82.5s-52.5 -34.5 -86.5 -34.5c-25.333 0 -48.166 6.83301 -68.499 20.5s-35.166 31.167 -44.499 52.5c-48.667 20.667 -73 56.334 -73 107.001v199l-193 281
c-12.667 18.667 -19 39.667 -19 63c0 43.333 18.333 77.333 55 102c21.333 14.667 44.333 22 69 22c42 0 74.333 -17 97 -51c4 -5.33301 9 -13 15 -23c20.667 -8.66699 37 -22 49 -40l60 -91l102 154c22.667 34 55 51 97 51c25.333 0 48.666 -7.33301 69.999 -22
c19.333 -13.333 34 -30.666 44 -51.999c50 -22 75 -59.667 75 -113zM626.999 645.997c7.33301 10.667 10.999 22.667 10.999 36c0 26 -11.333 46.667 -34 62c-13.333 9.33301 -27.666 14 -42.999 14c-24.667 0 -43.667 -10 -57 -30l-139 -210
c-3.33301 -5.33301 -8 -8 -14 -8c-5.33301 0 -9.66602 2.66699 -12.999 8l-140 210c-12.667 20 -31.334 30 -56.001 30c-16 0 -30.333 -4.66699 -43 -14c-22.667 -15.333 -34 -36 -34 -62c0 -13.333 3.66699 -25.333 11 -36l195 -283c4 -6.66699 6 -14 6 -22v-202
c0 -18.667 7.33301 -34.834 22 -48.501s32 -20.5 52 -20.5c20.667 0 38.167 6.83301 52.5 20.5s21.5 29.834 21.5 48.501v202c0 8 2.33301 15.333 7 22z" />
    <glyph glyph-name="Z" unicode="Z" horiz-adv-x="796" 
d="M736 86c0 -32.667 -11.667 -60.667 -35 -84s-51.333 -35 -84 -35h-322c-64 0 -112.667 28.333 -146 85c-58 34 -87 83.333 -87 148c0 43.333 15 81.333 45 114l170 184h-29c-52 0 -88.333 24 -109 72c-21.333 9.33301 -38.833 23.833 -52.5 43.5s-20.5 41.5 -20.5 65.5
c0 32.667 11.5 60.667 34.5 84s50.833 35 83.5 35h314c64.667 0 113.667 -28.333 147 -85c57.333 -33.333 86 -82.333 86 -147c0 -44 -15 -82.333 -45 -115l-169 -184h36c52.667 0 89 -24 109 -72c22 -9.33301 39.833 -23.833 53.5 -43.5s20.5 -41.5 20.5 -65.5zM624 149
c0 19.333 -7 35.835 -21 49.502s-30.667 20.5 -50 20.5h-234c-10 0 -15 5 -15 15c0 3.33301 1.33301 6.66602 4 9.99902l279 303c21.333 23.333 32 50.666 32 81.999c0 33.333 -11.833 61.833 -35.5 85.5s-52.167 35.5 -85.5 35.5h-314
c-19.333 0 -35.833 -6.83301 -49.5 -20.5s-20.5 -30.5 -20.5 -50.5c0 -19.333 6.83301 -35.833 20.5 -49.5s30.167 -20.5 49.5 -20.5h226c10.667 0 16 -4.66699 16 -14c0 -4 -1.66699 -7.66699 -5 -11l-278 -303c-22 -22.667 -33 -49.667 -33 -81
c0 -33.333 11.833 -61.833 35.5 -85.5s52.167 -35.5 85.5 -35.5h322c20 0 36.833 6.83301 50.5 20.5s20.5 30.167 20.5 49.5z" />
    <glyph glyph-name="bracketleft" unicode="[" horiz-adv-x="566" 
d="M518 16c0 -32.667 -11.3301 -60.3311 -33.9971 -82.998s-50.334 -34 -83.001 -34h-111c-62.667 0 -111.334 28 -146.001 84c-54.667 32 -82 77.333 -82 136v582c0 43.333 16 80.333 48 111s70.667 46 116 46h111c52 0 88 -24 108 -72
c22 -8.66699 39.667 -22.834 53 -42.501s20 -41.5 20 -65.5c0 -32 -11.333 -59.5 -34 -82.5s-50.334 -34.5 -83.001 -34.5h-34v-369c37.333 -10 63.333 -32.667 78 -68c22 -8.66699 39.667 -22.834 53 -42.501s20 -41.5 20 -65.5zM406.003 79.0029
c0 19.333 -6.66699 35.668 -20 49.001s-29.666 20 -48.999 20h-48c-22.667 0 -34 10.333 -34 31v462c0 21.333 11.333 32 34 32h48c19.333 0 35.666 6.66699 48.999 20s20 29.333 20 48c0 19.333 -6.66699 35.666 -20 48.999s-29.666 20 -48.999 20h-111
c-32 0 -59.333 -10.667 -82 -32s-34 -47 -34 -77v-582c0 -30 11.333 -55.5 34 -76.5s50 -31.5 82 -31.5h111c19.333 0 35.666 6.66699 48.999 20s20 29.333 20 48z" />
    <glyph glyph-name="backslash" unicode="\" horiz-adv-x="806" 
d="M768 619c0 -23.333 -6.33105 -44.668 -18.998 -64.001l-81 -116c7.33301 -9.33301 12.666 -19.666 15.999 -30.999c19.333 -4.66699 35.333 -15.167 48 -31.5s19 -34.833 19 -55.5c0 -24.667 -8.66699 -46 -26 -64c17.333 -17.333 26 -38.333 26 -63
c0 -25.333 -8.83301 -46.833 -26.5 -64.5s-38.834 -26.5 -63.501 -26.5h-105v-27c0 -32 -12 -59.5 -36 -82.5s-52.667 -34.5 -86 -34.5c-25.333 0 -48.333 6.83301 -69 20.5s-35.334 31.167 -44.001 52.5c-33.333 14.667 -55.666 38.334 -66.999 71.001h-39
c-20 0 -38 6.16699 -54 18.5s-26.667 28.166 -32 47.499c-20 5.33301 -36.333 16.166 -49 32.499s-19 34.833 -19 55.5c0 24.667 9 46 27 64c-18 17.333 -27 38.666 -27 63.999c0 24.667 8.83301 45.834 26.5 63.501s38.834 26.5 63.501 26.5h3l-100 144
c-12.667 18.667 -19 40 -19 64c0 42.667 18.333 76.334 55 101.001c21.333 14.667 44.666 22 69.999 22c42 0 74.333 -17 97 -51l15 -23c20.667 -8.66699 37 -22 49 -40l60 -91l102 154c22 34 54 51 96 51c25.333 0 48.333 -7 69 -21s35.667 -31.667 45 -53
c50 -22 75 -59.667 75 -113zM645.002 645.998c7.33301 10.667 10.999 23 10.999 37c0 26 -11.333 46.333 -34 61c-12.667 9.33301 -27 14 -43 14c-24.667 0 -43.334 -9.66699 -56.001 -29l-140 -211c-3.33301 -5.33301 -7.66602 -8 -12.999 -8c-6 0 -10.667 2.66699 -14 8
l-139 211c-13.333 19.333 -32.333 29 -57 29c-15.333 0 -29.666 -4.66699 -42.999 -14c-22.667 -14.667 -34 -35 -34 -61c0 -14 3.66699 -26.333 11 -37l151 -219h-94c-11.333 0 -21.166 -4.16699 -29.499 -12.5s-12.5 -18.166 -12.5 -29.499
c0 -12 4.16699 -22.167 12.5 -30.5s18.166 -12.5 29.499 -12.5h145v-1v-42h-145c-11.333 0 -21.166 -4.16699 -29.499 -12.5s-12.5 -18.166 -12.5 -29.499c0 -12 4.16699 -22.167 12.5 -30.5s18.166 -12.5 29.499 -12.5h145v-75c0 -18.667 7.16699 -34.834 21.5 -48.501
s31.833 -20.5 52.5 -20.5c20 0 37.333 6.83301 52 20.5s22 29.834 22 48.501v75h153c12 0 22 4.16699 30 12.5s12 18.5 12 30.5c0 11.333 -4 21.166 -12 29.499s-18 12.5 -30 12.5h-153v43h153c12 0 22 4.16699 30 12.5s12 18.5 12 30.5c0 11.333 -4 21.166 -12 29.499
s-18 12.5 -30 12.5h-103z" />
    <glyph glyph-name="bracketright" unicode="]" horiz-adv-x="566" 
d="M502 56c0 -43.333 -16.168 -80.3359 -48.501 -111.003s-71.166 -46 -116.499 -46h-111c-52 0 -88 24 -108 72c-21.333 8.66699 -38.833 22.834 -52.5 42.501s-20.5 41.5 -20.5 65.5c0 32 11.5 59.5 34.5 82.5s50.5 34.5 82.5 34.5h34v369
c-37.333 10 -63.333 32.667 -78 68c-21.333 8.66699 -38.833 22.834 -52.5 42.501s-20.5 41.5 -20.5 65.5c0 32.667 11.5 60.334 34.5 83.001s50.5 34 82.5 34h111c63.333 0 112 -28 146 -84c55.333 -32 83 -77.333 83 -136v-582zM389.999 118.997v581.998
c0 30 -11.333 55.667 -34 77s-50.334 32 -83.001 32h-111c-18.667 0 -34.834 -6.66699 -48.501 -20s-20.5 -29.666 -20.5 -48.999c0 -18.667 6.83301 -34.667 20.5 -48s29.834 -20 48.501 -20h49c22 0 33 -10.667 33 -32v-462c0 -20.667 -11 -31 -33 -31h-49
c-18.667 0 -34.834 -6.66699 -48.501 -20s-20.5 -29.666 -20.5 -48.999c0 -18.667 6.83301 -34.667 20.5 -48s29.834 -20 48.501 -20h111c32.667 0 60.334 10.5 83.001 31.5s34 46.5 34 76.5z" />
    <glyph glyph-name="asciicircum" unicode="^" horiz-adv-x="554" 
d="M510 570c0 -23.333 -8.66797 -44.166 -26.001 -62.499s-38.333 -27.833 -63 -28.5c-24 -0.666992 -44.333 7 -61 23l-57 53l-56 -53c-17.333 -16 -38 -23.667 -62 -23c-44 1.33301 -72 23.333 -84 66c-17.333 5.33301 -31.666 14 -42.999 26
c-16.667 18 -25 38.667 -25 62c0 25.333 9 46.333 27 63l92 86c16 15.333 35.333 23 58 23h58c23.333 0 43 -7.66699 59 -23c56.667 -52.667 87.167 -81.167 91.5 -85.5s8.5 -9.5 12.5 -15.5l51 -48c18 -16.667 27.333 -36.334 28 -59.001v-4zM385.999 661l-91.999 86.001
c-6.66699 6.66699 -15.334 10 -26.001 10h-58c-10 0 -18.667 -3.33301 -26 -10l-91 -86c-8 -7.33301 -12 -16.333 -12 -27c0 -12 4.33301 -22.333 13 -31s18.667 -13 30 -13c10 0 18.667 3.33301 26 10l89 84l90 -84c6.66699 -6.66699 15 -10 25 -10
c12 0 22.333 4.33301 31 13s13 18.667 13 30s-4 20.666 -12 27.999z" />
    <glyph glyph-name="underscore" unicode="_" horiz-adv-x="612" 
d="M562 68c0 -28 -10 -51.998 -30 -71.998s-44 -30 -72 -30h-244c-21.333 0 -40.833 6.33301 -58.5 19s-29.834 29 -36.501 49c-20.667 7.33301 -37.5 19.833 -50.5 37.5s-19.5 37.5 -19.5 59.5c0 28 9.83301 52 29.5 72s43.5 30 71.5 30h244c22 0 41.833 -6.33301 59.5 -19
s29.834 -29.334 36.501 -50.001c20.667 -6.66699 37.5 -18.834 50.5 -36.501s19.5 -37.5 19.5 -59.5zM450 131.002c0 14.667 -5.33301 27.334 -16 38.001s-23.334 16 -38.001 16h-244c-14.667 0 -27.167 -5.33301 -37.5 -16s-15.5 -23.334 -15.5 -38.001
s5.16699 -27.334 15.5 -38.001s22.833 -16 37.5 -16h244c14.667 0 27.334 5.33301 38.001 16s16 23.334 16 38.001z" />
    <glyph glyph-name="grave" unicode="`" horiz-adv-x="381" 
d="M270 482c-24 -0.666992 -44.333 7.00098 -61 23.001l-156 148c-17.333 17.333 -26 38.666 -26 63.999c0 24 8.5 45.167 25.5 63.5s38.833 27.5 65.5 27.5c22.667 0 42 -7.66699 58 -23l155 -149c18 -17.333 27 -38.333 27 -63c0 -24 -8.33301 -45 -25 -63
s-37.667 -27.333 -63 -28zM235 664.001l-91.999 86c-6.66699 6.66699 -15.334 10 -26.001 10c-12 0 -22.167 -4.33301 -30.5 -13s-12.5 -18.667 -12.5 -30s4 -21 12 -29l92 -85c6.66699 -6.66699 15 -10 25 -10c12 0 22.167 4.33301 30.5 13s12.5 19 12.5 31
c0 10.667 -3.66699 19.667 -11 27z" />
    <glyph glyph-name="a" unicode="a" horiz-adv-x="711" 
d="M652 377v-294.999c0 -31.333 -11.667 -58.333 -35 -81s-51.333 -34 -84 -34h-247c-63.333 0 -111.333 28 -144 84c-57.333 33.333 -86 81.666 -86 144.999v59c0 66 29.667 114.667 89 146c-45.333 18 -68 51.333 -68 100c0 30 10.5 55.5 31.5 76.5s46.5 31.5 76.5 31.5
h227c68.667 0 120 -29 154 -87c57.333 -32.667 86 -81 86 -145zM540 440.001c0 33.333 -12.5 61.8359 -37.5 85.5029s-55.167 35.5 -90.5 35.5h-227c-16.667 0 -30.834 -5.83301 -42.501 -17.5s-17.5 -25.834 -17.5 -42.501c0 -16 5.83301 -30 17.5 -42
s25.834 -18 42.501 -18h175c12 0 22.333 -4 31 -12s13 -17.667 13 -29v-28h-182c-32.667 0 -60.5 -11.333 -83.5 -34s-34.5 -50.334 -34.5 -83.001v-59c0 -32.667 11.5 -60.334 34.5 -83.001s50.833 -34 83.5 -34h247c19.333 0 36 6.5 50 19.5s21 28.5 21 46.5v295z
M404 219.004c0 -14 -7.33301 -21 -22 -21h-115c-18 0 -27 8.66699 -27 26v18c0 16.667 9 25 27 25h137v-48z" />
    <glyph glyph-name="b" unicode="b" horiz-adv-x="711" 
d="M657 169c0 -55.333 -21.001 -102.835 -63.001 -142.502s-92.333 -59.5 -151 -59.5h-195c-24.667 0 -47.167 6.83301 -67.5 20.5s-34.833 31.167 -43.5 52.5c-48 20 -72 55 -72 105v550c0 30.667 11.333 57 34 79s50 33 82 33c24 0 45.833 -6.66699 65.5 -20
s33.834 -30.666 42.501 -51.999c48 -19.333 72 -53.666 72 -102.999v-21h18c38.667 0 74.5 -8.83301 107.5 -26.5s58.167 -41.5 75.5 -71.5c29.333 -15.333 52.5 -38.333 69.5 -69s25.5 -63.667 25.5 -99v-176zM544.999 232.998v176c0 42 -16.167 78.167 -48.5 108.5
s-71.5 45.5 -117.5 45.5h-102c-18.667 0 -28 9 -28 27v105c0 18 -6.66699 33.167 -20 45.5s-29.333 18.5 -48 18.5s-34.667 -6.16699 -48 -18.5s-20 -27.5 -20 -45.5v-550c0 -18 7 -33.5 21 -46.5s30.667 -19.5 50 -19.5h195c46 0 85.167 15 117.5 45s48.5 66.333 48.5 109z
M408.999 264.998c0 -16 -5.83301 -29.5 -17.5 -40.5s-26.167 -16.5 -43.5 -16.5h-77c-14.667 0 -22 6.66699 -22 20v185c0 14 7.33301 21 22 21l77 -1c17.333 0 31.833 -5.5 43.5 -16.5s17.5 -24.5 17.5 -40.5v-111z" />
    <glyph glyph-name="c" unicode="c" horiz-adv-x="711" 
d="M660 319c0 -26 -8.16602 -49.332 -24.499 -69.999s-36.833 -34.334 -61.5 -41.001c5.33301 -7.33301 9.66602 -15 12.999 -23c20.667 -8.66699 37.667 -22.5 51 -41.5s20 -40.167 20 -63.5c0 -31.333 -10.833 -58 -32.5 -80s-48.167 -33 -79.5 -33h-209
c-38.667 0 -74.5 8.83301 -107.5 26.5s-58.167 41.5 -75.5 71.5c-29.333 15.333 -52.5 38.166 -69.5 68.499s-25.5 63.5 -25.5 99.5v176c0 55.333 21 102.833 63 142.5s92.333 59.5 151 59.5h153c64.667 0 113.667 -28.667 147 -86c58 -33.333 87 -82.666 87 -147.999v-58z
M447.001 256.001c-4 6 -7.33301 12.333 -10 19c-24 10 -42.667 25.667 -56 47h-13c-8.66699 0 -13 -3 -13 -9v-57h92zM548.001 383.001v58c0 33.333 -12 62 -36 86s-52.667 36 -86 36h-153c-45.333 0 -84.333 -15.167 -117 -45.5s-49 -66.5 -49 -108.5v-176
c0 -42.667 16.167 -79 48.5 -109s71.5 -45 117.5 -45h209c18 0 33.167 6.33301 45.5 19s18.5 27.667 18.5 45c0 18 -6.16699 33.333 -18.5 46s-27.5 19 -45.5 19h-178c-16.667 0 -31 5.5 -43 16.5s-18 24.5 -18 40.5v111c0 16 6 29.667 18 41s26.333 17 43 17h75
c22 0 33 -10.333 33 -31v-20c0 -18.667 6.66699 -34.667 20 -48s29.333 -20 48 -20s34.667 6.66699 48 20s20 29.333 20 48z" />
    <glyph glyph-name="d" unicode="d" horiz-adv-x="711" 
d="M645 82c0 -31.333 -11.668 -58.334 -35.001 -81.001s-51.333 -34 -84 -34h-197c-38.667 0 -74.5 8.83301 -107.5 26.5s-58.167 41.5 -75.5 71.5c-29.333 15.333 -52.5 38.166 -69.5 68.499s-25.5 63.5 -25.5 99.5v176c0 55.333 21 102.833 63 142.5s92.333 59.5 151 59.5
h84v84c0 30.667 11.333 57 34 79s50 33 82 33c24.667 0 46.834 -6.66699 66.501 -20s33.5 -30.666 41.5 -51.999c48 -19.333 72 -53.666 72 -102.999v-550zM532.999 144.999v550c0 18 -6.66699 33.167 -20 45.5s-29.333 18.5 -48 18.5s-34.667 -6.16699 -48 -18.5
s-20 -27.5 -20 -45.5v-105c0 -18 -9.33301 -27 -28 -27h-104c-46 0 -85.167 -15.167 -117.5 -45.5s-48.5 -66.5 -48.5 -108.5v-176c0 -42.667 16.167 -79 48.5 -109s71.5 -45 117.5 -45h197c19.333 0 36 6.5 50 19.5s21 28.5 21 46.5zM396.999 227.999
c0 -13.333 -7.33301 -20 -22 -20h-79c-16.667 0 -31 5.5 -43 16.5s-18 24.5 -18 40.5v111c0 16 6 29.667 18 41s26.333 17 43 17h79c14.667 0 22 -7 22 -21v-185z" />
    <glyph glyph-name="e" unicode="e" horiz-adv-x="711" 
d="M650 321c0 -65.333 -29.333 -113.666 -88 -144.999c45.333 -18 68 -51.333 68 -100c0 -30 -10.5 -55.667 -31.5 -77s-46.5 -32 -76.5 -32h-189c-38.667 0 -74.5 8.83301 -107.5 26.5s-58.167 41.5 -75.5 71.5c-29.333 15.333 -52.5 38.166 -69.5 68.499
s-25.5 63.5 -25.5 99.5v176c0 55.333 20.833 102.833 62.5 142.5s92.167 59.5 151.5 59.5h128c34 0 65.333 -8.16699 94 -24.5s51 -38.5 67 -66.5c28 -16 50.333 -38.5 67 -67.5s25 -60.5 25 -94.5v-37zM538 385l0.000976562 35.999c0 38.667 -13.833 72 -41.5 100
s-60.834 42 -99.501 42h-128c-46 0 -85.167 -15.167 -117.5 -45.5s-48.5 -66.5 -48.5 -108.5v-176c0 -42.667 16.167 -79 48.5 -109s71.5 -45 117.5 -45h189c16.667 0 30.834 5.83301 42.501 17.5s17.5 25.834 17.5 42.501s-5.83301 30.834 -17.5 42.501
s-25.834 17.5 -42.501 17.5h-170c-13.333 0 -24.833 4.66699 -34.5 14s-14.5 20.666 -14.5 33.999v21h182c32 0 59.5 11.5 82.5 34.5s34.5 50.5 34.5 82.5zM403.001 403.999c0 -20.667 -11 -31 -33 -31h-131v20c0 13.333 5 24.833 15 34.5s22.333 14.5 37 14.5h72
c10.667 0 20 -3.66699 28 -11s12 -16.333 12 -27z" />
    <glyph glyph-name="f" unicode="f" horiz-adv-x="628" 
d="M581 435c0 -31.333 -11 -58.002 -33 -80.002s-48.667 -33 -80 -33h-29v-253c0 -30.667 -11.333 -56.834 -34 -78.501s-50 -32.5 -82 -32.5c-24.667 0 -46.834 6.5 -66.501 19.5s-33.5 30.167 -41.5 51.5c-48 19.333 -72 53.666 -72 102.999v213
c-17.333 12.667 -29.666 28.667 -36.999 48c-21.333 8.66699 -38.666 22.5 -51.999 41.5s-20 40.167 -20 63.5c0 30.667 10.667 56.834 32 78.501s47 32.834 77 33.501v40c0 40.667 15 75.334 45 104.001s66.333 43 109 43h107c23.333 0 44.5 -6.5 63.5 -19.5
s32.833 -30.167 41.5 -51.5c21.333 -8 38.666 -21.667 51.999 -41s20 -40.666 20 -63.999c0 -39.333 -16.667 -70.333 -50 -93c33.333 -22.667 50 -53.667 50 -93zM469 497.998c0 18 -6.33203 33.332 -18.999 45.999s-28 19 -46 19h-56c-14 0 -21 6.66699 -21 20
c0 10 3.66699 18.667 11 26s16.666 11 27.999 11h38c18 0 33.333 6.33301 46 19s19 27.667 19 45c0 18 -6.33301 33.333 -19 46s-28 19 -46 19h-107c-29.333 0 -54.333 -9.66699 -75 -29s-31 -42.666 -31 -69.999v-67c0 -13.333 -7 -20 -21 -20h-24
c-17.333 0 -32.333 -6.33301 -45 -19s-19 -28 -19 -46s6.33301 -33.333 19 -46s27.667 -19 45 -19h24c14 0 21 -6.66699 21 -20v-281c0 -17.333 6.66699 -32.166 20 -44.499s29.333 -18.5 48 -18.5s34.667 6.16699 48 18.5s20 27.166 20 44.499v281c0 13.333 7 20 21 20h56
c18 0 33.333 6.33301 46 19s19 28 19 46z" />
    <glyph glyph-name="g" unicode="g" horiz-adv-x="711" 
d="M651 88c0 -50.667 -18.834 -93.834 -56.501 -129.501s-83.167 -53.5 -136.5 -53.5h-189c-23.333 0 -44.5 6.5 -63.5 19.5s-32.5 29.833 -40.5 50.5c-21.333 8.66699 -38.666 22.5 -51.999 41.5s-20 40.167 -20 63.5c0 37.333 15.333 67.333 46 90
c0 0.666992 -2 4.33398 -6 11.001c-56.667 31.333 -85 79 -85 143v97c0 52 18.5 96.667 55.5 134s81.833 56 134.5 56h230c24.667 0 47.167 -6.83301 67.5 -20.5s34.833 -31.167 43.5 -52.5c48 -20 72 -55 72 -105v-345zM538.999 151v345.001c0 18 -6.83301 33.667 -20.5 47
s-30.5 20 -50.5 20h-230c-39.333 0 -72.833 -14 -100.5 -42s-41.5 -61.333 -41.5 -100v-97c0 -32.667 11.5 -60.334 34.5 -83.001s50.5 -34 82.5 -34h168c14.667 0 22 -7 22 -21c0 -11.333 -4.16699 -21.166 -12.5 -29.499s-18.5 -12.5 -30.5 -12.5h-155
c-18 0 -33.167 -6.33301 -45.5 -19s-18.5 -27.667 -18.5 -45s6.16699 -32.333 18.5 -45s27.5 -19 45.5 -19h189c40 0 74.167 13.167 102.5 39.5s42.5 58.166 42.5 95.499zM402.999 340.001c0 -14 -7.33301 -21 -22 -21h-110c-10.667 0 -20 3.66699 -28 11s-12 16.333 -12 27
v39c0 10 4 18.667 12 26s17.333 11 28 11h110c14.667 0 22 -6.66699 22 -20v-73z" />
    <glyph glyph-name="h" unicode="h" horiz-adv-x="711" 
d="M650 69c0 -30.667 -11.332 -56.832 -33.999 -78.499s-50 -32.5 -82 -32.5c-24 0 -45.833 6.5 -65.5 19.5s-33.834 30.167 -42.501 51.5c-48 19.333 -72 53.666 -72 102.999v-63c0 -30.667 -11.333 -56.834 -34 -78.501s-50 -32.5 -82 -32.5c-24 0 -45.833 6.5 -65.5 19.5
s-33.834 30.167 -42.501 51.5c-48 19.333 -72 53.666 -72 102.999v563c0 30.667 11.333 57 34 79s50 33 82 33c24.667 0 46.834 -6.66699 66.501 -20s33.5 -30.666 41.5 -51.999c48 -19.333 72 -53.666 72 -102.999v-21h18c39.333 0 75.5 -8.83301 108.5 -26.5
s57.833 -41.5 74.5 -71.5c29.333 -15.333 52.5 -38.333 69.5 -69s25.5 -63.667 25.5 -99v-276zM538.001 132.002v277c0 42 -16.167 78.167 -48.5 108.5s-71.5 45.5 -117.5 45.5h-102c-18.667 0 -28 9 -28 27v105c0 18 -6.66699 33.167 -20 45.5s-29.333 18.5 -48 18.5
s-34.667 -6.16699 -48 -18.5s-20 -27.5 -20 -45.5v-563c0 -17.333 6.66699 -32.166 20 -44.499s29.333 -18.5 48 -18.5s34.667 6.16699 48 18.5s20 27.166 20 44.499v281c0 14 7.33301 21 22 21h78c16.667 0 31 -5.66699 43 -17s18 -25 18 -41v-244
c0 -17.333 6.5 -32.166 19.5 -44.499s29.167 -18.5 48.5 -18.5c18.667 0 34.5 6.16699 47.5 18.5s19.5 27.166 19.5 44.499z" />
    <glyph glyph-name="i" unicode="i" horiz-adv-x="376" 
d="M337 69c0 -30.667 -11.333 -56.834 -34 -78.501s-50 -32.5 -82 -32.5c-24 0 -45.833 6.5 -65.5 19.5s-33.834 30.167 -42.501 51.5c-48 19.333 -72 53.666 -72 102.999v377c0 32 12.333 59 37 81c-24.667 22 -37 49 -37 81v24c0 30.667 11.333 57 34 79s50 33 82 33
c24.667 0 46.834 -6.66699 66.501 -20s33.5 -30.666 41.5 -51.999c48 -19.333 72 -53.666 72 -102.999v-25c0 -31.333 -12 -58 -36 -80c24 -22 36 -49 36 -81v-377zM225 671v24c0 18 -6.66699 33.167 -20 45.5s-29.333 18.5 -48 18.5s-34.667 -6.16699 -48 -18.5
s-20 -27.5 -20 -45.5v-24c0 -17.333 6.66699 -32.333 20 -45s29.333 -19 48 -19s34.667 6.33301 48 19s20 27.667 20 45zM225 132v377c0 17.333 -6.66699 32.166 -20 44.499s-29.333 18.5 -48 18.5s-34.667 -6.16699 -48 -18.5s-20 -27.166 -20 -44.499v-377
c0 -17.333 6.66699 -32.166 20 -44.499s29.333 -18.5 48 -18.5s34.667 6.16699 48 18.5s20 27.166 20 44.499z" />
    <glyph glyph-name="j" unicode="j" horiz-adv-x="529" 
d="M477 79c0 -48.667 -17.001 -90.002 -51.001 -124.002s-75 -51 -123 -51h-106c-23.333 0 -44.333 6.5 -63 19.5s-32.334 30.167 -41.001 51.5c-21.333 8 -38.666 21.5 -51.999 40.5s-20 40.5 -20 64.5c0 30.667 11 57 33 79s48.333 33 79 33h48v317c0 32 12.333 59 37 81
c-24.667 22 -37 49 -37 81v24c0 30.667 11.333 57 34 79s50 33 82 33c24 0 45.833 -6.66699 65.5 -20s33.834 -30.666 42.501 -51.999c48 -19.333 72 -53.666 72 -102.999v-25c0 -31.333 -12.333 -58 -37 -80c24.667 -22 37 -49 37 -81v-367zM364.999 670.998v24
c0 18 -6.66699 33.167 -20 45.5s-29.333 18.5 -48 18.5s-34.667 -6.16699 -48 -18.5s-20 -27.5 -20 -45.5v-24c0 -17.333 6.66699 -32.333 20 -45s29.333 -19 48 -19s34.667 6.33301 48 19s20 27.667 20 45zM364.999 141.998l-0.000976562 367
c0 17.333 -6.66699 32.166 -20 44.499s-29.333 18.5 -48 18.5s-34.667 -6.16699 -48 -18.5s-20 -27.166 -20 -44.499v-329c0 -10 -3.5 -18.5 -10.5 -25.5s-15.833 -10.5 -26.5 -10.5h-59c-17.333 0 -32.333 -6.33301 -45 -19s-19 -27.667 -19 -45
c0 -18 6.33301 -33.333 19 -46s27.667 -19 45 -19h106c34.667 0 64.334 12.333 89.001 37s37 54.667 37 90z" />
    <glyph glyph-name="k" unicode="k" horiz-adv-x="711" 
d="M664 75c0 -43.333 -18.668 -76.333 -56.001 -99c-19.333 -12 -40 -18 -62 -18c-42 0 -73.667 17 -95 51l-13 21c-21.333 8.66699 -38.333 22.667 -51 42l-36 58v-61c0 -30.667 -11.333 -56.834 -34 -78.501s-50 -32.5 -82 -32.5c-24.667 0 -46.834 6.5 -66.501 19.5
s-33.5 30.167 -41.5 51.5c-48 19.333 -72 53.666 -72 102.999v563c0 30.667 11.333 57 34 79s50 33 82 33c24 0 45.833 -6.66699 65.5 -20s33.834 -30.666 42.501 -51.999c48 -19.333 72 -53.666 72 -102.999v-31l60 46c19.333 14.667 41.333 22 66 22
c50.667 0 86.334 -24.333 107.001 -73c22 -8.66699 39.833 -23.167 53.5 -43.5s20.5 -42.5 20.5 -66.5c0 -36 -14 -65 -42 -87l-91 -71l123 -196c10.667 -17.333 16 -36.333 16 -57zM542.999 170l-138 220.001c-1.33301 2.66699 -2 5.66699 -2 9
c0 5.33301 2 9.66602 6 12.999l113 88c16 12.667 24 29.334 24 50.001c0 15.333 -4.66699 29.333 -14 42c-14.667 18.667 -33 28 -55 28c-14 0 -26.333 -4 -37 -12l-180 -134c-2 -2 -4.66699 -3 -8 -3c-8.66699 0 -13 4 -13 12v212c0 18 -6.66699 33.167 -20 45.5
s-29.333 18.5 -48 18.5s-34.667 -6.16699 -48 -18.5s-20 -27.5 -20 -45.5v-563c0 -17.333 6.66699 -32.166 20 -44.499s29.333 -18.5 48 -18.5s34.667 6.16699 48 18.5s20 27.166 20 44.499v136c0 6.66699 2.66699 12 8 16l27 22c3.33301 2.66699 7 4 11 4
c6.66699 0 11.334 -2.33301 14.001 -7l129 -205c12 -19.333 30 -29 54 -29c13.333 0 25.666 3.66699 36.999 11c22 13.333 33 32.666 33 57.999c0 11.333 -3 22 -9 32z" />
    <glyph glyph-name="l" unicode="l" horiz-adv-x="469" 
d="M415 69c0 -30.667 -11.3311 -56.832 -33.998 -78.499s-50 -32.5 -82 -32.5c-24 0 -45.833 6.5 -65.5 19.5s-33.834 30.167 -42.501 51.5c-48 19.333 -72 53.666 -72 102.999v413c-8.66699 10 -15.667 21 -21 33c-20.667 8 -37.834 21.667 -51.501 41s-20.5 41 -20.5 65
c0 31.333 10.667 58 32 80s47 33 77 33h97c24.667 0 47 -6.66699 67 -20s34.667 -31 44 -53c48 -20 72 -55 72 -105v-550zM303.002 132.002v550c0 18.667 -7 34.5 -21 47.5s-30.667 19.5 -50 19.5h-97c-16.667 0 -31 -6.33301 -43 -19s-18 -28 -18 -46s6 -33.333 18 -46
s26.333 -19 43 -19h10c14.667 0 22 -6.66699 22 -20v-467c0 -17.333 6.66699 -32.166 20 -44.499s29.333 -18.5 48 -18.5c19.333 0 35.5 6.16699 48.5 18.5s19.5 27.166 19.5 44.499z" />
    <glyph glyph-name="m" unicode="m" horiz-adv-x="763" 
d="M697 63c0 -29.333 -10.667 -54.167 -32 -74.5s-47 -30.5 -77 -30.5c-36 0 -65 14 -87 42c-20.667 -28 -48.334 -42 -83.001 -42c-36 0 -64.333 14 -85 42c-22 -28 -51 -42 -87 -42c-24 0 -45.333 6.5 -64 19.5s-32 29.833 -40 50.5c-20.667 8 -37.5 20.833 -50.5 38.5
s-19.5 37.5 -19.5 59.5v376c0 30 11 55.5 33 76.5s48.333 31.5 79 31.5h88c30.667 0 59.334 -7.66699 86.001 -23c27.333 16 56.333 24 87 24h23c63.333 0 112.333 -28.333 147 -85c54.667 -31.333 82 -76.333 82 -135v-328zM585 125.999v328.001
c0 30 -11.333 55.667 -34 77s-50.334 32 -83.001 32h-23c-34 0 -62.667 -11.333 -86 -34c-24 22 -53 33 -87 33h-88c-17.333 0 -32.333 -5.83301 -45 -17.5s-19 -25.834 -19 -42.501v-376c0 -16 6.16699 -29.5 18.5 -40.5s26.833 -16.5 43.5 -16.5s31 5.5 43 16.5
s18 24.5 18 40.5v289c0 12.667 6.66699 19 20 19h15c13.333 0 20 -6.33301 20 -19v-295c0 -14 5.5 -26 16.5 -36s24.167 -15 39.5 -15c14.667 0 27.334 5 38.001 15s16 22 16 36v295c0 12.667 6.66699 19 20 19h15c13.333 0 20 -6.33301 20 -19v-289c0 -16 6 -29.5 18 -40.5
s26.333 -16.5 43 -16.5s31 5.5 43 16.5s18 24.5 18 40.5z" />
    <glyph glyph-name="n" unicode="n" horiz-adv-x="711" 
d="M659 69c0 -30.667 -11.332 -56.8311 -33.999 -78.498s-50 -32.5 -82 -32.5c-24.667 0 -46.834 6.5 -66.501 19.5s-33.5 30.167 -41.5 51.5c-48 19.333 -72 53.666 -72 102.999v190h-3v-253c0 -30.667 -11.333 -56.834 -34 -78.501s-50 -32.5 -82 -32.5
c-24 0 -46 6.66699 -66 20s-34.333 30.333 -43 51c-47.333 19.333 -71 53.666 -71 102.999v364c0 31.333 11.667 58.333 35 81s51.333 34 84 34h198c38.667 0 74.5 -8.83301 107.5 -26.5s58.167 -41.5 75.5 -71.5c29.333 -15.333 52.5 -38.166 69.5 -68.499
s25.5 -63.5 25.5 -99.5v-276zM547.001 132.003l-0.000976562 277c0 42.667 -16.167 79 -48.5 109s-71.5 45 -117.5 45h-198c-19.333 0 -36 -6.5 -50 -19.5s-21 -28.833 -21 -47.5v-364c0 -17.333 6.66699 -32.166 20 -44.499s29.333 -18.5 48 -18.5s34.667 6.16699 48 18.5
s20 27.166 20 44.499v281c0 14 7.33301 21 22 21h81c16.667 0 30.834 -5.66699 42.501 -17s17.5 -25 17.5 -41v-244c0 -17.333 6.66699 -32.166 20 -44.499s29.333 -18.5 48 -18.5s34.667 6.16699 48 18.5s20 27.166 20 44.499z" />
    <glyph glyph-name="o" unicode="o" horiz-adv-x="711" 
d="M651 154c0 -51.333 -19.167 -95.167 -57.5 -131.5s-84.5 -54.5 -138.5 -54.5h-137c-36 0 -69.167 8.33301 -99.5 25s-53.833 39.334 -70.5 68.001c-28 15.333 -50 37 -66 65s-24 58.333 -24 91v208c0 51.333 19.167 95.166 57.5 131.499s84.5 54.5 138.5 54.5h137
c36 0 69.167 -8.5 99.5 -25.5s53.833 -39.5 70.5 -67.5c28 -15.333 50 -37 66 -65s24 -58.667 24 -92v-207zM539 216.999v208c0 38 -14.5 70.5 -43.5 97.5s-63.833 40.5 -104.5 40.5h-137c-40.667 0 -75.5 -13.5 -104.5 -40.5s-43.5 -59.5 -43.5 -97.5v-208
c0 -38 14.5 -70.5 43.5 -97.5s63.833 -40.5 104.5 -40.5h137c40.667 0 75.5 13.5 104.5 40.5s43.5 59.5 43.5 97.5zM404 239.999c0 -20.667 -11 -31 -33 -31h-96c-22 0 -33 10.333 -33 31v162c0 20.667 11 31 33 31h96c22 0 33 -10.333 33 -31v-162z" />
    <glyph glyph-name="p" unicode="p" horiz-adv-x="711" 
d="M659 246c0 -56 -20.998 -103.666 -62.998 -142.999s-92.333 -59 -151 -59h-84v-26c0 -30.667 -11.333 -56.834 -34 -78.501s-50 -32.5 -82 -32.5c-24 0 -45.833 6.66699 -65.5 20s-33.834 30.666 -42.501 51.999c-48 18.667 -72 52.667 -72 102v414
c0 32 11.667 59.167 35 81.5s51.666 33.5 84.999 33.5h196c38.667 0 74.5 -8.66699 107.5 -26s58.167 -41 75.5 -71c29.333 -16 52.5 -39.167 69.5 -69.5s25.5 -63.166 25.5 -98.499v-99zM547.002 309.001v99c0 42.667 -16.167 79 -48.5 109s-71.5 45 -117.5 45h-196
c-20 0 -37 -6.5 -51 -19.5s-21 -28.833 -21 -47.5v-414c0 -17.333 6.66699 -32.166 20 -44.499s29.333 -18.5 48 -18.5s34.667 6.16699 48 18.5s20 27.166 20 44.499v47c0 18 9.66699 27 29 27h103c46 0 85.167 15 117.5 45s48.5 66.333 48.5 109zM411.002 341.001
c0 -15.333 -5.83301 -28.668 -17.5 -40.001s-26.167 -17 -43.5 -17h-79c-14.667 0 -22 7 -22 21v107c0 14 7.33301 21 22 21h79c17.333 0 31.833 -5.66699 43.5 -17s17.5 -24.666 17.5 -39.999v-35z" />
    <glyph glyph-name="q" unicode="q" horiz-adv-x="711" 
d="M644 18c0 -30.667 -11.332 -56.832 -33.999 -78.499s-50 -32.5 -82 -32.5c-24 0 -45.833 6.66699 -65.5 20s-33.834 30.666 -42.501 51.999c-31.333 12 -53 33.667 -65 65h-27c-38.667 0 -74.5 8.66699 -107.5 26s-57.833 41 -74.5 71c-30 16 -53.5 39.167 -70.5 69.5
s-25.5 63.166 -25.5 98.499v99c0 56 21 103.667 63 143s92.333 59 151 59h197c24.667 0 47 -6.66699 67 -20s34.667 -30.666 44 -51.999c48 -20 72 -55.333 72 -106v-414zM532.001 81.002v414c0 18.667 -7 34.5 -21 47.5s-30.667 19.5 -50 19.5h-197
c-45.333 0 -84.333 -15 -117 -45s-49 -66.333 -49 -109v-99c0 -42.667 16.333 -79 49 -109s71.667 -45 117 -45h104c18.667 0 28 -9 28 -27v-47c0 -17.333 6.66699 -32.166 20 -44.499s29.333 -18.5 48 -18.5s34.667 6.16699 48 18.5s20 27.166 20 44.499zM396.001 305.002
c0 -14 -7.33301 -20.998 -22 -20.998h-79c-16.667 0 -31 5.66699 -43 17s-18 24.666 -18 39.999v35c0 15.333 6 28.666 18 39.999s26.333 17 43 17h79c14.667 0 22 -7 22 -21v-107z" />
    <glyph glyph-name="r" unicode="r" horiz-adv-x="631" 
d="M595 439c0 -30 -10.666 -55.6641 -31.999 -76.9971s-47 -32 -77 -32h-55c-20.667 0 -38.167 -7.16699 -52.5 -21.5s-21.5 -31.833 -21.5 -52.5v-188c0 -30.667 -11.333 -56.834 -34 -78.501s-50 -32.5 -82 -32.5c-24 0 -45.833 6.66699 -65.5 20
s-33.834 30.666 -42.501 51.999c-48 19.333 -72 53.666 -72 102.999v377c0 30.667 11.333 56.834 34 78.501s50 32.5 82 32.5c29.333 0 55.333 -10 78 -30c34 13.333 69 20 105 20h63c22.667 0 43.167 -6.5 61.5 -19.5s31.5 -29.833 39.5 -50.5
c20.667 -7.33301 37.667 -20.333 51 -39s20 -39.334 20 -62.001zM483.001 502.003c0 16.667 -5.83301 30.832 -17.5 42.499s-25.834 17.5 -42.501 17.5h-63c-42.667 0 -82.334 -10.667 -119.001 -32c-11.333 28 -32.666 42 -63.999 42c-18.667 0 -34.667 -6.16699 -48 -18.5
s-20 -27.166 -20 -44.499v-377c0 -17.333 6.66699 -32.333 20 -45s29.333 -19 48 -19s34.667 6.16699 48 18.5s20 27.5 20 45.5v188c0 33.333 11.833 62 35.5 86s52.5 36 86.5 36l56 -1c16.667 0 30.834 6 42.501 18s17.5 26.333 17.5 43z" />
    <glyph glyph-name="s" unicode="s" horiz-adv-x="711" 
d="M647 149c0 -50 -17.8311 -93 -53.498 -129s-78.834 -54 -129.501 -54h-224c-22.667 0 -43.334 6.5 -62.001 19.5s-32 29.833 -40 50.5c-20.667 8 -37.667 21.333 -51 40s-20 39.334 -20 62.001c0 24 7.16699 45.5 21.5 64.5s32.833 32.167 55.5 39.5
c-0.666992 0.666992 -1.66699 2 -3 4c-58 34.667 -87 83.667 -87 147v43c0 48 18 89 54 123s79.333 51 130 51h221c22.667 0 43.167 -6.5 61.5 -19.5s31.5 -29.833 39.5 -50.5c20.667 -7.33301 37.667 -20.333 51 -39s20 -39.334 20 -62.001c0 -46 -21 -79 -63 -99
c52.667 -30.667 79 -76 79 -136v-55zM535.002 213l0.000976562 54.002c0 30.667 -11 56.834 -33 78.501s-48.333 32.5 -79 32.5h-154c-20.667 0 -31 10.333 -31 31c0 21.333 10.333 32 31 32h190c16 0 30 6 42 18s18 26.333 18 43s-6 30.834 -18 42.501s-26 17.5 -42 17.5
h-221c-37.333 0 -69.333 -12.333 -96 -37s-40 -54.334 -40 -89.001v-43c0 -34.667 13.333 -64.334 40 -89.001s58.667 -37 96 -37h127c9.33301 0 17.333 -3.33301 24 -10s10 -14.667 10 -24s-3.33301 -17.333 -10 -24s-14.667 -10 -24 -10h-189c-16.667 0 -31 -6 -43 -18
s-18 -26.333 -18 -43s6 -30.834 18 -42.501s26.333 -17.5 43 -17.5h224c37.333 0 69.166 13.167 95.499 39.5s39.5 58.166 39.5 95.499z" />
    <glyph glyph-name="t" unicode="t" horiz-adv-x="581" 
d="M539 80c0 -31.333 -11 -58.002 -33 -80.002s-48.667 -33 -80 -33h-192c-25.333 0 -48 6.66699 -68 20s-34.333 31 -43 53c-48.667 20 -73 55 -73 105v550c0 30.667 11.333 57 34 79s50 33 82 33c24.667 0 46.834 -6.66699 66.501 -20s33.834 -30.666 42.501 -51.999
c47.333 -19.333 71 -53.666 71 -102.999v-21h16c24 0 45.5 -6.5 64.5 -19.5s32.5 -30.167 40.5 -51.5c21.333 -8.66699 38.666 -22.5 51.999 -41.5s20 -40.167 20 -63.5c0 -31.333 -11 -58 -33 -80s-48.667 -33 -80 -33h-80v-66h16c24 0 45.5 -6.5 64.5 -19.5
s32.5 -30.167 40.5 -51.5c21.333 -8.66699 38.666 -22.5 51.999 -41.5s20 -40.167 20 -63.5zM427 142.998c0 18 -6.33301 33.332 -19 45.999s-28 19 -46 19h-105c-15.333 0 -23 6.66699 -23 20v185c0 13.333 7.66699 20 23 20h105c18 0 33.333 6.33301 46 19s19 28 19 46
s-6.33301 33.333 -19 46s-28 19 -46 19h-99c-19.333 0 -29 9 -29 27v105c0 18 -6.5 33 -19.5 45s-29.167 18 -48.5 18c-18.667 0 -34.667 -6.16699 -48 -18.5s-20 -27.166 -20 -44.499v-550c0 -18 7 -33.667 21 -47s31 -20 51 -20h192c18 0 33.333 6.33301 46 19
s19 28 19 46z" />
    <glyph glyph-name="u" unicode="u" horiz-adv-x="711" 
d="M653 81c0 -31.333 -11.6699 -58.1689 -35.0029 -80.502s-51.666 -33.5 -84.999 -33.5h-197c-38.667 0 -74.334 8.66699 -107.001 26s-57.667 41 -75 71c-29.333 16 -52.5 39.167 -69.5 69.5s-25.5 63.166 -25.5 98.499v277c0 30.667 11.333 56.834 34 78.501
s50 32.5 82 32.5c24 0 45.833 -6.66699 65.5 -20s33.834 -30.666 42.501 -51.999c21.333 -8.66699 38.833 -22.334 52.5 -41.001s20.5 -39.334 20.5 -62.001v64c0 30.667 11.333 56.834 34 78.501s50 32.5 82 32.5c24.667 0 46.834 -6.66699 66.501 -20
s33.834 -30.666 42.501 -51.999c48 -19.333 72 -53.666 72 -102.999v-364zM540.997 144.997v364.001c0 17.333 -6.66699 32.166 -20 44.499s-29.666 18.5 -48.999 18.5c-18.667 0 -34.5 -6.16699 -47.5 -18.5s-19.5 -27.166 -19.5 -44.499v-281c0 -14 -7.33301 -21 -22 -21
h-80c-16.667 0 -30.834 5.66699 -42.501 17s-17.5 24.666 -17.5 39.999v245c0 17.333 -6.66699 32.166 -20 44.499s-29.333 18.5 -48 18.5s-34.667 -6.16699 -48 -18.5s-20 -27.166 -20 -44.499v-277c0 -42.667 16.167 -79 48.5 -109s71.5 -45 117.5 -45h197
c19.333 0 36 6.5 50 19.5s21 28.833 21 47.5z" />
    <glyph glyph-name="v" unicode="v" horiz-adv-x="733" 
d="M698 444l-5.00195 -33.002l-105 -343c-9.33301 -30 -27.166 -54.333 -53.499 -73s-55.833 -28 -88.5 -28h-97c-62 0 -106.333 26.333 -133 79c-37.333 18.667 -61.666 47.334 -72.999 86.001l-105 342l-5 33c0 31.333 11.333 58 34 80s50 33 82 33
c52.667 0 88.667 -24 108 -72c34 -13.333 56.333 -37 67 -71l32 -103l51 167c7.33301 23.333 21.166 42.333 41.499 57s43.5 22 69.5 22c24 0 45.833 -6.66699 65.5 -20s33.834 -30.666 42.501 -51.999c48 -19.333 72 -54 72 -104zM585.998 506.998
c0 18 -6.66992 33.333 -20.0029 46s-29.333 19 -48 19c-34.667 0 -56.667 -15.333 -66 -46l-93 -304c-2.66699 -10 -9.66699 -15 -21 -15h-9c-11.333 0 -18.666 5 -21.999 15l-93 304c-9.33301 30.667 -31 46 -65 46c-18.667 0 -34.667 -6.33301 -48 -19s-20 -28 -20 -46
c0 -6 1 -12.333 3 -19l105 -342c6 -20 17.833 -36.333 35.5 -49s37.834 -19 60.501 -19h97c22.667 0 42.834 6.33301 60.501 19s29.5 29 35.5 49l105 342c2 6.66699 3 13 3 19z" />
    <glyph glyph-name="w" unicode="w" horiz-adv-x="903" 
d="M868 454l-2.99805 -32l-83 -361c-6 -28 -20.167 -50.833 -42.5 -68.5s-48.166 -26.5 -77.499 -26.5h-77c-44 0 -77.333 19.333 -100 58c-22.667 -38.667 -56 -58 -100 -58h-77c-53.333 0 -91 24.333 -113 73c-38 16.667 -61.667 45.334 -71 86.001l-83 360l-2 32
c2 30 14.667 54.667 38 74s50.333 28 81 26c47.333 -3.33301 79.333 -27 96 -71c30 -10.667 51 -30.334 63 -59.001l6 26c5.33301 23.333 17.166 42.5 35.499 57.5s39.166 22.5 62.499 22.5c22 0 41.667 -6.16699 59 -18.5s29.333 -28.833 36 -49.5
c24 -8 42.667 -22.667 56 -44l12 53c5.33301 23.333 17.5 43 36.5 59s40.5 24 64.5 24c57.333 0 94.666 -23.333 111.999 -70c44 -16.667 67.667 -47.667 71 -93zM756.002 514c-1.33301 16.667 -8.49902 30.334 -21.499 41.001s-28.5 15.334 -46.5 14.001
c-31.333 -2 -50.333 -17.667 -57 -47l-76 -324c-0.666992 -2.66699 -2.66699 -4 -6 -4s-5.33301 1.33301 -6 4l-70 306c-6.66699 27.333 -24 41 -52 41c-27.333 0 -44.333 -14 -51 -42l-71 -305c-0.666992 -2.66699 -2.66699 -4 -6 -4s-5.33301 1.33301 -6 4l-75 324
c-6.66699 29.333 -26 45 -58 47c-17.333 1.33301 -32.666 -3.33398 -45.999 -14.001s-20.333 -24.334 -21 -41.001c-0.666992 -5.33301 -0.333984 -11.333 0.999023 -18l83 -361c4 -16.667 12.833 -30.5 26.5 -41.5s29.167 -16.5 46.5 -16.5h77c16 0 30.333 4.83301 43 14.5
s20.667 22.167 24 37.5l27 119c1.33301 2.66699 3.33301 4 6 4c3.33301 0 5.33301 -1.33301 6 -4l28 -119c3.33301 -15.333 11.166 -27.833 23.499 -37.5s26.5 -14.5 42.5 -14.5h77c18 0 33.833 5.5 47.5 16.5s22.5 24.833 26.5 41.5l82 361c2 6.66699 2.66699 12.667 2 18z
" />
    <glyph glyph-name="x" unicode="x" horiz-adv-x="711" 
d="M661 112c4.66699 -12 7 -25 7 -39c0 -22.667 -6.83301 -44 -20.5 -64s-32.167 -34.333 -55.5 -43c-14 -5.33301 -28.333 -8 -43 -8c-36.667 0 -66.334 14 -89.001 42l-27 34c-14.667 7.33301 -27 17 -37 29l-18 24l-69 -87c-22.667 -28 -52.334 -42 -89.001 -42
c-24 0 -46 6.5 -66 19.5s-34.667 30.5 -44 52.5c-22 9.33301 -39.667 23.833 -53 43.5s-20 40.834 -20 63.501c0 13.333 2.33301 26.333 7 39l17 29l96 122l-85 108l-17 30c-4.66699 12 -7 25 -7 39c0 22.667 6.83301 44 20.5 64s31.834 34.333 54.501 43
c14 5.33301 28.333 8 43 8c36.667 0 66.334 -14 89.001 -42l27 -34c15.333 -7.33301 27.666 -17 36.999 -29l8 -11l59 74c22.667 28 52.334 42 89.001 42c24 0 46 -6.5 66 -19.5s34.667 -30.5 44 -52.5c22 -9.33301 39.5 -23.833 52.5 -43.5s19.5 -40.834 19.5 -63.501
c0 -13.333 -2.33301 -26.333 -7 -39l-17 -29l-85 -108l95 -122zM542 175l-110 141c-2.66699 3.33301 -4 7 -4 11s1 7.66699 3 11l101 127c8.66699 12 13 25 13 39c0 18.667 -7 34.5 -21 47.5s-30.333 19.5 -49 19.5c-21.333 0 -38.333 -8 -51 -24l-90 -112
c-3.33301 -4.66699 -7.66602 -7 -12.999 -7c-6 0 -10.667 2.33301 -14 7l-89 112c-12.667 16 -30 24 -52 24c-18.667 0 -35 -6.5 -49 -19.5s-21 -28.833 -21 -47.5c0 -14 4.33301 -27 13 -39l101 -128c2.66699 -2.66699 4 -6 4 -10s-1.33301 -7.66699 -4 -11l-111 -141
c-9.33301 -11.333 -14 -24 -14 -38c0 -18.667 7.16699 -34.667 21.5 -48s30.833 -20 49.5 -20c21.333 0 38.333 8 51 24l100 125c3.33301 4.66699 8 7 14 7c5.33301 0 9.66602 -2.33301 12.999 -7l100 -125c12.667 -16 29.667 -24 51 -24c19.333 0 36 6.66699 50 20
s21 29.333 21 48c0 14 -4.66699 26.667 -14 38z" />
    <glyph glyph-name="y" unicode="y" horiz-adv-x="711" 
d="M651 90c0 -50.667 -19.001 -93.8359 -57.001 -129.503s-83.667 -53.5 -137 -53.5h-179c-23.333 0 -44.333 6.5 -63 19.5s-32.334 29.833 -41.001 50.5c-21.333 8.66699 -38.666 22.5 -51.999 41.5s-20 40.167 -20 63.5c0 35.333 14 64.333 42 87
c0 0.666992 -0.333008 1.66699 -1 3c-57.333 32 -86 79.667 -86 143v194c0 30.667 11.333 56.834 34 78.501s50 32.5 82 32.5c24.667 0 46.834 -6.66699 66.501 -20s33.5 -30.666 41.5 -51.999c21.333 -8.66699 38.833 -22.334 52.5 -41.001s20.5 -39.334 20.5 -62.001v64
c0 30.667 11.5 56.834 34.5 78.501s50.5 32.5 82.5 32.5c24 0 46 -6.66699 66 -20s34 -30.666 42 -51.999c48 -19.333 72 -53.666 72 -102.999v-355zM538.999 152.998v356.001c0 17.333 -6.66699 32.166 -20 44.499s-29.333 18.5 -48 18.5s-34.667 -6.16699 -48 -18.5
s-20 -27.166 -20 -44.499v-178c0 -13.333 -7.66699 -20 -23 -20h-99c-11.333 0 -20.833 3.66699 -28.5 11s-11.5 16.333 -11.5 27v160c0 17.333 -6.66699 32.166 -20 44.499s-29.333 18.5 -48 18.5s-34.667 -6.16699 -48 -18.5s-20 -27.166 -20 -44.499v-194
c0 -32 11.5 -59.333 34.5 -82s50.833 -34 83.5 -34h162c12 0 18 -6 18 -18c0 -9.33301 -3.5 -17.5 -10.5 -24.5s-15.5 -10.5 -25.5 -10.5h-153c-17.333 0 -32.333 -6.33301 -45 -19s-19 -27.667 -19 -45c0 -18 6.33301 -33.167 19 -45.5s27.667 -18.5 45 -18.5h179
c40.667 0 75.167 13.167 103.5 39.5s42.5 58.166 42.5 95.499z" />
    <glyph glyph-name="z" unicode="z" horiz-adv-x="711" 
d="M641 75c0 -30 -10.666 -55.5 -31.999 -76.5s-47 -31.5 -77 -31.5h-249c-56.667 0 -101.334 26.667 -134.001 80c-54.667 32.667 -82 77.667 -82 135c0 44 14.333 79 43 105l74 69c-14 12 -24.333 26.667 -31 44c-20.667 7.33301 -37.667 20.333 -51 39s-20 39.667 -20 63
c0 29.333 10.667 54.666 32 75.999s46.666 32 75.999 32h220c56.667 0 101.334 -27 134.001 -81c54.667 -32.667 82 -77.334 82 -134.001c0 -43.333 -14.333 -78.666 -43 -105.999l-61 -57c22.667 -12.667 38.667 -31 48 -55c20.667 -8 37.667 -21.167 51 -39.5
s20 -39.166 20 -62.499zM529.001 138c0 16.667 -6 30.999 -18 42.999s-26.333 18 -43 18h-152c-8.66699 0 -13 4 -13 12c0 4 1.33301 7 4 9l179 168c18.667 16.667 28 40 28 70c0 28.667 -10.167 53.167 -30.5 73.5s-44.833 30.5 -73.5 30.5h-220
c-16.667 0 -30.834 -5.83301 -42.501 -17.5s-17.5 -25.834 -17.5 -42.501s5.83301 -31 17.5 -43s25.834 -18 42.501 -18h122c9.33301 0 14 -4.33301 14 -13c0 -3.33301 -1.33301 -6 -4 -8l-179 -168c-18.667 -17.333 -28 -40.666 -28 -69.999
c0 -28.667 10.167 -53.167 30.5 -73.5s44.833 -30.5 73.5 -30.5h249c16.667 0 31 5.83301 43 17.5s18 25.834 18 42.501z" />
    <glyph glyph-name="braceleft" unicode="{" horiz-adv-x="637" 
d="M612 16c0 -32 -11.5 -59.3281 -34.5 -81.9951s-50.5 -34 -82.5 -34c-46 0 -89 10.167 -129 30.5s-72.333 48.166 -97 83.499c-73.333 51.333 -109.666 119.666 -108.999 204.999v26c-26.667 13.333 -45.334 33.333 -56.001 60c-48.667 19.333 -73 54.666 -73 105.999
c0 31.333 11.5 58.333 34.5 81s50.833 34 83.5 34c7.33301 0 11 3.66699 11 11v66c0 70.667 26.5 130.834 79.5 180.501s116.833 74.5 191.5 74.5c52 0 88 -24 108 -72c22 -8.66699 39.667 -22.667 53 -42s20 -41 20 -65c0 -32.667 -11.5 -60.334 -34.5 -83.001
s-50.5 -34 -82.5 -34c-20.667 0 -31 -8.33301 -31 -25v-46c0 -53.333 -18.667 -101.333 -56 -144c37.333 -42 56 -89.667 56 -143v-12c36 -10.667 61 -33.334 75 -68.001c21.333 -8.66699 38.833 -22.834 52.5 -42.501s20.5 -41.5 20.5 -65.5zM500 79.0049
c0 19.333 -6.66699 35.668 -20 49.001s-29.666 20 -48.999 20c-21.333 0 -39.833 7.16699 -55.5 21.5s-23.5 31.833 -23.5 52.5v45c0 60 -26.333 108 -79 144c52.667 35.333 79 83.333 79 144v45c0 20 7.83301 37.167 23.5 51.5s34.167 21.5 55.5 21.5
c19.333 0 35.666 6.66699 48.999 20s20 29.666 20 48.999c0 18.667 -6.83301 34.667 -20.5 48s-29.834 20 -48.501 20c-62 0 -114.667 -20.167 -158 -60.5s-65 -89.166 -65 -146.499v-66c0 -16 -5.83301 -29.833 -17.5 -41.5s-25.5 -17.5 -41.5 -17.5
c-19.333 0 -35.833 -6.5 -49.5 -19.5s-20.5 -28.833 -20.5 -47.5s6.83301 -34.5 20.5 -47.5s30.167 -19.5 49.5 -19.5c16 0 29.833 -5.83301 41.5 -17.5s17.5 -25.834 17.5 -42.501v-65c0 -58 21.667 -107.167 65 -147.5s96 -60.5 158 -60.5
c18.667 0 34.834 6.66699 48.501 20s20.5 29.333 20.5 48z" />
    <glyph glyph-name="bar" unicode="|" horiz-adv-x="400" 
d="M348 69c0 -30.667 -11.332 -56.834 -33.999 -78.501s-50 -32.5 -82 -32.5c-24.667 0 -46.834 6.66699 -66.501 20s-33.834 30.666 -42.501 51.999c-47.333 18.667 -71 53 -71 103v180c0 47.333 22.667 81 68 101c-45.333 20 -68 53.667 -68 101v180
c0 30.667 11.333 56.834 34 78.501s50 32.5 82 32.5c24 0 45.833 -6.66699 65.5 -20s33.834 -30.666 42.501 -51.999c48 -18.667 72 -52.667 72 -102v-180c0 -48 -22.667 -82 -68 -102c45.333 -19.333 68 -53 68 -101v-180zM236.001 515v180
c0 17.333 -6.66699 32.166 -20 44.499s-29.333 18.5 -48 18.5s-34.667 -6.16699 -48 -18.5s-20 -27.166 -20 -44.499v-180c0 -17.333 6.66699 -32.166 20 -44.499s29.333 -18.5 48 -18.5s34.667 6.16699 48 18.5s20 27.166 20 44.499zM236.001 133v180
c0 17.333 -6.66699 32.166 -20 44.499s-29.333 18.5 -48 18.5s-34.667 -6.16699 -48 -18.5s-20 -27.166 -20 -44.499v-180c0 -18 6.66699 -33.167 20 -45.5s29.333 -18.5 48 -18.5s34.667 6.16699 48 18.5s20 27.5 20 45.5z" />
    <glyph glyph-name="braceright" unicode="}" horiz-adv-x="637" 
d="M610 347c0 -31.333 -11.5029 -58.168 -34.5029 -80.501s-50.833 -33.5 -83.5 -33.5c-7.33301 0 -11 -4 -11 -12l1 -66c0 -70.667 -26.667 -130.834 -80 -180.501s-117.333 -74.5 -192 -74.5c-52 0 -88 24 -108 72c-21.333 8.66699 -38.833 22.667 -52.5 42
s-20.5 41 -20.5 65c0 32.667 11.5 60.334 34.5 83.001s50.5 34 82.5 34c20.667 0 31 8.66699 31 26v45c0 53.333 18.667 101.333 56 144c-37.333 42 -56 90 -56 144v12c-35.333 10 -60.333 32.333 -75 67c-21.333 8.66699 -38.833 22.834 -52.5 42.501
s-20.5 41.5 -20.5 65.5c0 32 11.5 59.333 34.5 82s50.5 34 82.5 34c46.667 0 89.834 -10.167 129.501 -30.5s71.834 -48.166 96.501 -83.499c73.333 -51.333 110 -119.333 110 -204l-1 -27c26.667 -12.667 45.334 -32.334 56.001 -59.001c48.667 -20 73 -55.667 73 -107z
M497.997 410.998c0 18.667 -6.83301 34.498 -20.5 47.498s-30.167 19.5 -49.5 19.5c-16 0 -29.833 5.83301 -41.5 17.5s-17.5 25.5 -17.5 41.5l1 66c0 57.333 -21.833 106.166 -65.5 146.499s-96.5 60.5 -158.5 60.5c-18.667 0 -34.834 -6.66699 -48.501 -20
s-20.5 -29.333 -20.5 -48c0 -19.333 6.66699 -35.666 20 -48.999s29.666 -20 48.999 -20c22 0 40.667 -7.16699 56 -21.5s23 -31.5 23 -51.5v-45c0 -60.667 26.333 -108.667 79 -144c-52.667 -36 -79 -84 -79 -144v-45c0 -20.667 -7.66699 -38.167 -23 -52.5
s-34 -21.5 -56 -21.5c-19.333 0 -35.666 -6.66699 -48.999 -20s-20 -29.666 -20 -48.999c0 -18.667 6.83301 -34.667 20.5 -48s29.834 -20 48.501 -20c62 0 114.833 20.167 158.5 60.5s65.5 89.5 65.5 147.5l-1 65c0 16.667 5.83301 30.834 17.5 42.501s25.5 17.5 41.5 17.5
c19.333 0 35.833 6.5 49.5 19.5s20.5 28.833 20.5 47.5z" />
    <glyph glyph-name="asciitilde" unicode="~" horiz-adv-x="711" 
d="M643 464c16 -18.667 24 -40.665 24 -65.998c0 -31.333 -11.667 -57 -35 -77l-46 -40c-32.667 -28.667 -70.667 -43 -114 -43s-85.333 14 -126 42l-33 23c-1.33301 0.666992 -3 1.33398 -5 2.00098c-4.66699 0.666992 -9 -0.666016 -13 -3.99902l-22 -19
c-18.667 -16 -40.334 -24 -65.001 -24c-31.333 0 -57.333 12 -78 36c-8.66699 9.33301 -15 20.666 -19 33.999c-18.667 6 -33.667 15.667 -45 29c-16.667 19.333 -25 41.666 -25 66.999c0 31.333 12 57 36 77l53 46c32.667 28 70.667 42 114 42s85.333 -13.667 126 -41
c20 -14 30.667 -21.5 32 -22.5s3 -1.83301 5 -2.5c5.33301 -0.666992 10 0.666016 14 3.99902c8.66699 8 13.667 12 15 12c18.667 16 40.334 24 65.001 24c22 0 41.833 -6.33301 59.5 -19s30.167 -29.334 37.5 -50.001c18.667 -6 33.667 -16 45 -30zM542 497.002
c-10.667 12 -24.334 18 -41.001 18c-13.333 0 -24.666 -4 -33.999 -12l-15 -13c-16.667 -13.333 -35 -18 -55 -14c-8 2 -15 5 -21 9l-34 23c-31.333 22 -64 33 -98 33c-31.333 0 -59 -10.333 -83 -31l-53 -45c-12.667 -10.667 -19 -24.334 -19 -41.001
c0 -13.333 4.33301 -25.333 13 -36c11.333 -12 25.333 -18 42 -18c12.667 0 24 4 34 12l22 19c16 14 34.333 18.667 55 14c8 -2 15 -5 21 -9l33 -23c32 -22 64.667 -33 98 -33c32 0 60 10.333 84 31l46 40c12 10.667 18 24.334 18 41.001c0 13.333 -4.33301 25 -13 35z" />
    <glyph glyph-name="section" unicode="&#xa7;" 
d="M450 330v100h100v-100h-100z" />
    <glyph glyph-name="dieresis" unicode="&#xa8;" 
d="M736 685c0 -28.667 -10.5 -53.167 -31.5 -73.5s-46.5 -30.5 -76.5 -30.5c-42.667 0 -74.334 18.667 -95.001 56c-20 -37.333 -51.667 -56 -95 -56c-48.667 0 -82 22.333 -100 67c-20.667 7.33301 -37.667 19.833 -51 37.5s-20 37.834 -20 60.501
c0 28.667 10.5 53.167 31.5 73.5s46.167 30.5 75.5 30.5c43.333 0 75 -18.667 95 -56c20.667 37.333 52.334 56 95.001 56c49.333 0 83 -22.333 101 -67c20.667 -7.33301 37.667 -19.833 51 -37.5s20 -37.834 20 -60.501zM622 746c0 14.667 -5.66699 27.334 -17 38.001
s-25 16 -41 16s-29.667 -5.33301 -41 -16s-17 -23.334 -17 -38.001c0 -15.333 5.66699 -28.333 17 -39s25 -16 41 -16s29.667 5.33301 41 16s17 23.667 17 39zM433 746c0 14.667 -5.83398 27.334 -17.501 38.001s-25.5 16 -41.5 16c-15.333 0 -28.666 -5.33301 -39.999 -16
s-17 -23.334 -17 -38.001c0 -15.333 5.5 -28.333 16.5 -39s24.5 -16 40.5 -16s29.833 5.33301 41.5 16s17.5 23.667 17.5 39z" />
    <glyph glyph-name="degree" unicode="&#xb0;" 
d="M450 330v100h100v-100h-100z" />
    <glyph glyph-name="plusminus" unicode="&#xb1;" 
d="M881 99c0 -28 -9.83398 -51.999 -29.501 -71.999s-43.5 -30 -71.5 -30h-484c-22 0 -41.667 6.33301 -59 19s-29.666 29 -36.999 49c-20 6.66699 -36.5 19 -49.5 37s-19.5 38 -19.5 60c0 28 9.83301 52 29.5 72s43.5 30 71.5 30h149c-10.667 17.333 -16 36 -16 56v6h-69
c-22 0 -41.667 6.5 -59 19.5s-29.666 29.5 -36.999 49.5c-20 6.66699 -36.5 18.834 -49.5 36.501s-19.5 37.834 -19.5 60.501c0 28 9.83301 52 29.5 72s43.5 30 71.5 30h133v69c0 30 10.667 55.667 32 77s47 32 77 32c22.667 0 43.334 -6.66699 62.001 -20
s32 -30.333 40 -51c21.333 -8 38.5 -21.167 51.5 -39.5s19.5 -39.166 19.5 -62.499v-5h69c22 0 41.667 -6.5 59 -19.5s29.666 -29.5 36.999 -49.5c20 -6.66699 36.5 -18.834 49.5 -36.501s19.5 -37.834 19.5 -60.501c0 -28 -9.83301 -52 -29.5 -72s-43.5 -30 -71.5 -30h-133
v-62h69c22 0 41.667 -6.33301 59 -19s29.666 -29.334 36.999 -50.001c20 -6.66699 36.5 -18.834 49.5 -36.501s19.5 -37.5 19.5 -59.5zM768.999 492.001c0 14.667 -5.16699 27.167 -15.5 37.5s-22.833 15.5 -37.5 15.5h-181v118c0 16.667 -6 30.834 -18 42.501
s-26.333 17.5 -43 17.5s-31 -5.83301 -43 -17.5s-18 -25.834 -18 -42.501v-118h-181c-14.667 0 -27.167 -5.16699 -37.5 -15.5s-15.5 -22.833 -15.5 -37.5s5.16699 -27.334 15.5 -38.001s22.833 -16 37.5 -16h181v-118c0 -16.667 5.83301 -30.834 17.5 -42.501
s26.167 -17.5 43.5 -17.5c16.667 0 31 5.83301 43 17.5s18 25.834 18 42.501v118h181c14.667 0 27.167 5.33301 37.5 16s15.5 23.334 15.5 38.001zM768.999 162.001c0 14.667 -5.16699 27.334 -15.5 38.001s-22.833 16 -37.5 16h-484c-14.667 0 -27.167 -5.33301 -37.5 -16
s-15.5 -23.334 -15.5 -38.001s5.16699 -27.334 15.5 -38.001s22.833 -16 37.5 -16h484c14.667 0 27.167 5.33301 37.5 16s15.5 23.334 15.5 38.001z" />
    <glyph glyph-name="acute" unicode="&#xb4;" 
d="M610 635l-79.999 -130.998c-13.333 -28 -36.333 -42 -69 -42c-13.333 0 -26 3 -38 9c-23.333 11.333 -38.333 29.333 -45 54c-18.667 4 -34.334 13.333 -47.001 28s-19 31.667 -19 51c0 11.333 2.33301 22 7 32l53 144c16 32.667 43.333 49 82 49c20.667 0 40 -6 58 -18
s30.333 -28 37 -48c20.667 -6.66699 37.5 -18.334 50.5 -35.001s19.5 -35.334 19.5 -56.001c0 -12.667 -3 -25 -9 -37zM500.001 714.002c2.66699 5.33301 4 11.333 4 18c0 12.667 -5 23.667 -15 33s-21.333 14 -34 14c-18.667 0 -32 -8 -40 -24l-50 -137
c-2 -4 -3 -8.33301 -3 -13c0 -8.66699 3.33301 -16.167 10 -22.5s14.334 -9.5 23.001 -9.5c13.333 0 22.666 5.33301 27.999 16z" />
    <glyph glyph-name="paragraph" unicode="&#xb6;" 
d="M100 779h800v-799h-800v799zM820 113v530l-265 -265zM498 434l265 265h-529zM180 640v-524l262 262zM237 60h523l-262 261z" />
    <glyph glyph-name="multiply" unicode="&#xd7;" 
d="M789 258c21.333 -21.333 32 -47.333 32 -78s-10.833 -56.834 -32.5 -78.501s-47.834 -32.5 -78.501 -32.5c-30 0 -56 10.667 -78 32l-97 93l-91 -91c-20 -20.667 -44.333 -31 -73 -31c-47.333 0 -79.333 22.333 -96 67c-16 5.33301 -29.667 13.333 -41 24
c-20 20.667 -30 45.334 -30 74.001c0 28 10 52 30 72l93 93l-95 95c-21.333 21.333 -32 47.333 -32 78s10.833 56.834 32.5 78.501s47.834 32.5 78.501 32.5c30 0 56 -10.667 78 -32l96 -93l92 91c20 20 44.333 30 73 30c46.667 0 78.667 -22 96 -66
c16 -5.33301 29.667 -13.333 41 -24c20 -20.667 30 -45.334 30 -74.001s-10 -53 -30 -73l-93 -93zM690 283l-129.999 129.998l128 128c10.667 10 16 22.667 16 38c0 14.667 -5.33301 27.334 -16 38.001s-23.334 16 -38.001 16c-15.333 0 -28 -5.33301 -38 -16l-128 -128
l-130 130c-12 12 -26.333 18 -43 18c-17.333 0 -32 -6 -44 -18s-18 -26.667 -18 -44c0 -16.667 6 -31 18 -43l130 -130l-128 -128c-10.667 -10 -16 -22.333 -16 -37c0 -15.333 5.33301 -28.166 16 -38.499s23.667 -15.5 39 -15.5c14.667 0 27 5 37 15l128 128l130 -130
c12 -12 26.333 -18 43 -18s31.167 6 43.5 18s18.5 26.667 18.5 44c0 16.667 -6 31 -18 43z" />
    <glyph glyph-name="divide" unicode="&#xf7;" 
d="M813 455c-20 44.667 -54.332 67 -102.999 67h-52c3.33301 12.667 5 25 5 37c0 26 -7 49.667 -21 71s-32.667 37 -56 47c-24 47.333 -62.333 71 -115 71c-35.333 0 -65.5 -12.5 -90.5 -37.5s-37.5 -55.167 -37.5 -90.5c0 -39.333 15 -72 45 -98h-157
c-30.667 0 -56.834 -10.833 -78.501 -32.5s-32.5 -48.167 -32.5 -79.5c0 -24 6.66699 -45.5 20 -64.5s31 -32.5 53 -40.5c19.333 -45.333 53.333 -68 102 -68h54c-4 -12.667 -6 -25.667 -6 -39c0 -25.333 7.16699 -48.666 21.5 -69.999s32.833 -37 55.5 -47
c24 -47.333 62.333 -71 115 -71c35.333 0 65.5 12.5 90.5 37.5s37.5 55.167 37.5 90.5c0 40.667 -15.667 73.667 -47 99h158c30.667 0 57 11 79 33s33 48.667 33 80c0 23.333 -6.83301 44.666 -20.5 63.999s-31.167 33 -52.5 41zM471.001 698c22 0 40.667 -7.66699 56 -23
s23 -33.666 23 -54.999c0 -22 -7.66699 -40.5 -23 -55.5s-34 -22.5 -56 -22.5c-21.333 0 -39.833 7.5 -55.5 22.5s-23.5 33.5 -23.5 55.5c0 21.333 7.83301 39.666 23.5 54.999s34.167 23 55.5 23zM471.001 120c-21.333 0 -39.833 7.66699 -55.5 23
s-23.5 33.666 -23.5 54.999s7.83301 39.833 23.5 55.5s34.167 23.5 55.5 23.5c22 0 40.667 -7.83301 56 -23.5s23 -34.167 23 -55.5s-7.66699 -39.666 -23 -54.999s-34 -23 -56 -23zM710.001 347h-479c-16.667 0 -31.167 6.16699 -43.5 18.5s-18.5 27.166 -18.5 44.499
s6.16699 32.166 18.5 44.499s26.833 18.5 43.5 18.5h479c17.333 0 32 -6.16699 44 -18.5s18 -27.166 18 -44.499s-6 -32.166 -18 -44.499s-26.667 -18.5 -44 -18.5z" />
    <glyph glyph-name="Alpha" unicode="&#x391;" 
d="M100 779h800v-799h-800v799zM820 113v530l-265 -265zM498 434l265 265h-529zM180 640v-524l262 262zM237 60h523l-262 261z" />
    <glyph glyph-name="Beta" unicode="&#x392;" 
d="M100 779h800v-799h-800v799zM820 113v530l-265 -265zM498 434l265 265h-529zM180 640v-524l262 262zM237 60h523l-262 261z" />
    <glyph glyph-name="Gamma" unicode="&#x393;" 
d="M100 779h800v-799h-800v799zM820 113v530l-265 -265zM498 434l265 265h-529zM180 640v-524l262 262zM237 60h523l-262 261z" />
    <glyph glyph-name="Delta" unicode="&#x394;" 
d="M100 779h800v-799h-800v799zM820 113v530l-265 -265zM498 434l265 265h-529zM180 640v-524l262 262zM237 60h523l-262 261z" />
    <glyph glyph-name="Epsilon" unicode="&#x395;" 
d="M100 779h800v-799h-800v799zM820 113v530l-265 -265zM498 434l265 265h-529zM180 640v-524l262 262zM237 60h523l-262 261z" />
    <glyph glyph-name="Zeta" unicode="&#x396;" 
d="M100 779h800v-799h-800v799zM820 113v530l-265 -265zM498 434l265 265h-529zM180 640v-524l262 262zM237 60h523l-262 261z" />
    <glyph glyph-name="Eta" unicode="&#x397;" 
d="M100 779h800v-799h-800v799zM820 113v530l-265 -265zM498 434l265 265h-529zM180 640v-524l262 262zM237 60h523l-262 261z" />
    <glyph glyph-name="Theta" unicode="&#x398;" 
d="M100 779h800v-799h-800v799zM820 113v530l-265 -265zM498 434l265 265h-529zM180 640v-524l262 262zM237 60h523l-262 261z" />
    <glyph glyph-name="Iota" unicode="&#x399;" 
d="M100 779h800v-799h-800v799zM820 113v530l-265 -265zM498 434l265 265h-529zM180 640v-524l262 262zM237 60h523l-262 261z" />
    <glyph glyph-name="Kappa" unicode="&#x39a;" 
d="M100 779h800v-799h-800v799zM820 113v530l-265 -265zM498 434l265 265h-529zM180 640v-524l262 262zM237 60h523l-262 261z" />
    <glyph glyph-name="Lambda" unicode="&#x39b;" 
d="M100 779h800v-799h-800v799zM820 113v530l-265 -265zM498 434l265 265h-529zM180 640v-524l262 262zM237 60h523l-262 261z" />
    <glyph glyph-name="Mu" unicode="&#x39c;" 
d="M100 779h800v-799h-800v799zM820 113v530l-265 -265zM498 434l265 265h-529zM180 640v-524l262 262zM237 60h523l-262 261z" />
    <glyph glyph-name="Nu" unicode="&#x39d;" 
d="M100 779h800v-799h-800v799zM820 113v530l-265 -265zM498 434l265 265h-529zM180 640v-524l262 262zM237 60h523l-262 261z" />
    <glyph glyph-name="Xi" unicode="&#x39e;" 
d="M100 779h800v-799h-800v799zM820 113v530l-265 -265zM498 434l265 265h-529zM180 640v-524l262 262zM237 60h523l-262 261z" />
    <glyph glyph-name="Omicron" unicode="&#x39f;" 
d="M100 779h800v-799h-800v799zM820 113v530l-265 -265zM498 434l265 265h-529zM180 640v-524l262 262zM237 60h523l-262 261z" />
    <glyph glyph-name="Pi" unicode="&#x3a0;" 
d="M100 779h800v-799h-800v799zM820 113v530l-265 -265zM498 434l265 265h-529zM180 640v-524l262 262zM237 60h523l-262 261z" />
    <glyph glyph-name="Rho" unicode="&#x3a1;" 
d="M100 779h800v-799h-800v799zM820 113v530l-265 -265zM498 434l265 265h-529zM180 640v-524l262 262zM237 60h523l-262 261z" />
    <glyph glyph-name="Sigma" unicode="&#x3a3;" 
d="M100 779h800v-799h-800v799zM820 113v530l-265 -265zM498 434l265 265h-529zM180 640v-524l262 262zM237 60h523l-262 261z" />
    <glyph glyph-name="Tau" unicode="&#x3a4;" 
d="M100 779h800v-799h-800v799zM820 113v530l-265 -265zM498 434l265 265h-529zM180 640v-524l262 262zM237 60h523l-262 261z" />
    <glyph glyph-name="Upsilon" unicode="&#x3a5;" 
d="M100 779h800v-799h-800v799zM820 113v530l-265 -265zM498 434l265 265h-529zM180 640v-524l262 262zM237 60h523l-262 261z" />
    <glyph glyph-name="Phi" unicode="&#x3a6;" 
d="M100 779h800v-799h-800v799zM820 113v530l-265 -265zM498 434l265 265h-529zM180 640v-524l262 262zM237 60h523l-262 261z" />
    <glyph glyph-name="Chi" unicode="&#x3a7;" 
d="M100 779h800v-799h-800v799zM820 113v530l-265 -265zM498 434l265 265h-529zM180 640v-524l262 262zM237 60h523l-262 261z" />
    <glyph glyph-name="Psi" unicode="&#x3a8;" 
d="M100 779h800v-799h-800v799zM820 113v530l-265 -265zM498 434l265 265h-529zM180 640v-524l262 262zM237 60h523l-262 261z" />
    <glyph glyph-name="Omega" unicode="&#x3a9;" 
d="M100 779h800v-799h-800v799zM820 113v530l-265 -265zM498 434l265 265h-529zM180 640v-524l262 262zM237 60h523l-262 261z" />
    <glyph glyph-name="alpha" unicode="&#x3b1;" 
d="M100 779h800v-799h-800v799zM820 113v530l-265 -265zM498 434l265 265h-529zM180 640v-524l262 262zM237 60h523l-262 261z" />
    <glyph glyph-name="beta" unicode="&#x3b2;" 
d="M100 779h800v-799h-800v799zM820 113v530l-265 -265zM498 434l265 265h-529zM180 640v-524l262 262zM237 60h523l-262 261z" />
    <glyph glyph-name="gamma" unicode="&#x3b3;" 
d="M100 779h800v-799h-800v799zM820 113v530l-265 -265zM498 434l265 265h-529zM180 640v-524l262 262zM237 60h523l-262 261z" />
    <glyph glyph-name="delta" unicode="&#x3b4;" 
d="M100 779h800v-799h-800v799zM820 113v530l-265 -265zM498 434l265 265h-529zM180 640v-524l262 262zM237 60h523l-262 261z" />
    <glyph glyph-name="epsilon" unicode="&#x3b5;" 
d="M100 779h800v-799h-800v799zM820 113v530l-265 -265zM498 434l265 265h-529zM180 640v-524l262 262zM237 60h523l-262 261z" />
    <glyph glyph-name="zeta" unicode="&#x3b6;" 
d="M100 779h800v-799h-800v799zM820 113v530l-265 -265zM498 434l265 265h-529zM180 640v-524l262 262zM237 60h523l-262 261z" />
    <glyph glyph-name="eta" unicode="&#x3b7;" 
d="M100 779h800v-799h-800v799zM820 113v530l-265 -265zM498 434l265 265h-529zM180 640v-524l262 262zM237 60h523l-262 261z" />
    <glyph glyph-name="theta" unicode="&#x3b8;" 
d="M100 779h800v-799h-800v799zM820 113v530l-265 -265zM498 434l265 265h-529zM180 640v-524l262 262zM237 60h523l-262 261z" />
    <glyph glyph-name="iota" unicode="&#x3b9;" 
d="M100 779h800v-799h-800v799zM820 113v530l-265 -265zM498 434l265 265h-529zM180 640v-524l262 262zM237 60h523l-262 261z" />
    <glyph glyph-name="kappa" unicode="&#x3ba;" 
d="M100 779h800v-799h-800v799zM820 113v530l-265 -265zM498 434l265 265h-529zM180 640v-524l262 262zM237 60h523l-262 261z" />
    <glyph glyph-name="lambda" unicode="&#x3bb;" 
d="M100 779h800v-799h-800v799zM820 113v530l-265 -265zM498 434l265 265h-529zM180 640v-524l262 262zM237 60h523l-262 261z" />
    <glyph glyph-name="mu" unicode="&#x3bc;" 
d="M100 779h800v-799h-800v799zM820 113v530l-265 -265zM498 434l265 265h-529zM180 640v-524l262 262zM237 60h523l-262 261z" />
    <glyph glyph-name="nu" unicode="&#x3bd;" 
d="M100 779h800v-799h-800v799zM820 113v530l-265 -265zM498 434l265 265h-529zM180 640v-524l262 262zM237 60h523l-262 261z" />
    <glyph glyph-name="xi" unicode="&#x3be;" 
d="M100 779h800v-799h-800v799zM820 113v530l-265 -265zM498 434l265 265h-529zM180 640v-524l262 262zM237 60h523l-262 261z" />
    <glyph glyph-name="omicron" unicode="&#x3bf;" 
d="M100 779h800v-799h-800v799zM820 113v530l-265 -265zM498 434l265 265h-529zM180 640v-524l262 262zM237 60h523l-262 261z" />
    <glyph glyph-name="pi" unicode="&#x3c0;" 
d="M100 779h800v-799h-800v799zM820 113v530l-265 -265zM498 434l265 265h-529zM180 640v-524l262 262zM237 60h523l-262 261z" />
    <glyph glyph-name="rho" unicode="&#x3c1;" 
d="M100 779h800v-799h-800v799zM820 113v530l-265 -265zM498 434l265 265h-529zM180 640v-524l262 262zM237 60h523l-262 261z" />
    <glyph glyph-name="sigma" unicode="&#x3c3;" 
d="M100 779h800v-799h-800v799zM820 113v530l-265 -265zM498 434l265 265h-529zM180 640v-524l262 262zM237 60h523l-262 261z" />
    <glyph glyph-name="tau" unicode="&#x3c4;" 
d="M100 779h800v-799h-800v799zM820 113v530l-265 -265zM498 434l265 265h-529zM180 640v-524l262 262zM237 60h523l-262 261z" />
    <glyph glyph-name="upsilon" unicode="&#x3c5;" 
d="M100 779h800v-799h-800v799zM820 113v530l-265 -265zM498 434l265 265h-529zM180 640v-524l262 262zM237 60h523l-262 261z" />
    <glyph glyph-name="phi" unicode="&#x3c6;" 
d="M100 779h800v-799h-800v799zM820 113v530l-265 -265zM498 434l265 265h-529zM180 640v-524l262 262zM237 60h523l-262 261z" />
    <glyph glyph-name="chi" unicode="&#x3c7;" 
d="M100 779h800v-799h-800v799zM820 113v530l-265 -265zM498 434l265 265h-529zM180 640v-524l262 262zM237 60h523l-262 261z" />
    <glyph glyph-name="psi" unicode="&#x3c8;" 
d="M100 779h800v-799h-800v799zM820 113v530l-265 -265zM498 434l265 265h-529zM180 640v-524l262 262zM237 60h523l-262 261z" />
    <glyph glyph-name="omega" unicode="&#x3c9;" 
d="M100 779h800v-799h-800v799zM820 113v530l-265 -265zM498 434l265 265h-529zM180 640v-524l262 262zM237 60h523l-262 261z" />
    <glyph glyph-name="afii10023" unicode="&#x401;" 
d="M100 779h800v-799h-800v799zM820 113v530l-265 -265zM498 434l265 265h-529zM180 640v-524l262 262zM237 60h523l-262 261z" />
    <glyph glyph-name="afii10017" unicode="&#x410;" 
d="M100 779h800v-799h-800v799zM820 113v530l-265 -265zM498 434l265 265h-529zM180 640v-524l262 262zM237 60h523l-262 261z" />
    <glyph glyph-name="afii10018" unicode="&#x411;" 
d="M100 779h800v-799h-800v799zM820 113v530l-265 -265zM498 434l265 265h-529zM180 640v-524l262 262zM237 60h523l-262 261z" />
    <glyph glyph-name="afii10019" unicode="&#x412;" 
d="M100 779h800v-799h-800v799zM820 113v530l-265 -265zM498 434l265 265h-529zM180 640v-524l262 262zM237 60h523l-262 261z" />
    <glyph glyph-name="afii10020" unicode="&#x413;" 
d="M100 779h800v-799h-800v799zM820 113v530l-265 -265zM498 434l265 265h-529zM180 640v-524l262 262zM237 60h523l-262 261z" />
    <glyph glyph-name="afii10021" unicode="&#x414;" 
d="M100 779h800v-799h-800v799zM820 113v530l-265 -265zM498 434l265 265h-529zM180 640v-524l262 262zM237 60h523l-262 261z" />
    <glyph glyph-name="afii10022" unicode="&#x415;" 
d="M100 779h800v-799h-800v799zM820 113v530l-265 -265zM498 434l265 265h-529zM180 640v-524l262 262zM237 60h523l-262 261z" />
    <glyph glyph-name="afii10024" unicode="&#x416;" 
d="M100 779h800v-799h-800v799zM820 113v530l-265 -265zM498 434l265 265h-529zM180 640v-524l262 262zM237 60h523l-262 261z" />
    <glyph glyph-name="afii10025" unicode="&#x417;" 
d="M100 779h800v-799h-800v799zM820 113v530l-265 -265zM498 434l265 265h-529zM180 640v-524l262 262zM237 60h523l-262 261z" />
    <glyph glyph-name="afii10026" unicode="&#x418;" 
d="M100 779h800v-799h-800v799zM820 113v530l-265 -265zM498 434l265 265h-529zM180 640v-524l262 262zM237 60h523l-262 261z" />
    <glyph glyph-name="afii10027" unicode="&#x419;" 
d="M100 779h800v-799h-800v799zM820 113v530l-265 -265zM498 434l265 265h-529zM180 640v-524l262 262zM237 60h523l-262 261z" />
    <glyph glyph-name="afii10028" unicode="&#x41a;" 
d="M100 779h800v-799h-800v799zM820 113v530l-265 -265zM498 434l265 265h-529zM180 640v-524l262 262zM237 60h523l-262 261z" />
    <glyph glyph-name="afii10029" unicode="&#x41b;" 
d="M100 779h800v-799h-800v799zM820 113v530l-265 -265zM498 434l265 265h-529zM180 640v-524l262 262zM237 60h523l-262 261z" />
    <glyph glyph-name="afii10030" unicode="&#x41c;" 
d="M100 779h800v-799h-800v799zM820 113v530l-265 -265zM498 434l265 265h-529zM180 640v-524l262 262zM237 60h523l-262 261z" />
    <glyph glyph-name="afii10031" unicode="&#x41d;" 
d="M100 779h800v-799h-800v799zM820 113v530l-265 -265zM498 434l265 265h-529zM180 640v-524l262 262zM237 60h523l-262 261z" />
    <glyph glyph-name="afii10032" unicode="&#x41e;" 
d="M100 779h800v-799h-800v799zM820 113v530l-265 -265zM498 434l265 265h-529zM180 640v-524l262 262zM237 60h523l-262 261z" />
    <glyph glyph-name="afii10033" unicode="&#x41f;" 
d="M100 779h800v-799h-800v799zM820 113v530l-265 -265zM498 434l265 265h-529zM180 640v-524l262 262zM237 60h523l-262 261z" />
    <glyph glyph-name="afii10034" unicode="&#x420;" 
d="M100 779h800v-799h-800v799zM820 113v530l-265 -265zM498 434l265 265h-529zM180 640v-524l262 262zM237 60h523l-262 261z" />
    <glyph glyph-name="afii10035" unicode="&#x421;" 
d="M100 779h800v-799h-800v799zM820 113v530l-265 -265zM498 434l265 265h-529zM180 640v-524l262 262zM237 60h523l-262 261z" />
    <glyph glyph-name="afii10036" unicode="&#x422;" 
d="M100 779h800v-799h-800v799zM820 113v530l-265 -265zM498 434l265 265h-529zM180 640v-524l262 262zM237 60h523l-262 261z" />
    <glyph glyph-name="afii10037" unicode="&#x423;" 
d="M100 779h800v-799h-800v799zM820 113v530l-265 -265zM498 434l265 265h-529zM180 640v-524l262 262zM237 60h523l-262 261z" />
    <glyph glyph-name="afii10038" unicode="&#x424;" 
d="M100 779h800v-799h-800v799zM820 113v530l-265 -265zM498 434l265 265h-529zM180 640v-524l262 262zM237 60h523l-262 261z" />
    <glyph glyph-name="afii10039" unicode="&#x425;" 
d="M100 779h800v-799h-800v799zM820 113v530l-265 -265zM498 434l265 265h-529zM180 640v-524l262 262zM237 60h523l-262 261z" />
    <glyph glyph-name="afii10040" unicode="&#x426;" 
d="M100 779h800v-799h-800v799zM820 113v530l-265 -265zM498 434l265 265h-529zM180 640v-524l262 262zM237 60h523l-262 261z" />
    <glyph glyph-name="afii10041" unicode="&#x427;" 
d="M100 779h800v-799h-800v799zM820 113v530l-265 -265zM498 434l265 265h-529zM180 640v-524l262 262zM237 60h523l-262 261z" />
    <glyph glyph-name="afii10042" unicode="&#x428;" 
d="M100 779h800v-799h-800v799zM820 113v530l-265 -265zM498 434l265 265h-529zM180 640v-524l262 262zM237 60h523l-262 261z" />
    <glyph glyph-name="afii10043" unicode="&#x429;" 
d="M100 779h800v-799h-800v799zM820 113v530l-265 -265zM498 434l265 265h-529zM180 640v-524l262 262zM237 60h523l-262 261z" />
    <glyph glyph-name="afii10044" unicode="&#x42a;" 
d="M100 779h800v-799h-800v799zM820 113v530l-265 -265zM498 434l265 265h-529zM180 640v-524l262 262zM237 60h523l-262 261z" />
    <glyph glyph-name="afii10045" unicode="&#x42b;" 
d="M100 779h800v-799h-800v799zM820 113v530l-265 -265zM498 434l265 265h-529zM180 640v-524l262 262zM237 60h523l-262 261z" />
    <glyph glyph-name="afii10046" unicode="&#x42c;" 
d="M100 779h800v-799h-800v799zM820 113v530l-265 -265zM498 434l265 265h-529zM180 640v-524l262 262zM237 60h523l-262 261z" />
    <glyph glyph-name="afii10047" unicode="&#x42d;" 
d="M100 779h800v-799h-800v799zM820 113v530l-265 -265zM498 434l265 265h-529zM180 640v-524l262 262zM237 60h523l-262 261z" />
    <glyph glyph-name="afii10048" unicode="&#x42e;" 
d="M100 779h800v-799h-800v799zM820 113v530l-265 -265zM498 434l265 265h-529zM180 640v-524l262 262zM237 60h523l-262 261z" />
    <glyph glyph-name="afii10049" unicode="&#x42f;" 
d="M100 779h800v-799h-800v799zM820 113v530l-265 -265zM498 434l265 265h-529zM180 640v-524l262 262zM237 60h523l-262 261z" />
    <glyph glyph-name="afii10065" unicode="&#x430;" 
d="M100 779h800v-799h-800v799zM820 113v530l-265 -265zM498 434l265 265h-529zM180 640v-524l262 262zM237 60h523l-262 261z" />
    <glyph glyph-name="afii10066" unicode="&#x431;" 
d="M100 779h800v-799h-800v799zM820 113v530l-265 -265zM498 434l265 265h-529zM180 640v-524l262 262zM237 60h523l-262 261z" />
    <glyph glyph-name="afii10067" unicode="&#x432;" 
d="M100 779h800v-799h-800v799zM820 113v530l-265 -265zM498 434l265 265h-529zM180 640v-524l262 262zM237 60h523l-262 261z" />
    <glyph glyph-name="afii10068" unicode="&#x433;" 
d="M100 779h800v-799h-800v799zM820 113v530l-265 -265zM498 434l265 265h-529zM180 640v-524l262 262zM237 60h523l-262 261z" />
    <glyph glyph-name="afii10069" unicode="&#x434;" 
d="M100 779h800v-799h-800v799zM820 113v530l-265 -265zM498 434l265 265h-529zM180 640v-524l262 262zM237 60h523l-262 261z" />
    <glyph glyph-name="afii10070" unicode="&#x435;" 
d="M100 779h800v-799h-800v799zM820 113v530l-265 -265zM498 434l265 265h-529zM180 640v-524l262 262zM237 60h523l-262 261z" />
    <glyph glyph-name="afii10072" unicode="&#x436;" 
d="M100 779h800v-799h-800v799zM820 113v530l-265 -265zM498 434l265 265h-529zM180 640v-524l262 262zM237 60h523l-262 261z" />
    <glyph glyph-name="afii10073" unicode="&#x437;" 
d="M100 779h800v-799h-800v799zM820 113v530l-265 -265zM498 434l265 265h-529zM180 640v-524l262 262zM237 60h523l-262 261z" />
    <glyph glyph-name="afii10074" unicode="&#x438;" 
d="M100 779h800v-799h-800v799zM820 113v530l-265 -265zM498 434l265 265h-529zM180 640v-524l262 262zM237 60h523l-262 261z" />
    <glyph glyph-name="afii10075" unicode="&#x439;" 
d="M100 779h800v-799h-800v799zM820 113v530l-265 -265zM498 434l265 265h-529zM180 640v-524l262 262zM237 60h523l-262 261z" />
    <glyph glyph-name="afii10076" unicode="&#x43a;" 
d="M100 779h800v-799h-800v799zM820 113v530l-265 -265zM498 434l265 265h-529zM180 640v-524l262 262zM237 60h523l-262 261z" />
    <glyph glyph-name="afii10077" unicode="&#x43b;" 
d="M100 779h800v-799h-800v799zM820 113v530l-265 -265zM498 434l265 265h-529zM180 640v-524l262 262zM237 60h523l-262 261z" />
    <glyph glyph-name="afii10078" unicode="&#x43c;" 
d="M100 779h800v-799h-800v799zM820 113v530l-265 -265zM498 434l265 265h-529zM180 640v-524l262 262zM237 60h523l-262 261z" />
    <glyph glyph-name="afii10079" unicode="&#x43d;" 
d="M100 779h800v-799h-800v799zM820 113v530l-265 -265zM498 434l265 265h-529zM180 640v-524l262 262zM237 60h523l-262 261z" />
    <glyph glyph-name="afii10080" unicode="&#x43e;" 
d="M100 779h800v-799h-800v799zM820 113v530l-265 -265zM498 434l265 265h-529zM180 640v-524l262 262zM237 60h523l-262 261z" />
    <glyph glyph-name="afii10081" unicode="&#x43f;" 
d="M100 779h800v-799h-800v799zM820 113v530l-265 -265zM498 434l265 265h-529zM180 640v-524l262 262zM237 60h523l-262 261z" />
    <glyph glyph-name="afii10082" unicode="&#x440;" 
d="M100 779h800v-799h-800v799zM820 113v530l-265 -265zM498 434l265 265h-529zM180 640v-524l262 262zM237 60h523l-262 261z" />
    <glyph glyph-name="afii10083" unicode="&#x441;" 
d="M100 779h800v-799h-800v799zM820 113v530l-265 -265zM498 434l265 265h-529zM180 640v-524l262 262zM237 60h523l-262 261z" />
    <glyph glyph-name="afii10084" unicode="&#x442;" 
d="M100 779h800v-799h-800v799zM820 113v530l-265 -265zM498 434l265 265h-529zM180 640v-524l262 262zM237 60h523l-262 261z" />
    <glyph glyph-name="afii10085" unicode="&#x443;" 
d="M100 779h800v-799h-800v799zM820 113v530l-265 -265zM498 434l265 265h-529zM180 640v-524l262 262zM237 60h523l-262 261z" />
    <glyph glyph-name="afii10086" unicode="&#x444;" 
d="M100 779h800v-799h-800v799zM820 113v530l-265 -265zM498 434l265 265h-529zM180 640v-524l262 262zM237 60h523l-262 261z" />
    <glyph glyph-name="afii10087" unicode="&#x445;" 
d="M100 779h800v-799h-800v799zM820 113v530l-265 -265zM498 434l265 265h-529zM180 640v-524l262 262zM237 60h523l-262 261z" />
    <glyph glyph-name="afii10088" unicode="&#x446;" 
d="M100 779h800v-799h-800v799zM820 113v530l-265 -265zM498 434l265 265h-529zM180 640v-524l262 262zM237 60h523l-262 261z" />
    <glyph glyph-name="afii10089" unicode="&#x447;" 
d="M100 779h800v-799h-800v799zM820 113v530l-265 -265zM498 434l265 265h-529zM180 640v-524l262 262zM237 60h523l-262 261z" />
    <glyph glyph-name="afii10090" unicode="&#x448;" 
d="M100 779h800v-799h-800v799zM820 113v530l-265 -265zM498 434l265 265h-529zM180 640v-524l262 262zM237 60h523l-262 261z" />
    <glyph glyph-name="afii10091" unicode="&#x449;" 
d="M100 779h800v-799h-800v799zM820 113v530l-265 -265zM498 434l265 265h-529zM180 640v-524l262 262zM237 60h523l-262 261z" />
    <glyph glyph-name="afii10092" unicode="&#x44a;" 
d="M100 779h800v-799h-800v799zM820 113v530l-265 -265zM498 434l265 265h-529zM180 640v-524l262 262zM237 60h523l-262 261z" />
    <glyph glyph-name="afii10093" unicode="&#x44b;" 
d="M100 779h800v-799h-800v799zM820 113v530l-265 -265zM498 434l265 265h-529zM180 640v-524l262 262zM237 60h523l-262 261z" />
    <glyph glyph-name="afii10094" unicode="&#x44c;" 
d="M100 779h800v-799h-800v799zM820 113v530l-265 -265zM498 434l265 265h-529zM180 640v-524l262 262zM237 60h523l-262 261z" />
    <glyph glyph-name="afii10095" unicode="&#x44d;" 
d="M100 779h800v-799h-800v799zM820 113v530l-265 -265zM498 434l265 265h-529zM180 640v-524l262 262zM237 60h523l-262 261z" />
    <glyph glyph-name="afii10096" unicode="&#x44e;" 
d="M100 779h800v-799h-800v799zM820 113v530l-265 -265zM498 434l265 265h-529zM180 640v-524l262 262zM237 60h523l-262 261z" />
    <glyph glyph-name="afii10097" unicode="&#x44f;" 
d="M100 779h800v-799h-800v799zM820 113v530l-265 -265zM498 434l265 265h-529zM180 640v-524l262 262zM237 60h523l-262 261z" />
    <glyph glyph-name="afii10071" unicode="&#x451;" 
d="M100 779h800v-799h-800v799zM820 113v530l-265 -265zM498 434l265 265h-529zM180 640v-524l262 262zM237 60h523l-262 261z" />
    <glyph glyph-name="uni2010" unicode="&#x2010;" 
d="M822 347c0 -33.333 -11.8301 -61.666 -35.4971 -84.999s-51.834 -35 -84.501 -35h-346c-50.667 0 -86.667 23 -108 69c-22.667 8.66699 -40.834 23.167 -54.501 43.5s-20.5 42.833 -20.5 67.5c0 33.333 11.667 61.666 35 84.999s51.666 35 84.999 35h345
c50.667 0 87 -23 109 -69c22 -9.33301 40 -24 54 -44s21 -42.333 21 -67zM708.003 407c0 19.333 -6.83301 35.833 -20.5 49.5s-30.167 20.5 -49.5 20.5h-345c-20 0 -36.833 -6.83301 -50.5 -20.5s-20.5 -30.167 -20.5 -49.5s6.83301 -35.833 20.5 -49.5
s30.5 -20.5 50.5 -20.5h345c19.333 0 35.833 6.83301 49.5 20.5s20.5 30.167 20.5 49.5z" />
    <glyph glyph-name="afii00208" unicode="&#x2015;" 
d="M450 330v100h100v-100h-100z" />
    <glyph glyph-name="quoteleft" unicode="&#x2018;" 
d="M655 714c6 -17.333 5.33496 -36 -1.99805 -56l-52 -140c-10.667 -22.667 -28 -38 -52 -46c-24.667 -8.66699 -49.334 -7 -74.001 5s-41.334 31.333 -50.001 58c-31.333 10 -52.333 30.333 -63 61c-8 23.333 -6.66699 46.333 4 69l1 2l78 125c16.667 26.667 40 40 70 40
c19.333 0 36.333 -6.16699 51 -18.5s24 -27.833 28 -46.5c30.667 -6 51 -23.667 61 -53zM654.002 660l-2 -5l1 3zM445.002 793v-1l-2 -3zM545.002 740c2 4 2.99902 8.00098 2.99902 12.001c0 9.33301 -3.5 17.166 -10.5 23.499s-14.833 9.5 -23.5 9.5
c-13.333 0 -22.666 -5.66699 -27.999 -17l-77 -124c-2.66699 -6 -4 -12 -4 -18c0 -13.333 5 -24.5 15 -33.5s21.333 -13.5 34 -13.5c18.667 0 32 7.66699 40 23z" />
    <glyph glyph-name="quoteright" unicode="&#x2019;" 
d="M623 640l-78.999 -131.001c-14 -28 -37.333 -42 -70 -42c-12.667 0 -25.334 3 -38.001 9c-23.333 11.333 -38 29.333 -44 54c-19.333 4 -35.333 13.5 -48 28.5s-19 31.833 -19 50.5c0 11.333 2.33301 22 7 32l53 144c16 32.667 43.333 49 82 49c20.667 0 40 -6 58 -18
s30.667 -28 38 -48c20 -6.66699 36.5 -18.167 49.5 -34.5s19.5 -35.166 19.5 -56.499c0 -12.667 -3 -25 -9 -37zM513.001 718.999c2.66699 5.33301 4 11.333 4 18c0 12.667 -4.83301 23.667 -14.5 33s-21.167 14 -34.5 14c-18.667 0 -32 -8 -40 -24l-50 -137
c-2 -4 -3 -8.33301 -3 -13c0 -8.66699 3.33301 -16.167 10 -22.5s14.667 -9.5 24 -9.5c12.667 0 21.667 5.33301 27 16z" />
    <glyph glyph-name="quotedblleft" unicode="&#x201c;" 
d="M714 714c6 -17.333 5.3291 -36 -2.00391 -56l-52 -140c-11.333 -22.667 -28.666 -38 -51.999 -46c-41.333 -14 -76.333 -4 -105 30c-11.333 -14 -25.333 -24 -42 -30c-25.333 -8.66699 -50.166 -7 -74.499 5s-40.833 31.333 -49.5 58c-31.333 10 -52.333 30.333 -63 61
c-8 23.333 -6.66699 46.333 4 69l1 2l77 125c16.667 26.667 40.334 40 71.001 40c33.333 0 57.333 -15.333 72 -46l4 6c16.667 26.667 40.334 40 71.001 40c19.333 0 36.333 -6.16699 51 -18.5s24 -27.833 28 -46.5c30.667 -6 51 -23.667 61 -53zM711.996 660l-2 -5l2 3v2z
M503.996 793l-1 -1l-1 -3zM602.996 740c2 4 3 8.00098 3 12.001c0 9.33301 -3.33301 17.166 -10 23.499s-14.667 9.5 -24 9.5c-12.667 0 -21.667 -5.66699 -27 -17l-77 -124c-2.66699 -6 -4 -12 -4 -18c0 -13.333 4.83301 -24.5 14.5 -33.5s21.167 -13.5 34.5 -13.5
c18.667 0 32 7.66699 40 23zM456.996 740.001c1.33301 4 2 8.00098 2 12.001c0 9.33301 -3.33301 17.166 -10 23.499s-14.334 9.5 -23.001 9.5c-13.333 0 -22.666 -5.66699 -27.999 -17l-77 -124c-2.66699 -6 -4 -12 -4 -18c0 -13.333 5 -24.5 15 -33.5
s21.333 -13.5 34 -13.5c18.667 0 32 7.66699 40 23z" />
    <glyph glyph-name="quotedblright" unicode="&#x201d;" 
d="M733 640l-78.998 -131.003c-13.333 -28 -36.333 -42 -69 -42c-13.333 0 -26.333 3 -39 9c-22.667 11.333 -37.334 29 -44.001 53l-12 -20c-13.333 -28 -36.333 -42 -69 -42c-13.333 0 -26 3 -38 9c-23.333 11.333 -38.333 29.333 -45 54
c-18.667 4.66699 -34.334 14.334 -47.001 29.001s-19 31.334 -19 50.001c0 11.333 2.33301 22 7 32l53 144c16 32.667 43.333 49 82 49c35.333 0 63.333 -14.667 84 -44c16.667 29.333 43 44 79 44c20.667 0 40 -6 58 -18s30.667 -28 38 -48
c20 -6.66699 36.5 -18.167 49.5 -34.5s19.5 -35.166 19.5 -56.499c0 -12.667 -3 -25 -9 -37zM623.002 718.997c3.33301 5.33301 5 11.333 5 18c0 12.667 -5 23.667 -15 33s-21.667 14 -35 14c-18.667 0 -31.667 -8 -39 -24l-51 -137c-2 -4 -3 -8.33301 -3 -13
c0 -8.66699 3.5 -16.167 10.5 -22.5s14.833 -9.5 23.5 -9.5c12.667 0 21.667 5.33301 27 16zM460.002 718.997c2.66699 5.33301 4 11.333 4 18c0 12.667 -5 23.667 -15 33s-21.333 14 -34 14c-18.667 0 -32 -8 -40 -24l-50 -137c-2 -4 -3 -8.33301 -3 -13
c0 -8.66699 3.33301 -16.167 10 -22.5s14.667 -9.5 24 -9.5c12.667 0 21.667 5.33301 27 16z" />
    <glyph glyph-name="dagger" unicode="&#x2020;" 
d="M100 779h800v-799h-800v799zM820 113v530l-265 -265zM498 434l265 265h-529zM180 640v-524l262 262zM237 60h523l-262 261z" />
    <glyph glyph-name="daggerdbl" unicode="&#x2021;" 
d="M100 779h800v-799h-800v799zM820 113v530l-265 -265zM498 434l265 265h-529zM180 640v-524l262 262zM237 60h523l-262 261z" />
    <glyph glyph-name="twodotenleader" unicode="&#x2025;" 
d="M838 326c0 -28.667 -10.5 -53.333 -31.5 -74s-46.167 -31 -75.5 -31c-49.333 0 -82.666 22.333 -99.999 67c-21.333 7.33301 -38.666 20 -51.999 38s-20 38 -20 60c0 28.667 10.667 53.167 32 73.5s46.666 30.5 75.999 30.5c49.333 0 82.666 -22 99.999 -66
c21.333 -7.33301 38.5 -20 51.5 -38s19.5 -38 19.5 -60zM432 326.001c0 -28.667 -10.5 -53.333 -31.5 -74s-46.5 -31 -76.5 -31c-48.667 0 -82 22.333 -100 67c-21.333 7.33301 -38.5 20 -51.5 38s-19.5 38 -19.5 60c0 28.667 10.5 53.167 31.5 73.5s46.167 30.5 75.5 30.5
c49.333 0 83 -22 101 -66c20.667 -7.33301 37.667 -20 51 -38s20 -38 20 -60zM725 386.002c0 15.333 -5.66699 28.333 -17 39s-25 16 -41 16s-29.667 -5.33301 -41 -16s-17 -23.667 -17 -39c0 -14.667 5.66699 -27.5 17 -38.5s25 -16.5 41 -16.5s29.667 5.5 41 16.5
s17 23.833 17 38.5zM318 386.002c0 15.333 -5.66699 28.333 -17 39s-25 16 -41 16s-29.667 -5.33301 -41 -16s-17 -23.667 -17 -39c0 -14.667 5.66699 -27.5 17 -38.5s25 -16.5 41 -16.5s29.667 5.5 41 16.5s17 23.833 17 38.5z" />
    <glyph glyph-name="ellipsis" unicode="&#x2026;" 
d="M919 326c0 -28.667 -10.5 -53.333 -31.5 -74s-46.5 -31 -76.5 -31c-48.667 0 -82 22.333 -100 67c-20.667 7.33301 -37.667 20 -51 38s-20 38 -20 60c0 28.667 10.5 53.167 31.5 73.5s46.5 30.5 76.5 30.5c48.667 0 82 -22 100 -66c20.667 -7.33301 37.667 -20 51 -38
s20 -38 20 -60zM641 326.001c0 -28.667 -10.501 -53.333 -31.501 -74s-46.167 -31 -75.5 -31c-49.333 0 -82.666 22.333 -99.999 67c-21.333 7.33301 -38.666 20 -51.999 38s-20 38 -20 60c0 28.667 10.5 53.167 31.5 73.5s46.5 30.5 76.5 30.5
c49.333 0 82.666 -22 99.999 -66c21.333 -7.33301 38.5 -20 51.5 -38s19.5 -38 19.5 -60zM363.999 326.002c0 -28.667 -10.5 -53.333 -31.5 -74s-46.5 -31 -76.5 -31c-48.667 0 -82 22.333 -100 67c-21.333 7.33301 -38.5 20 -51.5 38s-19.5 38 -19.5 60
c0 28.667 10.5 53.167 31.5 73.5s46.167 30.5 75.5 30.5c49.333 0 83 -22 101 -66c20.667 -7.33301 37.667 -20 51 -38s20 -38 20 -60zM805.999 386.003c0 15.333 -5.83301 28.333 -17.5 39s-25.167 16 -40.5 16c-16 0 -29.667 -5.33301 -41 -16s-17 -23.667 -17 -39
c0 -14.667 5.66699 -27.5 17 -38.5s25 -16.5 41 -16.5c15.333 0 28.833 5.5 40.5 16.5s17.5 23.833 17.5 38.5zM527.999 386.003c0 15.333 -5.66699 28.333 -17 39s-25 16 -41 16s-29.667 -5.33301 -41 -16s-17 -23.667 -17 -39c0 -14.667 5.66699 -27.5 17 -38.5
s25 -16.5 41 -16.5s29.667 5.5 41 16.5s17 23.833 17 38.5zM249.999 386.003c0 15.333 -5.66699 28.333 -17 39s-25 16 -41 16s-29.667 -5.33301 -41 -16s-17 -23.667 -17 -39c0 -14.667 5.66699 -27.5 17 -38.5s25 -16.5 41 -16.5s29.667 5.5 41 16.5s17 23.833 17 38.5z
" />
    <glyph glyph-name="perthousand" unicode="&#x2030;" 
d="M100 779h800v-799h-800v799zM820 113v530l-265 -265zM498 434l265 265h-529zM180 640v-524l262 262zM237 60h523l-262 261z" />
    <glyph glyph-name="minute" unicode="&#x2032;" 
d="M456 635l-79.999 -130.998c-13.333 -28 -36.333 -42 -69 -42c-13.333 0 -26 3 -38 9c-23.333 11.333 -38.333 29.333 -45 54c-18.667 4 -34.334 13.333 -47.001 28s-19 31.667 -19 51c0 11.333 2.33301 22 7 32l53 144c16 32.667 43.333 49 82 49c20.667 0 40 -6 58 -18
s30.333 -28 37 -48c20.667 -6.66699 37.5 -18.334 50.5 -35.001s19.5 -35.334 19.5 -56.001c0 -12.667 -3 -25 -9 -37zM346.001 714.002c2.66699 5.33301 4 11.333 4 18c0 12.667 -5 23.667 -15 33s-21.333 14 -34 14c-18.667 0 -32 -8 -40 -24l-50 -137
c-2 -4 -3 -8.33301 -3 -13c0 -8.66699 3.33301 -16.167 10 -22.5s14.667 -9.5 24 -9.5c12.667 0 21.667 5.33301 27 16z" />
    <glyph glyph-name="second" unicode="&#x2033;" 
d="M553 635l-80 -130.999c-13.333 -28 -36.333 -42 -69 -42c-35.333 0 -61 16 -77 48l-4 -6c-13.333 -28 -36.333 -42 -69 -42c-13.333 0 -26 3 -38 9c-23.333 11.333 -38 29.333 -44 54c-19.333 4 -35.333 13.333 -48 28s-19 31.667 -19 51c0 11.333 2.33301 22 7 32
l53 144c16 32.667 43.333 49 82 49c30.667 0 56.334 -11.667 77.001 -35c17.333 23.333 41.666 35 72.999 35c20.667 0 40 -6.16699 58 -18.5s30.333 -28.166 37 -47.499c20.667 -6.66699 37.5 -18.334 50.5 -35.001s19.5 -35.334 19.5 -56.001c0 -12.667 -3 -25 -9 -37z
M443 714.001c2.66699 5.33301 4 11.333 4 18c0 12.667 -4.83301 23.667 -14.5 33s-21.167 14 -34.5 14c-18.667 0 -32 -8 -40 -24l-50 -137c-2 -4 -3 -8.33301 -3 -13c0 -8.66699 3.33301 -16.167 10 -22.5s14.667 -9.5 24 -9.5c12.667 0 21.667 5.33301 27 16zM293 714.001
c2.66699 5.33301 4 11.333 4 18c0 12.667 -4.83301 23.667 -14.5 33s-21.167 14 -34.5 14c-18.667 0 -32 -8 -40 -24l-50 -137c-2 -4 -3 -8.33301 -3 -13c0 -8.66699 3.33301 -16.167 10 -22.5s14.667 -9.5 24 -9.5c12.667 0 21.667 5.33301 27 16z" />
    <glyph glyph-name="uni203B" unicode="&#x203b;" 
d="M100 779h800v-799h-800v799zM820 113v530l-265 -265zM498 434l265 265h-529zM180 640v-524l262 262zM237 60h523l-262 261z" />
    <glyph glyph-name="uni2103" unicode="&#x2103;" 
d="M891 164c0 -19.333 -4.33203 -37.335 -12.999 -54.002c-49.333 -100 -136 -150 -260 -150c-103.333 0 -183 38.333 -239 115c-92 64.667 -138 178.334 -138 341.001c0 22.667 1 44.667 3 66c-38.667 11.333 -67.334 35.333 -86.001 72
c-53.333 26.667 -80 69.334 -80 128.001c0 40 14 74 42 102s62 42 102 42c58 0 100.333 -26 127 -78c4 -2 9 -5 15 -9c52.667 46.667 117 70 193 70c102.667 0 180 -36.333 232 -109c39.333 -27.333 69.666 -64.666 90.999 -111.999c7.33301 -16 11 -32.333 11 -49
c0 -52.667 -23.667 -89.667 -71 -111c-16 -7.33301 -32.667 -11 -50 -11c-51.333 0 -88 23.333 -110 70l-2 3c-11.333 5.33301 -21.333 11.666 -30 18.999c-2.66699 0.666992 -5 1 -7 1c-47.333 0 -71 -53 -71 -159c0 -38 3 -69.333 9 -94c14 0 24 3.66699 30 11
c2.66699 2.66699 5.33398 6.66699 8.00098 12c22 45.333 58.333 68 109 68c53.333 0 90.333 -24.333 111 -73c49.333 -21.333 74 -58.333 74 -111zM661.001 484.998l-2 4l1 -2zM756.001 661.998c-42 66 -108.331 98.999 -198.998 98.999c-90 0 -159 -36.333 -207 -109
c-40.667 -62 -61 -140.667 -61 -236c0 -99.333 19 -178.666 57 -237.999c45.333 -70.667 114.666 -106 207.999 -106c104 0 176.333 41 217 123c5.33301 10 8 20.667 8 32c0 30 -13.667 51.667 -41 65c-10 5.33301 -20.667 8 -32 8c-30.667 0 -52.667 -13.667 -66 -41
c-16 -34 -43.667 -51 -83 -51c-79.333 0 -119 69 -119 207c0 137.333 39.667 206 119 206c39.333 0 66.666 -16.333 81.999 -49c14 -29.333 36.333 -44 67 -44c10.667 0 20.667 2.33301 30 7c28.667 12.667 43 34.667 43 66c0 16.667 -7.66699 37 -23 61zM317.003 681.997
c0 26.667 -9.33301 49.334 -28 68.001s-41 28 -67 28c-26.667 0 -49.334 -9.33301 -68.001 -28s-28 -41.334 -28 -68.001c0 -26 9.33301 -48.333 28 -67s41.334 -28 68.001 -28c26 0 48.333 9.33301 67 28s28 41 28 67zM263.003 681.997c0 -11.333 -4 -21 -12 -29
s-17.667 -12 -29 -12c-12 0 -22 4 -30 12s-12 17.667 -12 29c0 12 4 22 12 30s18 12 30 12c11.333 0 21 -4 29 -12s12 -18 12 -30z" />
    <glyph glyph-name="afii61352" unicode="&#x2116;" 
d="M100 779h800v-799h-800v799zM820 113v530l-265 -265zM498 434l265 265h-529zM180 640v-524l262 262zM237 60h523l-262 261z" />
    <glyph glyph-name="uni2121" unicode="&#x2121;" 
d="M100 779h800v-799h-800v799zM820 113v530l-265 -265zM498 434l265 265h-529zM180 640v-524l262 262zM237 60h523l-262 261z" />
    <glyph glyph-name="uni212B" unicode="&#x212b;" 
d="M100 779h800v-799h-800v799zM820 113v530l-265 -265zM498 434l265 265h-529zM180 640v-524l262 262zM237 60h523l-262 261z" />
    <glyph glyph-name="uni2160" unicode="&#x2160;" 
d="M100 779h800v-799h-800v799zM820 113v530l-265 -265zM498 434l265 265h-529zM180 640v-524l262 262zM237 60h523l-262 261z" />
    <glyph glyph-name="uni2161" unicode="&#x2161;" 
d="M100 779h800v-799h-800v799zM820 113v530l-265 -265zM498 434l265 265h-529zM180 640v-524l262 262zM237 60h523l-262 261z" />
    <glyph glyph-name="uni2162" unicode="&#x2162;" 
d="M100 779h800v-799h-800v799zM820 113v530l-265 -265zM498 434l265 265h-529zM180 640v-524l262 262zM237 60h523l-262 261z" />
    <glyph glyph-name="uni2163" unicode="&#x2163;" 
d="M100 779h800v-799h-800v799zM820 113v530l-265 -265zM498 434l265 265h-529zM180 640v-524l262 262zM237 60h523l-262 261z" />
    <glyph glyph-name="uni2164" unicode="&#x2164;" 
d="M100 779h800v-799h-800v799zM820 113v530l-265 -265zM498 434l265 265h-529zM180 640v-524l262 262zM237 60h523l-262 261z" />
    <glyph glyph-name="uni2165" unicode="&#x2165;" 
d="M100 779h800v-799h-800v799zM820 113v530l-265 -265zM498 434l265 265h-529zM180 640v-524l262 262zM237 60h523l-262 261z" />
    <glyph glyph-name="uni2166" unicode="&#x2166;" 
d="M100 779h800v-799h-800v799zM820 113v530l-265 -265zM498 434l265 265h-529zM180 640v-524l262 262zM237 60h523l-262 261z" />
    <glyph glyph-name="uni2167" unicode="&#x2167;" 
d="M100 779h800v-799h-800v799zM820 113v530l-265 -265zM498 434l265 265h-529zM180 640v-524l262 262zM237 60h523l-262 261z" />
    <glyph glyph-name="uni2168" unicode="&#x2168;" 
d="M100 779h800v-799h-800v799zM820 113v530l-265 -265zM498 434l265 265h-529zM180 640v-524l262 262zM237 60h523l-262 261z" />
    <glyph glyph-name="uni2169" unicode="&#x2169;" 
d="M100 779h800v-799h-800v799zM820 113v530l-265 -265zM498 434l265 265h-529zM180 640v-524l262 262zM237 60h523l-262 261z" />
    <glyph glyph-name="uni2170" unicode="&#x2170;" 
d="M100 779h800v-799h-800v799zM820 113v530l-265 -265zM498 434l265 265h-529zM180 640v-524l262 262zM237 60h523l-262 261z" />
    <glyph glyph-name="uni2171" unicode="&#x2171;" 
d="M100 779h800v-799h-800v799zM820 113v530l-265 -265zM498 434l265 265h-529zM180 640v-524l262 262zM237 60h523l-262 261z" />
    <glyph glyph-name="uni2172" unicode="&#x2172;" 
d="M100 779h800v-799h-800v799zM820 113v530l-265 -265zM498 434l265 265h-529zM180 640v-524l262 262zM237 60h523l-262 261z" />
    <glyph glyph-name="uni2173" unicode="&#x2173;" 
d="M100 779h800v-799h-800v799zM820 113v530l-265 -265zM498 434l265 265h-529zM180 640v-524l262 262zM237 60h523l-262 261z" />
    <glyph glyph-name="uni2174" unicode="&#x2174;" 
d="M100 779h800v-799h-800v799zM820 113v530l-265 -265zM498 434l265 265h-529zM180 640v-524l262 262zM237 60h523l-262 261z" />
    <glyph glyph-name="uni2175" unicode="&#x2175;" 
d="M100 779h800v-799h-800v799zM820 113v530l-265 -265zM498 434l265 265h-529zM180 640v-524l262 262zM237 60h523l-262 261z" />
    <glyph glyph-name="uni2176" unicode="&#x2176;" 
d="M100 779h800v-799h-800v799zM820 113v530l-265 -265zM498 434l265 265h-529zM180 640v-524l262 262zM237 60h523l-262 261z" />
    <glyph glyph-name="uni2177" unicode="&#x2177;" 
d="M100 779h800v-799h-800v799zM820 113v530l-265 -265zM498 434l265 265h-529zM180 640v-524l262 262zM237 60h523l-262 261z" />
    <glyph glyph-name="uni2178" unicode="&#x2178;" 
d="M100 779h800v-799h-800v799zM820 113v530l-265 -265zM498 434l265 265h-529zM180 640v-524l262 262zM237 60h523l-262 261z" />
    <glyph glyph-name="uni2179" unicode="&#x2179;" 
d="M100 779h800v-799h-800v799zM820 113v530l-265 -265zM498 434l265 265h-529zM180 640v-524l262 262zM237 60h523l-262 261z" />
    <glyph glyph-name="arrowleft" unicode="&#x2190;" 
d="M100 779h800v-799h-800v799zM820 113v530l-265 -265zM498 434l265 265h-529zM180 640v-524l262 262zM237 60h523l-262 261z" />
    <glyph glyph-name="arrowup" unicode="&#x2191;" 
d="M100 779h800v-799h-800v799zM820 113v530l-265 -265zM498 434l265 265h-529zM180 640v-524l262 262zM237 60h523l-262 261z" />
    <glyph glyph-name="arrowright" unicode="&#x2192;" 
d="M100 779h800v-799h-800v799zM820 113v530l-265 -265zM498 434l265 265h-529zM180 640v-524l262 262zM237 60h523l-262 261z" />
    <glyph glyph-name="arrowdown" unicode="&#x2193;" 
d="M100 779h800v-799h-800v799zM820 113v530l-265 -265zM498 434l265 265h-529zM180 640v-524l262 262zM237 60h523l-262 261z" />
    <glyph glyph-name="arrowdblright" unicode="&#x21d2;" 
d="M100 779h800v-799h-800v799zM820 113v530l-265 -265zM498 434l265 265h-529zM180 640v-524l262 262zM237 60h523l-262 261z" />
    <glyph glyph-name="arrowdblboth" unicode="&#x21d4;" 
d="M100 779h800v-799h-800v799zM820 113v530l-265 -265zM498 434l265 265h-529zM180 640v-524l262 262zM237 60h523l-262 261z" />
    <glyph glyph-name="universal" unicode="&#x2200;" 
d="M100 779h800v-799h-800v799zM820 113v530l-265 -265zM498 434l265 265h-529zM180 640v-524l262 262zM237 60h523l-262 261z" />
    <glyph glyph-name="partialdiff" unicode="&#x2202;" 
d="M100 779h800v-799h-800v799zM820 113v530l-265 -265zM498 434l265 265h-529zM180 640v-524l262 262zM237 60h523l-262 261z" />
    <glyph glyph-name="existential" unicode="&#x2203;" 
d="M100 779h800v-799h-800v799zM820 113v530l-265 -265zM498 434l265 265h-529zM180 640v-524l262 262zM237 60h523l-262 261z" />
    <glyph glyph-name="gradient" unicode="&#x2207;" 
d="M100 779h800v-799h-800v799zM820 113v530l-265 -265zM498 434l265 265h-529zM180 640v-524l262 262zM237 60h523l-262 261z" />
    <glyph glyph-name="element" unicode="&#x2208;" 
d="M100 779h800v-799h-800v799zM820 113v530l-265 -265zM498 434l265 265h-529zM180 640v-524l262 262zM237 60h523l-262 261z" />
    <glyph glyph-name="suchthat" unicode="&#x220b;" 
d="M100 779h800v-799h-800v799zM820 113v530l-265 -265zM498 434l265 265h-529zM180 640v-524l262 262zM237 60h523l-262 261z" />
    <glyph glyph-name="summation" unicode="&#x2211;" 
d="M100 779h800v-799h-800v799zM820 113v530l-265 -265zM498 434l265 265h-529zM180 640v-524l262 262zM237 60h523l-262 261z" />
    <glyph glyph-name="radical" unicode="&#x221a;" 
d="M100 779h800v-799h-800v799zM820 113v530l-265 -265zM498 434l265 265h-529zM180 640v-524l262 262zM237 60h523l-262 261z" />
    <glyph glyph-name="proportional" unicode="&#x221d;" 
d="M100 779h800v-799h-800v799zM820 113v530l-265 -265zM498 434l265 265h-529zM180 640v-524l262 262zM237 60h523l-262 261z" />
    <glyph glyph-name="infinity" unicode="&#x221e;" 
d="M450 330v100h100v-100h-100z" />
    <glyph glyph-name="orthogonal" unicode="&#x221f;" 
d="M100 779h800v-799h-800v799zM820 113v530l-265 -265zM498 434l265 265h-529zM180 640v-524l262 262zM237 60h523l-262 261z" />
    <glyph glyph-name="angle" unicode="&#x2220;" 
d="M100 779h800v-799h-800v799zM820 113v530l-265 -265zM498 434l265 265h-529zM180 640v-524l262 262zM237 60h523l-262 261z" />
    <glyph glyph-name="uni2225" unicode="&#x2225;" 
d="M450 330v100h100v-100h-100z" />
    <glyph glyph-name="logicaland" unicode="&#x2227;" 
d="M100 779h800v-799h-800v799zM820 113v530l-265 -265zM498 434l265 265h-529zM180 640v-524l262 262zM237 60h523l-262 261z" />
    <glyph glyph-name="logicalor" unicode="&#x2228;" 
d="M100 779h800v-799h-800v799zM820 113v530l-265 -265zM498 434l265 265h-529zM180 640v-524l262 262zM237 60h523l-262 261z" />
    <glyph glyph-name="intersection" unicode="&#x2229;" 
d="M100 779h800v-799h-800v799zM820 113v530l-265 -265zM498 434l265 265h-529zM180 640v-524l262 262zM237 60h523l-262 261z" />
    <glyph glyph-name="union" unicode="&#x222a;" 
d="M100 779h800v-799h-800v799zM820 113v530l-265 -265zM498 434l265 265h-529zM180 640v-524l262 262zM237 60h523l-262 261z" />
    <glyph glyph-name="integral" unicode="&#x222b;" 
d="M100 779h800v-799h-800v799zM820 113v530l-265 -265zM498 434l265 265h-529zM180 640v-524l262 262zM237 60h523l-262 261z" />
    <glyph glyph-name="uni222C" unicode="&#x222c;" 
d="M100 779h800v-799h-800v799zM820 113v530l-265 -265zM498 434l265 265h-529zM180 640v-524l262 262zM237 60h523l-262 261z" />
    <glyph glyph-name="uni222E" unicode="&#x222e;" 
d="M100 779h800v-799h-800v799zM820 113v530l-265 -265zM498 434l265 265h-529zM180 640v-524l262 262zM237 60h523l-262 261z" />
    <glyph glyph-name="therefore" unicode="&#x2234;" 
d="M450 330v100h100v-100h-100z" />
    <glyph glyph-name="uni2235" unicode="&#x2235;" 
d="M100 779h800v-799h-800v799zM820 113v530l-265 -265zM498 434l265 265h-529zM180 640v-524l262 262zM237 60h523l-262 261z" />
    <glyph glyph-name="uni223D" unicode="&#x223d;" 
d="M100 779h800v-799h-800v799zM820 113v530l-265 -265zM498 434l265 265h-529zM180 640v-524l262 262zM237 60h523l-262 261z" />
    <glyph glyph-name="uni2252" unicode="&#x2252;" 
d="M100 779h800v-799h-800v799zM820 113v530l-265 -265zM498 434l265 265h-529zM180 640v-524l262 262zM237 60h523l-262 261z" />
    <glyph glyph-name="notequal" unicode="&#x2260;" 
d="M450 330v100h100v-100h-100z" />
    <glyph glyph-name="equivalence" unicode="&#x2261;" 
d="M100 779h800v-799h-800v799zM820 113v530l-265 -265zM498 434l265 265h-529zM180 640v-524l262 262zM237 60h523l-262 261z" />
    <glyph glyph-name="uni2266" unicode="&#x2266;" 
d="M854 104c0 -25.333 -9 -46.9961 -27 -64.9961s-39.667 -27 -65 -27h-470c-44 0 -73 20.667 -87 62c-20 5.33301 -36.5 16.333 -49.5 33s-19.5 35.667 -19.5 57c0 20.667 6.33301 39.334 19 56.001c-12.667 16.667 -19 35.334 -19 56.001c0 25.333 9 47 27 65
s39.667 27 65 27h99l-67 24c-27.333 9.33301 -47 28.666 -59 57.999l-5 1c-20.667 7.33301 -37.167 20 -49.5 38s-18.5 38 -18.5 60s6.33301 42.167 19 60.5s29.334 31.166 50.001 38.499l437 151c24.667 9.33301 49.167 8.16602 73.5 -3.50098
s41.166 -29.834 50.499 -54.501c21.333 -6 38.5 -17.667 51.5 -35s19.5 -37 19.5 -59c0 -20.667 -6.16699 -39.667 -18.5 -57s-28.5 -29.333 -48.5 -36l-140 -45l77 -25c28 -8.66699 47.667 -27.667 59 -57l6 -2c19.333 -6 35 -17.833 47 -35.5s18 -36.5 18 -56.5
c0 -14.667 -3.66699 -29.334 -11 -44.001c24 -18 36 -42 36 -72c0 -20.667 -6.66699 -39.334 -20 -56.001c13.333 -16.667 20 -35.667 20 -57zM717 392.004c0 24.667 -11.333 40.334 -34 47.001l-323 104c-3.33301 0.666992 -5 2.66699 -5 6s1.66699 5.33301 5 6l323 104
c22.667 7.33301 33.667 23 33 47c0 14 -4.66699 26 -14 36s-21 15 -35 15c-6 0 -11.667 -1 -17 -3l-437 -152c-24.667 -8 -37 -25.667 -37 -53c0 -26.667 12.333 -44.334 37 -53.001l437 -151c5.33301 -2 11 -3 17 -3c13.333 0 25 4.83301 35 14.5s15 21.5 15 35.5z
M741 276.004c0 12.667 -4.16699 23.167 -12.5 31.5s-18.5 12.5 -30.5 12.5h-470c-12.667 0 -23.167 -4.16699 -31.5 -12.5s-12.5 -18.833 -12.5 -31.5c0 -12 4.33301 -22.333 13 -31s19 -13 31 -13h470c12 0 22.167 4.33301 30.5 13s12.5 19 12.5 31zM741 164.004
c0 12 -4.16699 22.333 -12.5 31s-18.5 13 -30.5 13h-470c-12.667 0 -23.167 -4.33301 -31.5 -13s-12.5 -19 -12.5 -31s4.16699 -22.333 12.5 -31s18.833 -13 31.5 -13h470c12 0 22.167 4.33301 30.5 13s12.5 19 12.5 31z" />
    <glyph glyph-name="uni2267" unicode="&#x2267;" 
d="M854 490c0 -22 -6.33496 -42.0029 -19.002 -60.0029s-29.334 -31 -50.001 -39c-18 -6.66699 -42.333 -15 -73 -25c32.667 -8 54.334 -28 65.001 -60c20 -5.33301 36.5 -16.166 49.5 -32.499s19.5 -35.166 19.5 -56.499c0 -20.667 -6.33301 -39.334 -19 -56.001
c12.667 -16.667 19 -35.667 19 -57c0 -25.333 -8.83301 -47 -26.5 -65s-39.167 -27 -64.5 -27h-470c-44 0 -73 20.667 -87 62c-20 5.33301 -36.5 16.333 -49.5 33s-19.5 35.667 -19.5 57c0 20.667 6.33301 39.334 19 56.001c-12.667 16.667 -19 35.334 -19 56.001
c0 30 11.667 54.333 35 73c-7.33301 14 -11 28.333 -11 43c0 30 12.667 55 38 75c18.667 14.667 46.334 27.667 83.001 39l86 24l-77 25c-28 8.66699 -47.667 27.667 -59 57l-5 2c-19.333 6 -35.166 17.833 -47.499 35.5s-18.5 36.5 -18.5 56.5c0 41.333 18.667 71 56 89
c24 11.333 49 12.666 75 3.99902l438 -152c27.333 -9.33301 47.333 -28.666 60 -57.999l4 -1c20.667 -7.33301 37.167 -20 49.5 -38s18.5 -38 18.5 -60zM741.998 548.997c0 27.333 -12.333 45 -37 53l-437 152c-5.33301 2 -11 3 -17 3c-13.333 0 -24.833 -5 -34.5 -15
s-14.5 -22 -14.5 -36c0 -24 11 -39.667 33 -47l323 -104c3.33301 -0.666992 5 -2.66699 5 -6s-1.66699 -5.33301 -5 -6l-323 -104c-22 -6.66699 -33 -22.334 -33 -47.001c0 -14 4.83301 -25.833 14.5 -35.5s21.167 -14.5 34.5 -14.5c6 0 11.667 1 17 3l437 151
c24.667 8.66699 37 26.334 37 53.001zM733.998 275.997c0 12.667 -4.16699 23.167 -12.5 31.5s-18.833 12.5 -31.5 12.5h-470c-12 0 -22.167 -4.16699 -30.5 -12.5s-12.5 -18.833 -12.5 -31.5c0 -12 4.16699 -22.333 12.5 -31s18.5 -13 30.5 -13h470
c12.667 0 23.167 4.33301 31.5 13s12.5 19 12.5 31zM733.998 163.997c0 12 -4.16699 22.333 -12.5 31s-18.833 13 -31.5 13h-470c-12 0 -22.167 -4.33301 -30.5 -13s-12.5 -19 -12.5 -31s4.16699 -22.333 12.5 -31s18.5 -13 30.5 -13h470c12.667 0 23.167 4.33301 31.5 13
s12.5 19 12.5 31z" />
    <glyph glyph-name="uni226A" unicode="&#x226a;" 
d="M100 779h800v-799h-800v799zM820 113v530l-265 -265zM498 434l265 265h-529zM180 640v-524l262 262zM237 60h523l-262 261z" />
    <glyph glyph-name="uni226B" unicode="&#x226b;" 
d="M100 779h800v-799h-800v799zM820 113v530l-265 -265zM498 434l265 265h-529zM180 640v-524l262 262zM237 60h523l-262 261z" />
    <glyph glyph-name="propersubset" unicode="&#x2282;" 
d="M100 779h800v-799h-800v799zM820 113v530l-265 -265zM498 434l265 265h-529zM180 640v-524l262 262zM237 60h523l-262 261z" />
    <glyph glyph-name="propersuperset" unicode="&#x2283;" 
d="M100 779h800v-799h-800v799zM820 113v530l-265 -265zM498 434l265 265h-529zM180 640v-524l262 262zM237 60h523l-262 261z" />
    <glyph glyph-name="reflexsubset" unicode="&#x2286;" 
d="M100 779h800v-799h-800v799zM820 113v530l-265 -265zM498 434l265 265h-529zM180 640v-524l262 262zM237 60h523l-262 261z" />
    <glyph glyph-name="reflexsuperset" unicode="&#x2287;" 
d="M100 779h800v-799h-800v799zM820 113v530l-265 -265zM498 434l265 265h-529zM180 640v-524l262 262zM237 60h523l-262 261z" />
    <glyph glyph-name="perpendicular" unicode="&#x22a5;" 
d="M100 779h800v-799h-800v799zM820 113v530l-265 -265zM498 434l265 265h-529zM180 640v-524l262 262zM237 60h523l-262 261z" />
    <glyph glyph-name="uni22BF" unicode="&#x22bf;" 
d="M100 779h800v-799h-800v799zM820 113v530l-265 -265zM498 434l265 265h-529zM180 640v-524l262 262zM237 60h523l-262 261z" />
    <glyph glyph-name="uni2312" unicode="&#x2312;" 
d="M100 779h800v-799h-800v799zM820 113v530l-265 -265zM498 434l265 265h-529zM180 640v-524l262 262zM237 60h523l-262 261z" />
    <glyph glyph-name="uni2460" unicode="&#x2460;" 
d="M100 779h800v-799h-800v799zM820 113v530l-265 -265zM498 434l265 265h-529zM180 640v-524l262 262zM237 60h523l-262 261z" />
    <glyph glyph-name="uni2461" unicode="&#x2461;" 
d="M100 779h800v-799h-800v799zM820 113v530l-265 -265zM498 434l265 265h-529zM180 640v-524l262 262zM237 60h523l-262 261z" />
    <glyph glyph-name="uni2462" unicode="&#x2462;" 
d="M100 779h800v-799h-800v799zM820 113v530l-265 -265zM498 434l265 265h-529zM180 640v-524l262 262zM237 60h523l-262 261z" />
    <glyph glyph-name="uni2463" unicode="&#x2463;" 
d="M100 779h800v-799h-800v799zM820 113v530l-265 -265zM498 434l265 265h-529zM180 640v-524l262 262zM237 60h523l-262 261z" />
    <glyph glyph-name="uni2464" unicode="&#x2464;" 
d="M100 779h800v-799h-800v799zM820 113v530l-265 -265zM498 434l265 265h-529zM180 640v-524l262 262zM237 60h523l-262 261z" />
    <glyph glyph-name="uni2465" unicode="&#x2465;" 
d="M100 779h800v-799h-800v799zM820 113v530l-265 -265zM498 434l265 265h-529zM180 640v-524l262 262zM237 60h523l-262 261z" />
    <glyph glyph-name="uni2466" unicode="&#x2466;" 
d="M100 779h800v-799h-800v799zM820 113v530l-265 -265zM498 434l265 265h-529zM180 640v-524l262 262zM237 60h523l-262 261z" />
    <glyph glyph-name="uni2467" unicode="&#x2467;" 
d="M100 779h800v-799h-800v799zM820 113v530l-265 -265zM498 434l265 265h-529zM180 640v-524l262 262zM237 60h523l-262 261z" />
    <glyph glyph-name="uni2468" unicode="&#x2468;" 
d="M100 779h800v-799h-800v799zM820 113v530l-265 -265zM498 434l265 265h-529zM180 640v-524l262 262zM237 60h523l-262 261z" />
    <glyph glyph-name="uni2469" unicode="&#x2469;" 
d="M100 779h800v-799h-800v799zM820 113v530l-265 -265zM498 434l265 265h-529zM180 640v-524l262 262zM237 60h523l-262 261z" />
    <glyph glyph-name="uni246A" unicode="&#x246a;" 
d="M100 779h800v-799h-800v799zM820 113v530l-265 -265zM498 434l265 265h-529zM180 640v-524l262 262zM237 60h523l-262 261z" />
    <glyph glyph-name="uni246B" unicode="&#x246b;" 
d="M100 779h800v-799h-800v799zM820 113v530l-265 -265zM498 434l265 265h-529zM180 640v-524l262 262zM237 60h523l-262 261z" />
    <glyph glyph-name="uni246C" unicode="&#x246c;" 
d="M100 779h800v-799h-800v799zM820 113v530l-265 -265zM498 434l265 265h-529zM180 640v-524l262 262zM237 60h523l-262 261z" />
    <glyph glyph-name="uni246D" unicode="&#x246d;" 
d="M100 779h800v-799h-800v799zM820 113v530l-265 -265zM498 434l265 265h-529zM180 640v-524l262 262zM237 60h523l-262 261z" />
    <glyph glyph-name="uni246E" unicode="&#x246e;" 
d="M100 779h800v-799h-800v799zM820 113v530l-265 -265zM498 434l265 265h-529zM180 640v-524l262 262zM237 60h523l-262 261z" />
    <glyph glyph-name="uni246F" unicode="&#x246f;" 
d="M100 779h800v-799h-800v799zM820 113v530l-265 -265zM498 434l265 265h-529zM180 640v-524l262 262zM237 60h523l-262 261z" />
    <glyph glyph-name="uni2470" unicode="&#x2470;" 
d="M100 779h800v-799h-800v799zM820 113v530l-265 -265zM498 434l265 265h-529zM180 640v-524l262 262zM237 60h523l-262 261z" />
    <glyph glyph-name="uni2471" unicode="&#x2471;" 
d="M100 779h800v-799h-800v799zM820 113v530l-265 -265zM498 434l265 265h-529zM180 640v-524l262 262zM237 60h523l-262 261z" />
    <glyph glyph-name="uni2472" unicode="&#x2472;" 
d="M100 779h800v-799h-800v799zM820 113v530l-265 -265zM498 434l265 265h-529zM180 640v-524l262 262zM237 60h523l-262 261z" />
    <glyph glyph-name="uni2473" unicode="&#x2473;" 
d="M100 779h800v-799h-800v799zM820 113v530l-265 -265zM498 434l265 265h-529zM180 640v-524l262 262zM237 60h523l-262 261z" />
    <glyph glyph-name="SF100000" unicode="&#x2500;" 
d="M100 779h800v-799h-800v799zM820 113v530l-265 -265zM498 434l265 265h-529zM180 640v-524l262 262zM237 60h523l-262 261z" />
    <glyph glyph-name="uni2501" unicode="&#x2501;" 
d="M100 779h800v-799h-800v799zM820 113v530l-265 -265zM498 434l265 265h-529zM180 640v-524l262 262zM237 60h523l-262 261z" />
    <glyph glyph-name="SF110000" unicode="&#x2502;" 
d="M100 779h800v-799h-800v799zM820 113v530l-265 -265zM498 434l265 265h-529zM180 640v-524l262 262zM237 60h523l-262 261z" />
    <glyph glyph-name="uni2503" unicode="&#x2503;" 
d="M100 779h800v-799h-800v799zM820 113v530l-265 -265zM498 434l265 265h-529zM180 640v-524l262 262zM237 60h523l-262 261z" />
    <glyph glyph-name="SF010000" unicode="&#x250c;" 
d="M100 779h800v-799h-800v799zM820 113v530l-265 -265zM498 434l265 265h-529zM180 640v-524l262 262zM237 60h523l-262 261z" />
    <glyph glyph-name="uni250F" unicode="&#x250f;" 
d="M100 779h800v-799h-800v799zM820 113v530l-265 -265zM498 434l265 265h-529zM180 640v-524l262 262zM237 60h523l-262 261z" />
    <glyph glyph-name="SF030000" unicode="&#x2510;" 
d="M100 779h800v-799h-800v799zM820 113v530l-265 -265zM498 434l265 265h-529zM180 640v-524l262 262zM237 60h523l-262 261z" />
    <glyph glyph-name="uni2513" unicode="&#x2513;" 
d="M100 779h800v-799h-800v799zM820 113v530l-265 -265zM498 434l265 265h-529zM180 640v-524l262 262zM237 60h523l-262 261z" />
    <glyph glyph-name="SF020000" unicode="&#x2514;" 
d="M100 779h800v-799h-800v799zM820 113v530l-265 -265zM498 434l265 265h-529zM180 640v-524l262 262zM237 60h523l-262 261z" />
    <glyph glyph-name="uni2517" unicode="&#x2517;" 
d="M100 779h800v-799h-800v799zM820 113v530l-265 -265zM498 434l265 265h-529zM180 640v-524l262 262zM237 60h523l-262 261z" />
    <glyph glyph-name="SF040000" unicode="&#x2518;" 
d="M100 779h800v-799h-800v799zM820 113v530l-265 -265zM498 434l265 265h-529zM180 640v-524l262 262zM237 60h523l-262 261z" />
    <glyph glyph-name="uni251B" unicode="&#x251b;" 
d="M100 779h800v-799h-800v799zM820 113v530l-265 -265zM498 434l265 265h-529zM180 640v-524l262 262zM237 60h523l-262 261z" />
    <glyph glyph-name="SF080000" unicode="&#x251c;" 
d="M100 779h800v-799h-800v799zM820 113v530l-265 -265zM498 434l265 265h-529zM180 640v-524l262 262zM237 60h523l-262 261z" />
    <glyph glyph-name="uni251D" unicode="&#x251d;" 
d="M100 779h800v-799h-800v799zM820 113v530l-265 -265zM498 434l265 265h-529zM180 640v-524l262 262zM237 60h523l-262 261z" />
    <glyph glyph-name="uni2520" unicode="&#x2520;" 
d="M100 779h800v-799h-800v799zM820 113v530l-265 -265zM498 434l265 265h-529zM180 640v-524l262 262zM237 60h523l-262 261z" />
    <glyph glyph-name="uni2523" unicode="&#x2523;" 
d="M100 779h800v-799h-800v799zM820 113v530l-265 -265zM498 434l265 265h-529zM180 640v-524l262 262zM237 60h523l-262 261z" />
    <glyph glyph-name="SF090000" unicode="&#x2524;" 
d="M100 779h800v-799h-800v799zM820 113v530l-265 -265zM498 434l265 265h-529zM180 640v-524l262 262zM237 60h523l-262 261z" />
    <glyph glyph-name="uni2525" unicode="&#x2525;" 
d="M100 779h800v-799h-800v799zM820 113v530l-265 -265zM498 434l265 265h-529zM180 640v-524l262 262zM237 60h523l-262 261z" />
    <glyph glyph-name="uni2528" unicode="&#x2528;" 
d="M100 779h800v-799h-800v799zM820 113v530l-265 -265zM498 434l265 265h-529zM180 640v-524l262 262zM237 60h523l-262 261z" />
    <glyph glyph-name="uni252B" unicode="&#x252b;" 
d="M100 779h800v-799h-800v799zM820 113v530l-265 -265zM498 434l265 265h-529zM180 640v-524l262 262zM237 60h523l-262 261z" />
    <glyph glyph-name="SF060000" unicode="&#x252c;" 
d="M100 779h800v-799h-800v799zM820 113v530l-265 -265zM498 434l265 265h-529zM180 640v-524l262 262zM237 60h523l-262 261z" />
    <glyph glyph-name="uni252F" unicode="&#x252f;" 
d="M100 779h800v-799h-800v799zM820 113v530l-265 -265zM498 434l265 265h-529zM180 640v-524l262 262zM237 60h523l-262 261z" />
    <glyph glyph-name="uni2530" unicode="&#x2530;" 
d="M100 779h800v-799h-800v799zM820 113v530l-265 -265zM498 434l265 265h-529zM180 640v-524l262 262zM237 60h523l-262 261z" />
    <glyph glyph-name="uni2533" unicode="&#x2533;" 
d="M100 779h800v-799h-800v799zM820 113v530l-265 -265zM498 434l265 265h-529zM180 640v-524l262 262zM237 60h523l-262 261z" />
    <glyph glyph-name="SF070000" unicode="&#x2534;" 
d="M100 779h800v-799h-800v799zM820 113v530l-265 -265zM498 434l265 265h-529zM180 640v-524l262 262zM237 60h523l-262 261z" />
    <glyph glyph-name="uni2537" unicode="&#x2537;" 
d="M100 779h800v-799h-800v799zM820 113v530l-265 -265zM498 434l265 265h-529zM180 640v-524l262 262zM237 60h523l-262 261z" />
    <glyph glyph-name="uni2538" unicode="&#x2538;" 
d="M100 779h800v-799h-800v799zM820 113v530l-265 -265zM498 434l265 265h-529zM180 640v-524l262 262zM237 60h523l-262 261z" />
    <glyph glyph-name="uni253B" unicode="&#x253b;" 
d="M100 779h800v-799h-800v799zM820 113v530l-265 -265zM498 434l265 265h-529zM180 640v-524l262 262zM237 60h523l-262 261z" />
    <glyph glyph-name="SF050000" unicode="&#x253c;" 
d="M100 779h800v-799h-800v799zM820 113v530l-265 -265zM498 434l265 265h-529zM180 640v-524l262 262zM237 60h523l-262 261z" />
    <glyph glyph-name="uni253F" unicode="&#x253f;" 
d="M100 779h800v-799h-800v799zM820 113v530l-265 -265zM498 434l265 265h-529zM180 640v-524l262 262zM237 60h523l-262 261z" />
    <glyph glyph-name="uni2542" unicode="&#x2542;" 
d="M100 779h800v-799h-800v799zM820 113v530l-265 -265zM498 434l265 265h-529zM180 640v-524l262 262zM237 60h523l-262 261z" />
    <glyph glyph-name="uni254B" unicode="&#x254b;" 
d="M100 779h800v-799h-800v799zM820 113v530l-265 -265zM498 434l265 265h-529zM180 640v-524l262 262zM237 60h523l-262 261z" />
    <glyph glyph-name="filledbox" unicode="&#x25a0;" 
d="M100 779h800v-799h-800v799zM820 113v530l-265 -265zM498 434l265 265h-529zM180 640v-524l262 262zM237 60h523l-262 261z" />
    <glyph glyph-name="H22073" unicode="&#x25a1;" 
d="M100 779h800v-799h-800v799zM820 113v530l-265 -265zM498 434l265 265h-529zM180 640v-524l262 262zM237 60h523l-262 261z" />
    <glyph glyph-name="triagup" unicode="&#x25b2;" 
d="M100 779h800v-799h-800v799zM820 113v530l-265 -265zM498 434l265 265h-529zM180 640v-524l262 262zM237 60h523l-262 261z" />
    <glyph glyph-name="uni25B3" unicode="&#x25b3;" 
d="M100 779h800v-799h-800v799zM820 113v530l-265 -265zM498 434l265 265h-529zM180 640v-524l262 262zM237 60h523l-262 261z" />
    <glyph glyph-name="triagdn" unicode="&#x25bc;" 
d="M100 779h800v-799h-800v799zM820 113v530l-265 -265zM498 434l265 265h-529zM180 640v-524l262 262zM237 60h523l-262 261z" />
    <glyph glyph-name="uni25BD" unicode="&#x25bd;" 
d="M100 779h800v-799h-800v799zM820 113v530l-265 -265zM498 434l265 265h-529zM180 640v-524l262 262zM237 60h523l-262 261z" />
    <glyph glyph-name="uni25C6" unicode="&#x25c6;" 
d="M100 779h800v-799h-800v799zM820 113v530l-265 -265zM498 434l265 265h-529zM180 640v-524l262 262zM237 60h523l-262 261z" />
    <glyph glyph-name="uni25C7" unicode="&#x25c7;" 
d="M450 330v100h100v-100h-100z" />
    <glyph glyph-name="circle" unicode="&#x25cb;" 
d="M944 440c0 -37.333 -17.333 -68.668 -52 -94.001l-121 -89l41 -135c5.33301 -15.333 8 -30.333 8 -45c0 -37.333 -13.667 -65.666 -41 -84.999c-16 -11.333 -34 -17 -54 -17c-26 0 -51.333 9.33301 -76 28l-113 84l-119 -84c-25.333 -18.667 -51 -28 -77 -28
c-44 0 -73.333 21.333 -88 64c-46.667 12 -70 45 -70 99c0 15.333 2.33301 30.333 7 45l40 124l-53 39c-16.667 12 -29.667 26 -39 42l-25 18c-35.333 26 -53 57.333 -53 94c0 30 12 54.667 36 74c22 17.333 48.667 26 80 26h151l42 133c8 24.667 21.167 44.5 39.5 59.5
s39.166 22.5 62.499 22.5c43.333 0 75 -22 95 -66c34.667 -12 58.334 -38 71.001 -78l22 -71h107c57.333 0 94 -22.667 110 -68c46 -16 69 -46.667 69 -92zM799 445.998c21.333 16 32 34 32 54c0 14.667 -5.83301 26.667 -17.5 36s-27.834 14 -48.501 14h-188l-52 167
c-10 32 -28.333 48 -55 48s-45 -15.667 -55 -47l-53 -168h-187c-20 0 -36 -4.83301 -48 -14.5s-18 -21.5 -18 -35.5c0 -20 10.667 -38 32 -54l150 -109l-55 -169c-3.33301 -10.667 -5 -21 -5 -31c0 -34.667 15.333 -52 46 -52c14.667 0 30.334 6 47.001 18l148 106l143 -106
c16 -12 31.333 -18 46 -18c30 0 45 17.667 45 53c0 9.33301 -1.66699 19.333 -5 30l-51 169zM762 491.998l-184 -133l66 -205l-174 126l-177 -128l67 208l-182 132h225l67 204l66 -204h226z" />
    <glyph glyph-name="uni25CE" unicode="&#x25ce;" 
d="M928 350c0 -108 -38.332 -200.332 -114.999 -276.999s-169 -115 -277 -115c-120 0 -219 46.333 -297 139c-48.667 36 -86.834 81.5 -114.501 136.5s-41.5 113.833 -41.5 176.5c0 107.333 38 199.166 114 275.499s168 114.5 276 114.5c121.333 0 221.333 -46.333 300 -139
c48 -36.667 85.667 -81.667 113 -135c28 -55.333 42 -114 42 -176zM815.001 410.001c0 94 -33.332 174.333 -99.999 241s-147.334 100 -242.001 100c-94 0 -174.333 -33.333 -241 -100s-100 -147 -100 -241c0 -94.667 33.333 -175.334 100 -242.001s147 -100 241 -100
s174.5 33.333 241.5 100s100.5 147.334 100.5 242.001zM723.002 410.001c0 -68.667 -24.5 -127.667 -73.5 -177s-107.833 -74 -176.5 -74s-127.334 24.667 -176.001 74s-73 108.333 -73 177s24.333 127.334 73 176.001s107.334 73 176.001 73s127.5 -24.333 176.5 -73
s73.5 -107.334 73.5 -176.001z" />
    <glyph glyph-name="H18533" unicode="&#x25cf;" 
d="M925 350c0 -108 -38.332 -200.332 -114.999 -276.999s-169 -115 -277 -115c-120 0 -219 46.333 -297 139c-48.667 36 -87 81.5 -115 136.5s-42 113.833 -42 176.5c0 107.333 38.167 199.166 114.5 275.499s168.166 114.5 275.499 114.5
c121.333 0 221.333 -46.333 300 -139c48 -36.667 85.667 -81.667 113 -135c28.667 -55.333 43 -114 43 -176zM811.001 410.001c0 94 -33.333 174.333 -100 241s-147.334 100 -242.001 100c-94 0 -174.167 -33.333 -240.5 -100s-99.5 -147 -99.5 -241
c0 -94.667 33.167 -175.334 99.5 -242.001s146.5 -100 240.5 -100c94.667 0 175.334 33.333 242.001 100s100 147.334 100 242.001z" />
    <glyph glyph-name="uni25EF" unicode="&#x25ef;" 
d="M100 779h800v-799h-800v799zM820 113v530l-265 -265zM498 434l265 265h-529zM180 640v-524l262 262zM237 60h523l-262 261z" />
    <glyph glyph-name="uni2605" unicode="&#x2605;" 
d="M946 440c0 -37.333 -17.666 -68.668 -52.999 -94.001l-120 -89l41 -135c4.66699 -15.333 7 -30.333 7 -45c0 -37.333 -13.667 -65.666 -41 -84.999c-15.333 -11.333 -33 -17 -53 -17c-26 0 -51.333 9.33301 -76 28l-114 84l-118 -84c-25.333 -18.667 -51 -28 -77 -28
c-44 0 -73.333 21.333 -88 64c-46.667 12 -70 45 -70 99c0 15.333 2.33301 30.333 7 45l40 124l-53 39c-16.667 12 -29.667 26 -39 42l-25 18c-35.333 26 -53 57.333 -53 94c0 30 11.667 54.667 35 74c22 17.333 49 26 81 26h150l43 133c8 24.667 21.167 44.5 39.5 59.5
s39.166 22.5 62.499 22.5c43.333 0 75 -22 95 -66c34.667 -12 58 -38 70 -78l23 -71h106c58 0 95 -22.667 111 -68c46 -16 69 -46.667 69 -92zM800.001 445.998c21.333 16 32.001 33.999 32.001 53.999c0 14.667 -5.33301 26.334 -16 35.001
c-12.667 10 -29.334 15 -50.001 15h-187l-53 167c-10 32 -28.333 48 -55 48c-26 0 -44 -15.667 -54 -47l-53 -168h-187c-20.667 0 -37 -4.83301 -49 -14.5s-18 -21.5 -18 -35.5c0 -20 11 -38 33 -54l150 -109l-55 -169c-3.33301 -10.667 -5 -21 -5 -31
c0 -34.667 15 -52 45 -52c15.333 0 31.333 6 48 18l148 106l143 -106c16 -12 31.333 -18 46 -18c30 0 45 17.667 45 53c0 9.33301 -1.66699 19.333 -5 30l-52 169z" />
    <glyph glyph-name="uni2606" unicode="&#x2606;" 
d="M450 330v100h100v-100h-100z" />
    <glyph glyph-name="female" unicode="&#x2640;" 
d="M450 330v100h100v-100h-100z" />
    <glyph glyph-name="male" unicode="&#x2642;" 
d="M450 330v100h100v-100h-100z" />
    <glyph glyph-name="musicalnote" unicode="&#x266a;" 
d="M100 779h800v-799h-800v799zM820 113v530l-265 -265zM498 434l265 265h-529zM180 640v-524l262 262zM237 60h523l-262 261z" />
    <glyph glyph-name="uni266D" unicode="&#x266d;" 
d="M100 779h800v-799h-800v799zM820 113v530l-265 -265zM498 434l265 265h-529zM180 640v-524l262 262zM237 60h523l-262 261z" />
    <glyph glyph-name="uni266F" unicode="&#x266f;" 
d="M100 779h800v-799h-800v799zM820 113v530l-265 -265zM498 434l265 265h-529zM180 640v-524l262 262zM237 60h523l-262 261z" />
    <glyph glyph-name="uni3000" unicode="&#x3000;" 
 />
    <glyph glyph-name="uni3001" unicode="&#x3001;" 
d="M599 136c21.333 -21.333 32 -46.999 32 -76.999c0 -32 -11.167 -58.833 -33.5 -80.5s-48.5 -32.5 -78.5 -32.5c-31.333 0 -58.333 11.333 -81 34l-42 43c-8 5.33301 -15 11 -21 17l-123 126c-21.333 22 -32 48 -32 78c0 31.333 11.667 58 35 80
c21.333 21.333 47.333 32 78 32c31.333 0 58 -11.333 80 -34l42 -43c8 -4.66699 15.333 -10.334 22 -17.001zM500 162.001l-122.002 125c-12 12.667 -27 19 -45 19c-17.333 0 -32.166 -6 -44.499 -18s-18.5 -27 -18.5 -45c0 -16.667 6 -31 18 -43l122 -125
c12 -12.667 27 -19 45 -19c16.667 0 31.334 6 44.001 18s19 27 19 45c0 16.667 -6 31 -18 43z" />
    <glyph glyph-name="uni3002" unicode="&#x3002;" 
d="M637 123c0 -48 -17 -89 -51 -123s-75 -51 -123 -51c-66 0 -115.333 27.333 -148 82c-60 33.333 -90 84.333 -90 153c0 48 17 89 51 123s75 51 123 51c66 0 115.333 -27.333 148 -82c60 -33.333 90 -84.333 90 -153zM524 184c0 34 -12.167 63.167 -36.5 87.5
s-53.833 36.5 -88.5 36.5s-64.167 -12.167 -88.5 -36.5s-36.5 -53.5 -36.5 -87.5c0 -34.667 12.167 -64.167 36.5 -88.5s53.833 -36.5 88.5 -36.5s64.167 12.167 88.5 36.5s36.5 53.833 36.5 88.5zM459 184c0 -16.667 -5.83301 -30.834 -17.5 -42.501
s-25.834 -17.5 -42.501 -17.5s-30.834 5.83301 -42.501 17.5s-17.5 25.834 -17.5 42.501c0 16 5.83301 29.833 17.5 41.5s25.834 17.5 42.501 17.5s30.834 -5.83301 42.501 -17.5s17.5 -25.5 17.5 -41.5z" />
    <glyph glyph-name="uni3003" unicode="&#x3003;" 
d="M450 330v100h100v-100h-100z" />
    <glyph glyph-name="uni3005" unicode="&#x3005;" 
d="M450 330v100h100v-100h-100z" />
    <glyph glyph-name="uni3006" unicode="&#x3006;" 
d="M450 330v100h100v-100h-100z" />
    <glyph glyph-name="uni3007" unicode="&#x3007;" 
d="M450 330v100h100v-100h-100z" />
    <glyph glyph-name="uni3008" unicode="&#x3008;" 
d="M834 54c0 -38.667 -16 -68.667 -48 -90c-18.667 -12.667 -39.334 -19 -62.001 -19c-38 0 -68 15.333 -90 46c-4 6.66699 -9.66699 15.334 -17 26.001c-19.333 8 -35 20.667 -47 38l-197 284c-16 22.667 -24 47.667 -24 75s8 52.333 24 75l197 284c22 31.333 52 47 90 47
c22.667 0 43.334 -6.5 62.001 -19.5s32 -30.167 40 -51.5c48 -17.333 72 -51.333 72 -102c0 -22.667 -6.33301 -43.334 -19 -62.001l-164 -235l164 -235c12.667 -18 19 -38.333 19 -61zM711 152l-174 248.999c-2 4 -3 8.33301 -3 13s1 8.66699 3 12l174 250
c7.33301 10 11 21.333 11 34c0 22 -9 39 -27 51c-10.667 7.33301 -22.334 11 -35.001 11c-21.333 0 -38 -9 -50 -27l-198 -284c-10 -14 -15 -29.667 -15 -47s5 -33.333 15 -48l198 -284c12 -17.333 28.667 -26 50 -26c12.667 0 24.334 3.66699 35.001 11
c18 12 27 28.667 27 50c0 12.667 -3.66699 24.334 -11 35.001z" />
    <glyph glyph-name="uni3009" unicode="&#x3009;" 
d="M649 349c0 -27.333 -8 -52.334 -24 -75.001l-197 -283c-22 -32 -52 -48 -90 -48c-22.667 0 -43.334 6.5 -62.001 19.5s-32 30.167 -40 51.5c-48 17.333 -72 51.333 -72 102c0 22.667 6.66699 43.334 20 62.001l163 235l-164 235c-12.667 18 -19 38.333 -19 61
c0 38.667 16 68.667 48 90c18.667 12.667 39.334 19 62.001 19c38.667 0 68.667 -15.333 90 -46l17 -26c19.333 -8 35 -20.667 47 -38c122 -176 188 -270.667 198 -284c15.333 -22.667 23 -47.667 23 -75zM537 412.999c0 17.333 -5 33 -15 47l-198 284
c-12 17.333 -28.667 26 -50 26c-12.667 0 -24.334 -3.33301 -35.001 -10c-18 -12.667 -27 -29.667 -27 -51c0 -12.667 3.66699 -24 11 -34l174 -250c2.66699 -4 4 -8 4 -12c0 -4.66699 -1.33301 -9 -4 -13l-174 -250c-7.33301 -10 -11 -21.333 -11 -34
c0 -21.333 9 -38 27 -50c10.667 -7.33301 22.334 -11 35.001 -11c21.333 0 38 8.66699 50 26l198 284c10 14 15 30 15 48z" />
    <glyph glyph-name="uni300A" unicode="&#x300a;" 
d="M844 38c0 -32 -13 -57.0029 -39 -75.0029c-21.333 -14.667 -44.333 -19.667 -69 -15c-24 4.66699 -43 17 -57 37c-22.667 -31.333 -53 -43.666 -91 -36.999c-24 4.66699 -43 17.334 -57 38.001l-21 30c-18 6.66699 -32.333 17.667 -43 33l-201 290
c-15.333 22.667 -23 47.667 -23 75s7.66699 52 23 74l201 290c14 20.667 33 33.334 57 38.001c38 7.33301 68.333 -5 91 -37c14 20 33 32.333 57 37c23.333 4.66699 45 0.666992 65 -12s33.333 -30.334 40 -53.001c20 -5.33301 36.167 -16.166 48.5 -32.499
s18.5 -34.833 18.5 -55.5c0 -18.667 -5.33301 -35.667 -16 -51l-180 -262l180 -261c10.667 -15.333 16 -32.333 16 -51zM725 124.997l-191 276.001c-2.66699 4 -4 8.33301 -4 13c0 4 1.33301 8 4 12l191 277c4.66699 6.66699 7 14.667 7 24
c0 11.333 -4.16699 21.166 -12.5 29.499s-18.5 12.5 -30.5 12.5c-14.667 0 -26.334 -6 -35.001 -18l-200 -290c-10 -14 -15 -29.667 -15 -47s5 -33.333 15 -48l200 -290c8.66699 -12 20.334 -18 35.001 -18c12 0 22.167 4.16699 30.5 12.5s12.5 18.5 12.5 30.5
c0 8.66699 -2.33301 16.667 -7 24zM577 124.998l-191 276.001c-2.66699 4 -4 8.33301 -4 13c0 4 1.33301 8 4 12l191 277c4.66699 6.66699 7 14.667 7 24c0 11.333 -4.16699 21.166 -12.5 29.499s-18.5 12.5 -30.5 12.5c-14.667 0 -26.334 -6 -35.001 -18l-200 -290
c-10 -14 -15 -29.667 -15 -47s5 -33.333 15 -48l200 -290c8.66699 -12 20.334 -18 35.001 -18c12 0 22.167 4.16699 30.5 12.5s12.5 18.5 12.5 30.5c0 8.66699 -2.33301 16.667 -7 24z" />
    <glyph glyph-name="uni300B" unicode="&#x300b;" 
d="M756 350c0 -27.333 -7.66602 -51.9971 -22.999 -73.9971l-201 -290c-14 -20.667 -33.333 -33.334 -58 -38.001c-38 -6.66699 -68 5.66602 -90 36.999c-14.667 -20 -33.667 -32.333 -57 -37c-24 -4 -45.833 0.166992 -65.5 12.5s-32.834 29.833 -39.501 52.5
c-20 5.33301 -36.167 16.166 -48.5 32.499s-18.5 34.833 -18.5 55.5c0 18.667 5 35.667 15 51l181 262l-181 262c-10 14.667 -15 31.334 -15 50.001c0 32.667 13 58 39 76c20.667 14 43.667 18.667 69 14c24 -4.66699 43 -17 57 -37c22.667 32 52.667 44.333 90 37
c24.667 -4.66699 44 -17.334 58 -38.001l21 -30c18 -6 32.333 -17 43 -33l201 -290c15.333 -22.667 23 -47.667 23 -75zM644.001 414.003c0 17.333 -5 32.999 -15 46.999l-200 290c-8.66699 12 -20.334 18 -35.001 18c-12 0 -22.333 -4.16699 -31 -12.5
s-13 -18.166 -13 -29.499c0 -9.33301 2.66699 -17.333 8 -24l191 -277c2.66699 -4 4 -8 4 -12c0 -4.66699 -1.33301 -9 -4 -13l-191 -276c-5.33301 -7.33301 -8 -15.333 -8 -24c0 -12 4.33301 -22.167 13 -30.5s19 -12.5 31 -12.5c14.667 0 26.334 6 35.001 18l200 290
c10 14.667 15 30.667 15 48zM496.001 414.002c0 17.333 -5 32.999 -15 46.999l-200 290c-8.66699 12 -20.334 18 -35.001 18c-12 0 -22.167 -4.16699 -30.5 -12.5s-12.5 -18.166 -12.5 -29.499c0 -9.33301 2.33301 -17.333 7 -24l191 -277c2.66699 -4 4 -8 4 -12
c0 -4.66699 -1.33301 -9 -4 -13l-191 -276c-4.66699 -7.33301 -7 -15.333 -7 -24c0 -12 4.16699 -22.167 12.5 -30.5s18.5 -12.5 30.5 -12.5c14.667 0 26.334 6 35.001 18l200 290c10 14.667 15 30.667 15 48z" />
    <glyph glyph-name="uni300C" unicode="&#x300c;" 
d="M823 650c0 -28 -10.002 -51.8311 -30.002 -71.498s-44 -29.5 -72 -29.5h-120v-293c0 -28.667 -10.167 -53.167 -30.5 -73.5s-44.833 -30.5 -73.5 -30.5c-47.333 0 -79.666 22 -96.999 66c-20.667 7.33301 -37.667 20 -51 38s-20 38.333 -20 61v391
c0 28.667 10.167 53.167 30.5 73.5s44.833 30.5 73.5 30.5h224c46.667 0 78.334 -21.667 95.001 -65c20.667 -6.66699 37.667 -18.834 51 -36.501s20 -37.834 20 -60.501zM708.998 711.002c0 14 -5 26.167 -15 36.5s-22.333 15.5 -37 15.5h-224
c-14.667 0 -27.334 -5.33301 -38.001 -16s-16 -23.667 -16 -39v-391c0 -15.333 5.33301 -28.333 16 -39s23.334 -16 38.001 -16c15.333 0 28.333 5.33301 39 16s16 23.667 16 39v321c0 14 7 21 21 21h148c14.667 0 27 5 37 15s15 22.333 15 37z" />
    <glyph glyph-name="uni300D" unicode="&#x300d;" 
d="M654 74c0 -28.667 -10.167 -53.1689 -30.5 -73.502s-44.833 -30.5 -73.5 -30.5h-225c-46 0 -77.333 21.667 -94 65c-20.667 6.66699 -37.667 18.834 -51 36.501s-20 37.834 -20 60.501c0 28 10 51.833 30 71.5s44 29.5 72 29.5h120v293c0 28.667 10.167 53.167 30.5 73.5
s44.833 30.5 73.5 30.5c46.667 0 79 -22 97 -66c20.667 -6.66699 37.667 -19.167 51 -37.5s20 -38.833 20 -61.5v-391zM540 133.998v391.999c0 14.667 -5.33301 27.334 -16 38.001s-23.334 16 -38.001 16c-15.333 0 -28.333 -5.33301 -39 -16s-16 -23.334 -16 -38.001v-322
c0 -13.333 -7 -20 -21 -20h-148c-14.667 0 -27 -5.16699 -37 -15.5s-15 -22.5 -15 -36.5c0 -14.667 5 -27 15 -37s22.333 -15 37 -15h224c14.667 0 27.334 5.33301 38.001 16s16 23.334 16 38.001z" />
    <glyph glyph-name="uni300E" unicode="&#x300e;" 
d="M828 627c0 -34 -12 -63.167 -36 -87.5s-53 -36.5 -87 -36.5h-44v-225c0 -35.333 -12.5 -65.5 -37.5 -90.5s-55.167 -37.5 -90.5 -37.5c-52.667 0 -90.667 23.667 -114 71c-23.333 10 -42 25.5 -56 46.5s-21 44.5 -21 70.5v346c0 34.667 12.333 64.5 37 89.5
s54.667 37.5 90 37.5h172c51.333 0 88.333 -23 111 -69c22.667 -10 41 -25.333 55 -46s21 -43.667 21 -69zM715 687c0 20.667 -7.16602 38.332 -21.499 52.999s-31.833 22 -52.5 22h-172c-21.333 0 -39.666 -7.66699 -54.999 -23s-23 -33.666 -23 -54.999v-346
c0 -21.333 7.66699 -39.666 23 -54.999s33.666 -23 54.999 -23s39.666 7.66699 54.999 23s23 33.666 23 54.999v246c0 19.333 10 29 30 29h64c20.667 0 38.167 7.33301 52.5 22s21.5 32 21.5 52zM660.001 686.998c0 -13.333 -6.66699 -20 -20 -20h-136
c-6.66699 0 -10 -3 -10 -9v-319c0 -16.667 -8 -25 -24 -25c-16.667 0 -25 8.33301 -25 25v344c0 16.667 8.33301 25 25 25h170c13.333 0 20 -7 20 -21z" />
    <glyph glyph-name="uni300F" unicode="&#x300f;" 
d="M654 96c0 -35.333 -12.499 -65.501 -37.499 -90.501s-55.167 -37.5 -90.5 -37.5h-172c-51.333 0 -88.333 23.333 -111 70c-22.667 9.33301 -41 24.5 -55 45.5s-21 44.167 -21 69.5c0 34 12 63 36 87s53.333 36 88 36h44v226c0 35.333 12.333 65.333 37 90
s54.667 37 90 37c52.667 0 90.667 -23.333 114 -70c23.333 -10 42.166 -25.667 56.499 -47s21.5 -44.666 21.5 -69.999v-346zM540.001 156.999l-0.000976562 345.001c0 21.333 -7.5 39.666 -22.5 54.999s-33.5 23 -55.5 23c-21.333 0 -39.666 -7.66699 -54.999 -23
s-23 -33.666 -23 -54.999v-246c0 -19.333 -9.66699 -29 -29 -29h-64c-20.667 0 -38.167 -7.33301 -52.5 -22s-21.5 -32 -21.5 -52c0 -20.667 7.16699 -38.334 21.5 -53.001s31.833 -22 52.5 -22h171c22 0 40.5 7.66699 55.5 23s22.5 34 22.5 56zM486 157
c0 -16 -8 -24 -24 -24h-171c-13.333 0 -20 6.66699 -20 20s6.66699 20 20 20h137c6 0 9 3.33301 9 10v319c0 16 8.33301 24 25 24c16 0 24 -8 24 -24v-345z" />
    <glyph glyph-name="uni3010" unicode="&#x3010;" 
d="M450 330v100h100v-100h-100z" />
    <glyph glyph-name="uni3011" unicode="&#x3011;" 
d="M450 330v100h100v-100h-100z" />
    <glyph glyph-name="uni3012" unicode="&#x3012;" 
d="M100 779h800v-799h-800v799zM820 113v530l-265 -265zM498 434l265 265h-529zM180 640v-524l262 262zM237 60h523l-262 261z" />
    <glyph glyph-name="uni3013" unicode="&#x3013;" 
d="M100 779h800v-799h-800v799zM820 113v530l-265 -265zM498 434l265 265h-529zM180 640v-524l262 262zM237 60h523l-262 261z" />
    <glyph glyph-name="uni3014" unicode="&#x3014;" 
d="M450 330v100h100v-100h-100z" />
    <glyph glyph-name="uni3015" unicode="&#x3015;" 
d="M450 330v100h100v-100h-100z" />
    <glyph glyph-name="uni301D" unicode="&#x301d;" 
d="M100 779h800v-799h-800v799zM820 113v530l-265 -265zM498 434l265 265h-529zM180 640v-524l262 262zM237 60h523l-262 261z" />
    <glyph glyph-name="uni301F" unicode="&#x301f;" 
d="M100 779h800v-799h-800v799zM820 113v530l-265 -265zM498 434l265 265h-529zM180 640v-524l262 262zM237 60h523l-262 261z" />
    <glyph glyph-name="uni3041" unicode="&#x3041;" 
d="M857 66c0 -27.333 -9.83301 -50.501 -29.5 -69.501s-43.5 -28.5 -71.5 -28.5c-22 0 -41.667 6 -59 18s-29.666 27.667 -36.999 47c-2.66699 1.33301 -6 2.66602 -10 3.99902c-28 -46 -70 -69 -126 -69h-178c-54.667 0 -98 25.333 -130 76c-54.667 32 -82 76 -82 132v141
c0 45.333 18 83 54 113c-36 18 -54 47 -54 87c0 26.667 9.5 49.667 28.5 69s42.167 29 69.5 29h65c18.667 36.667 48.667 55 90 55c42 0 72.333 -18.333 91 -55h203c45.333 0 75.666 -21.667 90.999 -65c20.667 -6 37.5 -17.667 50.5 -35s19.5 -36.666 19.5 -57.999
c0 -35.333 -15 -63 -45 -83c40 -29.333 60 -68.666 60 -117.999v-190zM746 125.999l-0.00585938 191c0 27.333 -9.83301 50.833 -29.5 70.5s-43.5 29.5 -71.5 29.5h-20c-3.33301 0 -6.33301 1.33301 -9 4c-11.333 15.333 -26.666 23 -45.999 23
c-18.667 0 -33 -7.33301 -43 -22c-2.66699 -3.33301 -5.66699 -5 -9 -5h-62c-10 0 -15 5 -15 15v20c0 10 5 15 15 15h225c13.333 0 25 4.83301 35 14.5s15 21.5 15 35.5s-5 25.833 -15 35.5s-21.667 14.5 -35 14.5h-231c-5.33301 0 -8.66602 2.66699 -9.99902 8
c-1.33301 13.333 -7 24.666 -17 33.999s-22 14 -36 14c-13.333 0 -25.166 -4.66699 -35.499 -14s-16.166 -20.666 -17.499 -33.999c-0.666992 -5.33301 -3.66699 -8 -9 -8h-93c-14 0 -25.833 -4.83301 -35.5 -14.5s-14.5 -21.5 -14.5 -35.5s4.83301 -25.833 14.5 -35.5
s21.5 -14.5 35.5 -14.5h87c10 0 15 -5 15 -15v-20c0 -10 -5 -15 -15 -15h-37c-28 0 -51.667 -9.83301 -71 -29.5s-29 -43.167 -29 -70.5v-141c0 -28 9.66699 -51.667 29 -71s43 -29 71 -29h178c22.667 0 42.667 6.16699 60 18.5s29 28.5 35 48.5l49 164
c2 5.33301 5.66699 8 11 8c6 0 11.333 -3 16 -9s7 -12 7 -18v-162c0 -14 5.33301 -25.833 16 -35.5s23.334 -14.5 38.001 -14.5s27.334 4.83301 38.001 14.5s16 21.5 16 35.5zM488.994 303.999c0 -1.33301 -0.333984 -2.33301 -1.00098 -3l-30 -101
c-4.66699 -14.667 -15 -22 -31 -22h-107c-20 0 -30 9.33301 -30 28v81c0 18.667 10 28 30 28c9.33301 0 14 -5 14 -15v-42c0 -14.667 5.16699 -27.167 15.5 -37.5s22.833 -15.5 37.5 -15.5s27.334 5.16699 38.001 15.5s16 22.833 16 37.5v42c0 10 5 15 15 15h22
c7.33301 0 11 -3.66699 11 -11z" />
    <glyph glyph-name="uni3042" unicode="&#x3042;" 
d="M933 80c0 -30.667 -11.498 -56.999 -34.498 -78.999s-50.5 -33 -82.5 -33c-51.333 0 -87 23 -107 69c-11.333 4 -21.333 9.66699 -30 17c-32.667 -57.333 -83.334 -86 -152.001 -86h-222c-66.667 0 -116 27.333 -148 82c-60.667 34 -91 85 -91 153v176
c0 60 25 107.333 75 142l-1 3c-22 8 -39.667 21.5 -53 40.5s-20 40.5 -20 64.5c0 30.667 10.833 57 32.5 79s48.167 33 79.5 33h88c20 46 55.333 69 106 69c50 0 85 -22.667 105 -68l3 -1h257c49.333 0 83.666 -22.667 102.999 -68c22 -8 39.667 -21.5 53 -40.5
s20 -40.5 20 -64.5c0 -47.333 -21.667 -81 -65 -101c56 -34.667 84 -84.334 84 -149.001v-238zM819.002 141.001v237.999c0 34 -12.167 63.333 -36.5 88s-53.833 37 -88.5 37h-25c-4.66699 0 -8.33398 1.66699 -11.001 5c-14 18.667 -33 28 -57 28
c-23.333 0 -41.333 -9 -54 -27c-3.33301 -4 -7.33301 -6 -12 -6h-77c-12.667 0 -19 6 -19 18v25c0 12.667 6.33301 19 19 19h280c17.333 0 32.166 6.16699 44.499 18.5s18.5 27.166 18.5 44.499c0 16.667 -6.16699 31.167 -18.5 43.5s-27.166 18.5 -44.499 18.5h-287
c-6.66699 0 -10.667 3.33301 -12 10c-2 16.667 -9.16699 30.667 -21.5 42s-27.166 17 -44.499 17s-32.333 -5.66699 -45 -17s-19.667 -25.333 -21 -42c-1.33301 -6.66699 -5.33301 -10 -12 -10h-116c-17.333 0 -32.166 -6.16699 -44.499 -18.5s-18.5 -26.833 -18.5 -43.5
c0 -17.333 6.16699 -32.166 18.5 -44.499s27.166 -18.5 44.499 -18.5h109c12 0 18 -6.33301 18 -19v-25c0 -12.667 -6 -19 -18 -19h-47c-34.667 0 -64.167 -12.167 -88.5 -36.5s-36.5 -53.5 -36.5 -87.5v-176c0 -34.667 12.167 -64.167 36.5 -88.5s53.833 -36.5 88.5 -36.5
h222c28 0 53 7.83301 75 23.5s36.667 35.834 44 60.501l61 204c2 6.66699 6.66699 10 14 10s14 -3.5 20 -10.5s9 -14.5 9 -22.5v-202c0 -17.333 6.5 -32.166 19.5 -44.499s28.833 -18.5 47.5 -18.5c18 0 33.5 6.16699 46.5 18.5s19.5 27.166 19.5 44.499zM499.002 363
v-3.99902l-38 -126c-5.33301 -18.667 -18.333 -28 -39 -28h-133c-10.667 0 -19.667 3.5 -27 10.5s-11 15.5 -11 25.5v100c0 10 3.66699 18.333 11 25s16 10 26 10c12 0 18 -6.33301 18 -19v-51c0 -18.667 6.5 -34.334 19.5 -47.001s28.833 -19 47.5 -19
c18 0 33.5 6.5 46.5 19.5s19.5 28.5 19.5 46.5v52c0 12 6.33301 18 19 18h28c8.66699 0 13 -4.33301 13 -13z" />
    <glyph glyph-name="uni3043" unicode="&#x3043;" 
d="M870 214c0 -29.333 -10.5 -54.5 -31.5 -75.5s-46.5 -31.5 -76.5 -31.5c-47.333 0 -80 22.333 -98 67c-21.333 7.33301 -38.666 20.166 -51.999 38.499s-20 39.166 -20 62.499v245c0 29.333 10.5 54.333 31.5 75s46.167 31 75.5 31c48 0 81 -22 99 -66
c21.333 -7.33301 38.666 -20.166 51.999 -38.499s20 -39.166 20 -62.499v-245zM591 72c0 -28.667 -10.167 -53.167 -30.5 -73.5s-44.833 -30.5 -73.5 -30.5h-119c-59.333 0 -105 26 -137 78c-57.333 33.333 -86 80.333 -86 141v380c0 28.667 10.5 53 31.5 73
s46.5 30 76.5 30c48.667 0 82 -22 100 -66c20.667 -7.33301 37.667 -19.833 51 -37.5s20 -37.5 20 -59.5v-270c46.667 0 78.667 -22 96 -66c20.667 -6.66699 37.667 -19.167 51 -37.5s20 -38.833 20 -61.5zM758 275v245c0 16 -5.83301 29.833 -17.5 41.5
s-25.5 17.5 -41.5 17.5c-16.667 0 -30.667 -5.83301 -42 -17.5s-17 -25.5 -17 -41.5v-245c0 -16.667 5.66699 -30.667 17 -42s25.333 -17 42 -17c16 0 29.833 5.66699 41.5 17s17.5 25.333 17.5 42zM480 133c0 15.333 -5.5 28.501 -16.5 39.501s-24.5 16.5 -40.5 16.5h-78
c-22 0 -33 10.333 -33 31v347c0 15.333 -5.83301 28.5 -17.5 39.5s-25.5 16.5 -41.5 16.5c-16.667 0 -30.834 -5.5 -42.501 -16.5s-17.5 -24.167 -17.5 -39.5v-380c0 -30.667 10.833 -56.834 32.5 -78.501s47.834 -32.5 78.501 -32.5h119c16 0 29.5 5.5 40.5 16.5
s16.5 24.5 16.5 40.5z" />
    <glyph glyph-name="uni3044" unicode="&#x3044;" 
d="M937 265c0 -34 -12.167 -63.001 -36.5 -87.001s-53.5 -36 -87.5 -36c-51.333 0 -88.333 23.333 -111 70c-22.667 9.33301 -41 24.333 -55 45s-21 43.667 -21 69v305c0 34 12 63.167 36 87.5s53 36.5 87 36.5c52 0 89.333 -23.333 112 -70c22.667 -10 41 -25.167 55 -45.5
s21 -43.166 21 -68.499v-306zM589 87.999c0 -32.667 -11.668 -60.832 -35.001 -84.499s-51.333 -35.5 -84 -35.5h-149c-72 0 -124.667 28.667 -158 86c-28.667 15.333 -51.5 37.666 -68.5 66.999s-25.5 61.333 -25.5 96v473c0 32.667 12.167 60.667 36.5 84s53.5 35 87.5 35
c52.667 0 90 -23.333 112 -70c50 -20.667 75 -57 75 -109v-361h26c50.667 0 86.667 -23.333 108 -70c22.667 -8.66699 40.834 -23.167 54.501 -43.5s20.5 -42.833 20.5 -67.5zM822.999 326.001v305c0 20.667 -7.16699 38.167 -21.5 52.5s-31.833 21.5 -52.5 21.5
c-20 0 -37.167 -7.16699 -51.5 -21.5s-21.5 -31.833 -21.5 -52.5v-305c0 -20.667 7.16699 -38.167 21.5 -52.5s31.5 -21.5 51.5 -21.5c20.667 0 38.167 7.16699 52.5 21.5s21.5 31.833 21.5 52.5zM475.999 149.001c0 19.333 -6.83301 35.832 -20.5 49.499
s-30.167 20.5 -49.5 20.5h-98c-11.333 0 -21 3.83301 -29 11.5s-12 16.834 -12 27.501v432c0 19.333 -7.16699 35.833 -21.5 49.5s-31.833 20.5 -52.5 20.5s-38.167 -6.83301 -52.5 -20.5s-21.5 -30.167 -21.5 -49.5v-473c0 -38.667 13.5 -71.5 40.5 -98.5
s59.5 -40.5 97.5 -40.5h149c19.333 0 35.833 7 49.5 21s20.5 30.667 20.5 50z" />
    <glyph glyph-name="uni3045" unicode="&#x3045;" 
d="M841 127c0 -44 -15.6719 -81.502 -47.0049 -112.502s-68.666 -46.5 -111.999 -46.5h-300c-47.333 0 -79.666 22 -96.999 66c-20.667 6.66699 -37.667 19.167 -51 37.5s-20 38.833 -20 61.5c0 26.667 9 49.834 27 69.501s40.333 30.834 67 33.501h-13
c-46.667 0 -78.667 22 -96 66c-21.333 7.33301 -38.666 20 -51.999 38s-20 38.333 -20 61c0 28.667 10.167 53.167 30.5 73.5s44.833 30.5 73.5 30.5h9c-15.333 20.667 -22 43.667 -20 69c2 28.667 13.833 52.5 35.5 71.5s46.834 27.5 75.501 25.5l285 -22
c43.333 -3.33301 73.333 -25 90 -65c22 -7.33301 39.667 -20.833 53 -40.5s19.333 -41.5 18 -65.5c-1.33301 -19.333 -7.66602 -37 -18.999 -53c55.333 -30 83 -76.333 83 -139v-159zM664.995 540.998c1.33301 16 -3.16797 29.833 -13.501 41.5s-23.166 18.167 -38.499 19.5
l-286 21c-15.333 1.33301 -28.833 -3.16699 -40.5 -13.5s-18.167 -23.166 -19.5 -38.499c-0.666992 -15.333 4 -29 14 -41s22.667 -18.333 38 -19l286 -22c15.333 -1.33301 28.833 3.16699 40.5 13.5s18.167 23.166 19.5 38.499zM728.994 186.998v158.998
c0 30.667 -10.833 56.834 -32.5 78.501s-47.834 32.5 -78.501 32.5h-387c-15.333 0 -28.5 -5.5 -39.5 -16.5s-16.5 -24.167 -16.5 -39.5s5.5 -28.5 16.5 -39.5s24.167 -16.5 39.5 -16.5h346c22 0 33 -10.667 33 -32v-93c0 -20.667 -11 -31 -33 -31h-259
c-15.333 0 -28.5 -5.5 -39.5 -16.5s-16.5 -24.167 -16.5 -39.5c0 -16 5.5 -29.5 16.5 -40.5s24.167 -16.5 39.5 -16.5h300c30.667 0 56.834 10.833 78.501 32.5s32.5 47.834 32.5 78.501z" />
    <glyph glyph-name="uni3046" unicode="&#x3046;" 
d="M919 156c0 -52 -18.333 -96.335 -55 -133.002s-81 -55 -133 -55h-374c-50.667 0 -87 23 -109 69c-22 9.33301 -40 24 -54 44s-21 42.667 -21 68c0 32.667 11.667 60.834 35 84.501s51.666 35.5 84.999 35.5h315v34h-359c-50.667 0 -87 23 -109 69
c-22 9.33301 -40 24 -54 44s-21 42.333 -21 67c0 33.333 11.667 61.666 35 84.999s51.666 35 84.999 35h33c-28 26 -40.667 58 -38 96c2.66699 32.667 16.334 59.834 41.001 81.501s53.334 31.167 86.001 28.5l358 -27c46.667 -3.33301 80 -26 100 -68
c23.333 -10 42 -25.833 56 -47.5s20 -45.5 18 -71.5c-1.33301 -23.333 -9.33301 -44.666 -24 -63.999c4 -5.33301 7.33301 -10 10 -14c62.667 -36 94 -90 94 -162v-199zM726 657.998c1.33301 19.333 -4.33398 36.333 -17.001 51s-28.667 22.667 -48 24l-356 27
c-19.333 1.33301 -36.333 -4.33398 -51 -17.001s-22.667 -28.667 -24 -48s4.33398 -36.333 17.001 -51s28.667 -22.667 48 -24l356 -27c19.333 -1.33301 36.333 4.33398 51 17.001s22.667 28.667 24 48zM806 216.998v198.002c0 38.667 -13.667 71.5 -41 98.5
s-60 40.5 -98 40.5h-482c-19.333 0 -35.833 -7 -49.5 -21s-20.5 -30.667 -20.5 -50s6.83301 -35.833 20.5 -49.5s30.167 -20.5 49.5 -20.5h431c11.333 0 21.166 -3.83301 29.499 -11.5s12.5 -16.834 12.5 -27.501v-116c0 -10.667 -4.16699 -19.834 -12.5 -27.501
s-18.166 -11.5 -29.499 -11.5h-323c-19.333 0 -35.833 -6.83301 -49.5 -20.5s-20.5 -30.167 -20.5 -49.5s6.83301 -36 20.5 -50s30.167 -21 49.5 -21h374c38 0 70.667 13.5 98 40.5s41 59.833 41 98.5z" />
    <glyph glyph-name="uni3047" unicode="&#x3047;" 
d="M861 70c0 -28 -9.83398 -52.001 -29.501 -72.001s-43.5 -30 -71.5 -30h-158c-56 0 -97.667 24.667 -125 74l-11 7l-85 -72c-21.333 -18.667 -46.333 -26.667 -75 -24c-42.667 4 -72 26 -88 66c-21.333 6.66699 -38.5 19.167 -51.5 37.5s-19.5 38.5 -19.5 60.5
c0 32.667 12.333 59.334 37 80.001l93 79c-29.333 10 -49.666 29.667 -60.999 59c-20.667 6.66699 -37.667 18.834 -51 36.501s-20 37.5 -20 59.5c0 24.667 7.66699 46.167 23 64.5s34.666 30.166 57.999 35.499c-6 13.333 -9 26.666 -9 39.999c0 30 11.333 55 34 75
c20 18 43.667 26 71 24l276 -20c42 -3.33301 70.333 -24.666 85 -63.999c22 -6.66699 39.5 -19.5 52.5 -38.5s18.833 -40.167 17.5 -63.5c-0.666992 -9.33301 -2.66699 -18.666 -6 -27.999c30.667 -20 46 -48.333 46 -85c0 -31.333 -12.333 -57.333 -37 -78l-74 -62h14
c46.667 0 78.334 -21.667 95.001 -65c20.667 -6.66699 37.5 -18.834 50.5 -36.501s19.5 -37.5 19.5 -59.5zM640.999 547.999c1.33301 14 -2.66699 26.332 -12 36.999s-21 16.334 -35 17.001l-275 20c-14 1.33301 -26.333 -2.66699 -37 -12s-16.334 -21 -17.001 -35
c-1.33301 -14 2.66699 -26.333 12 -37s21 -16.667 35 -18l275 -19c14 -1.33301 26.333 2.66699 37 12s16.334 21 17.001 35zM749.999 129.998c0 14.667 -5.33203 27.1641 -15.999 37.4971s-23.334 15.5 -38.001 15.5h-122c-12 0 -18 5.66699 -18 17v32
c0 20 -9.33301 35.333 -28 46l134 112c12.667 10.667 19 24.334 19 41.001c0 15.333 -5.16699 28.166 -15.5 38.499s-22.833 15.5 -37.5 15.5h-382c-14.667 0 -27.167 -5.16699 -37.5 -15.5s-15.5 -23.166 -15.5 -38.499c0 -14.667 5.16699 -27.167 15.5 -37.5
s22.833 -15.5 37.5 -15.5h199c6.66699 0 10 -3.33301 10 -10c0 -3.33301 -1.33301 -6 -4 -8l-237 -200c-13.333 -11.333 -20 -25.666 -20 -42.999c0 -13.333 4.66699 -25.333 14 -36c11.333 -13.333 25.666 -20 42.999 -20c13.333 0 25.333 4.33301 36 13l140 119
c2 1.33301 4 2 6 2c6.66699 0 10 -3.33301 10 -10v-14c0 -26 9.33301 -48.333 28 -67s41 -28 67 -28h158c14.667 0 27.334 5.33301 38.001 16s16 23.334 16 38.001z" />
    <glyph glyph-name="uni3048" unicode="&#x3048;" 
d="M931 85c0 -32 -11.332 -59.5 -33.999 -82.5s-50 -34.5 -82 -34.5h-197c-62 0 -109.667 27 -143 81c-10.667 5.33301 -20.667 12.333 -30 21l-109 -93c-25.333 -21.333 -54.333 -30.333 -87 -27c-45.333 4 -78 26.667 -98 68
c-22.667 9.33301 -40.834 24.166 -54.501 44.499s-20.5 42.5 -20.5 66.5c0 37.333 14 68 42 92l146 124h-10c-50 0 -85.333 22.667 -106 68c-22 8.66699 -39.833 22.834 -53.5 42.501s-20.5 41.5 -20.5 65.5c0 30.667 10.167 57 30.5 79s45.166 34.333 74.499 37
c-12 20.667 -17.333 43 -16 67c2 30.667 14.833 56.334 38.5 77.001s51.167 30 82.5 28l344 -25c44.667 -3.33301 76.334 -25.666 95.001 -66.999c22.667 -8.66699 41 -23.5 55 -44.5s20 -44.167 18 -69.5c-1.33301 -14 -5 -27.333 -11 -40c40 -22.667 60 -56.667 60 -102
c0 -36 -13.667 -65.667 -41 -89l-128 -108c0 -0.666992 0.333008 -1.33398 1 -2.00098h74c50 0 85.333 -23 106 -69c22 -8.66699 39.833 -22.834 53.5 -42.501s20.5 -41.5 20.5 -65.5zM683.001 667c1.33301 17.333 -3.83105 32.665 -15.498 45.998
s-26.167 20.666 -43.5 21.999l-344 24c-17.333 1.33301 -32.666 -3.66699 -45.999 -15s-20.333 -26 -21 -44c-1.33301 -17.333 3.66699 -32.666 15 -45.999s25.666 -20.666 42.999 -21.999l344 -24c17.333 -1.33301 32.666 3.83398 45.999 15.501s20.666 26.167 21.999 43.5
zM818.004 144.999c0 18.667 -6.50195 34.5 -19.502 47.5s-28.833 19.5 -47.5 19.5h-153c-14.667 0 -22 6.66699 -22 20v41c0 25.333 -11.667 44.333 -35 57l167 140c16 13.333 24 30.333 24 51c0 18.667 -6.5 34.5 -19.5 47.5s-28.833 19.5 -47.5 19.5h-475
c-18.667 0 -34.5 -6.5 -47.5 -19.5s-19.5 -28.833 -19.5 -47.5c0 -18 6.5 -33.667 19.5 -47s28.833 -20 47.5 -20h247c8.66699 0 13 -4 13 -12c0 -4 -1.66699 -7 -5 -9l-295 -250c-16.667 -14 -25 -32 -25 -54c0 -16.667 5.33301 -31.667 16 -45
c14.667 -16.667 33 -25 55 -25c16.667 0 31.334 5.66699 44.001 17l175 148c2.66699 2 5.33398 3 8.00098 3c8.66699 0 13 -4.33301 13 -13v-17c0 -32.667 11.5 -60.667 34.5 -84s50.833 -35 83.5 -35h197c18.667 0 34.5 6.5 47.5 19.5s19.5 28.833 19.5 47.5z" />
    </font>
</defs>
</svg>
